<ttFont>
<head>
    <!-- Most of this table will be recalculated by the compiler -->
    <tableVersion value="1.0"/>
    <fontRevision value="1.0"/>
    <checkSumAdjustment value="0x87873ed1"/>
    <magicNumber value="0x5f0f3cf5"/>
    <flags value="00000000 00000010"/>
    <unitsPerEm value="1500"/>
    <created value="Wed Aug  5 10:17:26 1998"/>
    <modified value="Fri Aug 14 00:57:23 2020"/>
    <xMin value="-734"/>
    <yMin value="-1318"/>
    <xMax value="1540"/>
    <yMax value="1194"/>
    <macStyle value="00000000 00000000"/>
    <lowestRecPPEM value="3"/>
    <fontDirectionHint value="2"/>
    <indexToLocFormat value="0"/>
    <glyphDataFormat value="0"/>
  </head>
    <TTGlyph name=".notdef" xMin="94" yMin="0" xMax="656" yMax="800">
      <contour>
        <pt x="94" y="0" on="1"/>
        <pt x="94" y="800" on="1"/>
        <pt x="656" y="800" on="1"/>
        <pt x="656" y="0" on="1"/>
      </contour>
      <contour>
        <pt x="188" y="94" on="1"/>
        <pt x="563" y="94" on="1"/>
        <pt x="563" y="706" on="1"/>
        <pt x="188" y="706" on="1"/>
      </contour>
    </TTGlyph>
    <TTGlyph name="A" xMin="40" yMin="-44" xMax="993" yMax="787">
      <contour>
        <pt x="987" y="759" on="1"/>
        <pt x="838" y="527" on="0"/>
        <pt x="719" y="334" on="1"/>
        <pt x="680" y="270" on="0"/>
        <pt x="661" y="208" on="1"/>
        <pt x="633" y="114" on="0"/>
        <pt x="633" y="91" on="1"/>
        <pt x="633" y="53" on="0"/>
        <pt x="656" y="32" on="1"/>
        <pt x="665" y="24" on="0"/>
        <pt x="678" y="24" on="1"/>
        <pt x="745" y="24" on="0"/>
        <pt x="845" y="108" on="1"/>
        <pt x="847" y="109" on="0"/>
        <pt x="849" y="110" on="1"/>
        <pt x="852" y="109" on="0"/>
        <pt x="854" y="108" on="1"/>
        <pt x="863" y="104" on="0"/>
        <pt x="855" y="96" on="1"/>
        <pt x="732" y="-23" on="0"/>
        <pt x="654" y="-23" on="1"/>
        <pt x="606" y="-23" on="0"/>
        <pt x="589" y="20" on="1"/>
        <pt x="583" y="41" on="0"/>
        <pt x="583" y="65" on="1"/>
        <pt x="583" y="84" on="0"/>
        <pt x="606" y="193" on="1"/>
        <pt x="677" y="348" on="0"/>
        <pt x="742" y="447" on="1"/>
        <pt x="710" y="409" on="0"/>
        <pt x="665" y="366" on="1"/>
        <pt x="609" y="313" on="0"/>
        <pt x="571" y="271" on="1"/>
        <pt x="501" y="194" on="0"/>
        <pt x="369" y="94" on="1"/>
        <pt x="247" y="1" on="0"/>
        <pt x="245" y="0" on="1"/>
        <pt x="175" y="-44" on="0"/>
        <pt x="102" y="-40" on="1"/>
        <pt x="75" y="-39" on="0"/>
        <pt x="40" y="13" on="0"/>
        <pt x="44" y="44" on="1"/>
        <pt x="77" y="280" on="0"/>
        <pt x="399" y="546" on="1"/>
        <pt x="508" y="636" on="0"/>
        <pt x="719" y="741" on="1"/>
        <pt x="812" y="787" on="0"/>
        <pt x="875" y="787" on="1"/>
        <pt x="897" y="787" on="0"/>
        <pt x="897" y="775" on="1"/>
        <pt x="897" y="759" on="0"/>
        <pt x="885" y="761" on="1"/>
        <pt x="836" y="768" on="0"/>
        <pt x="728" y="716" on="1"/>
        <pt x="576" y="642" on="0"/>
        <pt x="453" y="547" on="1"/>
        <pt x="307" y="434" on="0"/>
        <pt x="233" y="343" on="1"/>
        <pt x="140" y="229" on="0"/>
        <pt x="100" y="83" on="1"/>
        <pt x="98" y="75" on="0"/>
        <pt x="98" y="67" on="1"/>
        <pt x="98" y="45" on="0"/>
        <pt x="129" y="20" on="0"/>
        <pt x="143" y="21" on="1"/>
        <pt x="198" y="24" on="0"/>
        <pt x="246" y="50" on="1"/>
        <pt x="279" y="67" on="0"/>
        <pt x="349" y="121" on="1"/>
        <pt x="483" y="224" on="0"/>
        <pt x="546" y="293" on="1"/>
        <pt x="654" y="409" on="0"/>
        <pt x="761" y="524" on="1"/>
        <pt x="882" y="657" on="0"/>
        <pt x="959" y="764" on="1"/>
        <pt x="968" y="783" on="0"/>
        <pt x="980" y="777" on="1"/>
        <pt x="993" y="768" on="0"/>
      </contour>
    </TTGlyph>
    <TTGlyph name="AE" xMin="40" yMin="-53" xMax="1540" yMax="939">
      <contour>
        <pt x="1539" y="931" on="1"/>
        <pt x="1540" y="921" on="0"/>
        <pt x="1530" y="919" on="1"/>
        <pt x="1445" y="912" on="0"/>
        <pt x="1361" y="833" on="1"/>
        <pt x="1418" y="813" on="0"/>
        <pt x="1416" y="757" on="1"/>
        <pt x="1415" y="737" on="0"/>
        <pt x="1394" y="720" on="1"/>
        <pt x="1356" y="697" on="0"/>
        <pt x="1333" y="697" on="1"/>
        <pt x="1320" y="697" on="0"/>
        <pt x="1305" y="702" on="1"/>
        <pt x="1279" y="712" on="0"/>
        <pt x="1279" y="744" on="1"/>
        <pt x="1279" y="757" on="0"/>
        <pt x="1283" y="771" on="1"/>
        <pt x="1290" y="782" on="0"/>
        <pt x="1303" y="805" on="1"/>
        <pt x="1254" y="807" on="0"/>
        <pt x="1229" y="793" on="1"/>
        <pt x="975" y="676" on="0"/>
        <pt x="975" y="533" on="1"/>
        <pt x="975" y="515" on="0"/>
        <pt x="979" y="497" on="1"/>
        <pt x="1059" y="537" on="0"/>
        <pt x="1127" y="543" on="1"/>
        <pt x="1189" y="549" on="0"/>
        <pt x="1208" y="510" on="1"/>
        <pt x="1216" y="498" on="0"/>
        <pt x="1210" y="478" on="1"/>
        <pt x="1204" y="464" on="0"/>
        <pt x="1192" y="452" on="1"/>
        <pt x="1140" y="402" on="0"/>
        <pt x="1067" y="402" on="1"/>
        <pt x="997" y="402" on="0"/>
        <pt x="962" y="450" on="1"/>
        <pt x="813" y="372" on="0"/>
        <pt x="702" y="251" on="1"/>
        <pt x="636" y="179" on="0"/>
        <pt x="636" y="96" on="1"/>
        <pt x="636" y="52" on="0"/>
        <pt x="659" y="16" on="1"/>
        <pt x="684" y="-13" on="0"/>
        <pt x="756" y="-13" on="1"/>
        <pt x="775" y="-13" on="0"/>
        <pt x="788" y="-10" on="1"/>
        <pt x="909" y="20" on="0"/>
        <pt x="1018" y="91" on="1"/>
        <pt x="1050" y="112" on="0"/>
        <pt x="1210" y="236" on="1"/>
        <pt x="1215" y="243" on="0"/>
        <pt x="1226" y="237" on="1"/>
        <pt x="1228" y="228" on="0"/>
        <pt x="1223" y="222" on="1"/>
        <pt x="971" y="-16" on="0"/>
        <pt x="736" y="-52" on="1"/>
        <pt x="728" y="-53" on="0"/>
        <pt x="718" y="-53" on="1"/>
        <pt x="686" y="-53" on="0"/>
        <pt x="622" y="-29" on="0"/>
        <pt x="613" y="-14" on="1"/>
        <pt x="586" y="31" on="0"/>
        <pt x="587" y="82" on="1"/>
        <pt x="589" y="214" on="0"/>
        <pt x="742" y="447" on="1"/>
        <pt x="710" y="409" on="0"/>
        <pt x="665" y="366" on="1"/>
        <pt x="609" y="313" on="0"/>
        <pt x="571" y="271" on="1"/>
        <pt x="501" y="194" on="0"/>
        <pt x="369" y="94" on="1"/>
        <pt x="256" y="8" on="0"/>
        <pt x="243" y="0" on="1"/>
        <pt x="170" y="-44" on="0"/>
        <pt x="97" y="-40" on="1"/>
        <pt x="80" y="-39" on="0"/>
        <pt x="40" y="16" on="0"/>
        <pt x="44" y="44" on="1"/>
        <pt x="77" y="280" on="0"/>
        <pt x="399" y="546" on="1"/>
        <pt x="508" y="636" on="0"/>
        <pt x="719" y="741" on="1"/>
        <pt x="812" y="787" on="0"/>
        <pt x="875" y="787" on="1"/>
        <pt x="897" y="787" on="0"/>
        <pt x="897" y="775" on="1"/>
        <pt x="897" y="759" on="0"/>
        <pt x="885" y="761" on="1"/>
        <pt x="836" y="768" on="0"/>
        <pt x="728" y="716" on="1"/>
        <pt x="576" y="642" on="0"/>
        <pt x="453" y="547" on="1"/>
        <pt x="309" y="436" on="0"/>
        <pt x="234" y="343" on="1"/>
        <pt x="143" y="230" on="0"/>
        <pt x="100" y="83" on="1"/>
        <pt x="99" y="56" on="0"/>
        <pt x="116" y="34" on="1"/>
        <pt x="129" y="16" on="0"/>
        <pt x="137" y="16" on="1"/>
        <pt x="191" y="18" on="0"/>
        <pt x="243" y="47" on="1"/>
        <pt x="277" y="65" on="0"/>
        <pt x="349" y="121" on="1"/>
        <pt x="483" y="224" on="0"/>
        <pt x="546" y="293" on="1"/>
        <pt x="654" y="409" on="0"/>
        <pt x="761" y="524" on="1"/>
        <pt x="882" y="657" on="0"/>
        <pt x="959" y="764" on="1"/>
        <pt x="968" y="783" on="0"/>
        <pt x="980" y="777" on="1"/>
        <pt x="993" y="768" on="0"/>
        <pt x="987" y="759" on="1"/>
        <pt x="917" y="651" on="0"/>
        <pt x="846" y="543" on="1"/>
        <pt x="762" y="412" on="0"/>
        <pt x="707" y="310" on="1"/>
        <pt x="730" y="335" on="0"/>
        <pt x="790" y="378" on="1"/>
        <pt x="885" y="445" on="0"/>
        <pt x="946" y="479" on="1"/>
        <pt x="940" y="498" on="0"/>
        <pt x="940" y="521" on="1"/>
        <pt x="940" y="602" on="0"/>
        <pt x="1006" y="676" on="1"/>
        <pt x="1089" y="769" on="0"/>
        <pt x="1221" y="822" on="1"/>
        <pt x="1277" y="845" on="0"/>
        <pt x="1332" y="839" on="1"/>
        <pt x="1406" y="909" on="0"/>
        <pt x="1520" y="936" on="1"/>
        <pt x="1538" y="939" on="0"/>
      </contour>
      <contour>
        <pt x="1383" y="770" on="1"/>
        <pt x="1373" y="795" on="0"/>
        <pt x="1331" y="802" on="1"/>
        <pt x="1330" y="801" on="1"/>
        <pt x="1310" y="781" on="0"/>
        <pt x="1310" y="754" on="1"/>
        <pt x="1310" y="732" on="0"/>
        <pt x="1333" y="727" on="1"/>
        <pt x="1356" y="722" on="0"/>
        <pt x="1378" y="744" on="1"/>
        <pt x="1389" y="759" on="0"/>
      </contour>
      <contour>
        <pt x="1161" y="483" on="1"/>
        <pt x="1159" y="496" on="0"/>
        <pt x="1151" y="499" on="1"/>
        <pt x="1101" y="512" on="0"/>
        <pt x="1052" y="492" on="1"/>
        <pt x="1022" y="480" on="0"/>
        <pt x="993" y="466" on="1"/>
        <pt x="1022" y="434" on="0"/>
        <pt x="1068" y="434" on="1"/>
        <pt x="1110" y="434" on="0"/>
        <pt x="1150" y="463" on="1"/>
        <pt x="1161" y="471" on="0"/>
      </contour>
    </TTGlyph>
    <TTGlyph name="Aacute" xMin="40" yMin="-44" xMax="1076" yMax="1004">
      <contour>
        <pt x="1071" y="964" on="1"/>
        <pt x="992" y="897" on="0"/>
        <pt x="888" y="831" on="1"/>
        <pt x="879" y="825" on="0"/>
        <pt x="876" y="832" on="1"/>
        <pt x="872" y="839" on="0"/>
        <pt x="880" y="846" on="1"/>
        <pt x="930" y="896" on="0"/>
        <pt x="1035" y="1001" on="1"/>
        <pt x="1039" y="1004" on="0"/>
        <pt x="1045" y="1004" on="1"/>
        <pt x="1056" y="1004" on="0"/>
        <pt x="1076" y="985" on="0"/>
        <pt x="1076" y="974" on="1"/>
        <pt x="1076" y="968" on="0"/>
      </contour>
      <contour>
        <pt x="987" y="759" on="1"/>
        <pt x="838" y="527" on="0"/>
        <pt x="719" y="334" on="1"/>
        <pt x="680" y="270" on="0"/>
        <pt x="661" y="208" on="1"/>
        <pt x="633" y="114" on="0"/>
        <pt x="633" y="91" on="1"/>
        <pt x="633" y="53" on="0"/>
        <pt x="656" y="32" on="1"/>
        <pt x="665" y="24" on="0"/>
        <pt x="678" y="24" on="1"/>
        <pt x="745" y="24" on="0"/>
        <pt x="845" y="108" on="1"/>
        <pt x="847" y="109" on="0"/>
        <pt x="849" y="110" on="1"/>
        <pt x="852" y="109" on="0"/>
        <pt x="854" y="108" on="1"/>
        <pt x="863" y="104" on="0"/>
        <pt x="855" y="96" on="1"/>
        <pt x="732" y="-23" on="0"/>
        <pt x="654" y="-23" on="1"/>
        <pt x="606" y="-23" on="0"/>
        <pt x="589" y="20" on="1"/>
        <pt x="583" y="41" on="0"/>
        <pt x="583" y="65" on="1"/>
        <pt x="583" y="84" on="0"/>
        <pt x="606" y="193" on="1"/>
        <pt x="677" y="348" on="0"/>
        <pt x="742" y="447" on="1"/>
        <pt x="710" y="409" on="0"/>
        <pt x="665" y="366" on="1"/>
        <pt x="609" y="313" on="0"/>
        <pt x="571" y="271" on="1"/>
        <pt x="501" y="194" on="0"/>
        <pt x="369" y="94" on="1"/>
        <pt x="247" y="1" on="0"/>
        <pt x="245" y="0" on="1"/>
        <pt x="175" y="-44" on="0"/>
        <pt x="102" y="-40" on="1"/>
        <pt x="75" y="-39" on="0"/>
        <pt x="40" y="13" on="0"/>
        <pt x="44" y="44" on="1"/>
        <pt x="77" y="280" on="0"/>
        <pt x="399" y="546" on="1"/>
        <pt x="508" y="636" on="0"/>
        <pt x="719" y="741" on="1"/>
        <pt x="812" y="787" on="0"/>
        <pt x="875" y="787" on="1"/>
        <pt x="897" y="787" on="0"/>
        <pt x="897" y="775" on="1"/>
        <pt x="897" y="759" on="0"/>
        <pt x="885" y="761" on="1"/>
        <pt x="836" y="768" on="0"/>
        <pt x="728" y="716" on="1"/>
        <pt x="576" y="642" on="0"/>
        <pt x="453" y="547" on="1"/>
        <pt x="307" y="434" on="0"/>
        <pt x="233" y="343" on="1"/>
        <pt x="140" y="229" on="0"/>
        <pt x="100" y="83" on="1"/>
        <pt x="98" y="75" on="0"/>
        <pt x="98" y="67" on="1"/>
        <pt x="98" y="45" on="0"/>
        <pt x="129" y="20" on="0"/>
        <pt x="143" y="21" on="1"/>
        <pt x="198" y="24" on="0"/>
        <pt x="246" y="50" on="1"/>
        <pt x="279" y="67" on="0"/>
        <pt x="349" y="121" on="1"/>
        <pt x="483" y="224" on="0"/>
        <pt x="546" y="293" on="1"/>
        <pt x="654" y="409" on="0"/>
        <pt x="761" y="524" on="1"/>
        <pt x="882" y="657" on="0"/>
        <pt x="959" y="764" on="1"/>
        <pt x="968" y="783" on="0"/>
        <pt x="980" y="777" on="1"/>
        <pt x="993" y="768" on="0"/>
      </contour>
    </TTGlyph>
    <TTGlyph name="Acircumflex" xMin="40" yMin="-44" xMax="1011" yMax="949">
      <contour>
        <pt x="1005" y="861" on="1"/>
        <pt x="1011" y="854" on="0"/>
        <pt x="1011" y="844" on="1"/>
        <pt x="1011" y="824" on="0"/>
        <pt x="996" y="824" on="1"/>
        <pt x="991" y="824" on="0"/>
        <pt x="982" y="830" on="0"/>
        <pt x="951" y="863" on="1"/>
        <pt x="924" y="893" on="0"/>
        <pt x="915" y="893" on="1"/>
        <pt x="889" y="893" on="0"/>
        <pt x="750" y="828" on="1"/>
        <pt x="735" y="823" on="0"/>
        <pt x="735" y="840" on="1"/>
        <pt x="735" y="849" on="0"/>
        <pt x="744" y="854" on="1"/>
        <pt x="766" y="865" on="0"/>
        <pt x="846" y="916" on="1"/>
        <pt x="899" y="949" on="0"/>
        <pt x="923" y="949" on="1"/>
        <pt x="934" y="949" on="0"/>
        <pt x="967" y="909" on="1"/>
        <pt x="986" y="885" on="0"/>
      </contour>
      <contour>
        <pt x="987" y="759" on="1"/>
        <pt x="838" y="527" on="0"/>
        <pt x="719" y="334" on="1"/>
        <pt x="680" y="270" on="0"/>
        <pt x="661" y="208" on="1"/>
        <pt x="633" y="114" on="0"/>
        <pt x="633" y="91" on="1"/>
        <pt x="633" y="53" on="0"/>
        <pt x="656" y="32" on="1"/>
        <pt x="665" y="24" on="0"/>
        <pt x="678" y="24" on="1"/>
        <pt x="745" y="24" on="0"/>
        <pt x="845" y="108" on="1"/>
        <pt x="847" y="109" on="0"/>
        <pt x="849" y="110" on="1"/>
        <pt x="852" y="109" on="0"/>
        <pt x="854" y="108" on="1"/>
        <pt x="863" y="104" on="0"/>
        <pt x="855" y="96" on="1"/>
        <pt x="732" y="-23" on="0"/>
        <pt x="654" y="-23" on="1"/>
        <pt x="606" y="-23" on="0"/>
        <pt x="589" y="20" on="1"/>
        <pt x="583" y="41" on="0"/>
        <pt x="583" y="65" on="1"/>
        <pt x="583" y="84" on="0"/>
        <pt x="606" y="193" on="1"/>
        <pt x="677" y="348" on="0"/>
        <pt x="742" y="447" on="1"/>
        <pt x="710" y="409" on="0"/>
        <pt x="665" y="366" on="1"/>
        <pt x="609" y="313" on="0"/>
        <pt x="571" y="271" on="1"/>
        <pt x="501" y="194" on="0"/>
        <pt x="369" y="94" on="1"/>
        <pt x="247" y="1" on="0"/>
        <pt x="245" y="0" on="1"/>
        <pt x="175" y="-44" on="0"/>
        <pt x="102" y="-40" on="1"/>
        <pt x="75" y="-39" on="0"/>
        <pt x="40" y="13" on="0"/>
        <pt x="44" y="44" on="1"/>
        <pt x="77" y="280" on="0"/>
        <pt x="399" y="546" on="1"/>
        <pt x="508" y="636" on="0"/>
        <pt x="719" y="741" on="1"/>
        <pt x="812" y="787" on="0"/>
        <pt x="875" y="787" on="1"/>
        <pt x="897" y="787" on="0"/>
        <pt x="897" y="775" on="1"/>
        <pt x="897" y="759" on="0"/>
        <pt x="885" y="761" on="1"/>
        <pt x="836" y="768" on="0"/>
        <pt x="728" y="716" on="1"/>
        <pt x="576" y="642" on="0"/>
        <pt x="453" y="547" on="1"/>
        <pt x="307" y="434" on="0"/>
        <pt x="233" y="343" on="1"/>
        <pt x="140" y="229" on="0"/>
        <pt x="100" y="83" on="1"/>
        <pt x="98" y="75" on="0"/>
        <pt x="98" y="67" on="1"/>
        <pt x="98" y="45" on="0"/>
        <pt x="129" y="20" on="0"/>
        <pt x="143" y="21" on="1"/>
        <pt x="198" y="24" on="0"/>
        <pt x="246" y="50" on="1"/>
        <pt x="279" y="67" on="0"/>
        <pt x="349" y="121" on="1"/>
        <pt x="483" y="224" on="0"/>
        <pt x="546" y="293" on="1"/>
        <pt x="654" y="409" on="0"/>
        <pt x="761" y="524" on="1"/>
        <pt x="882" y="657" on="0"/>
        <pt x="959" y="764" on="1"/>
        <pt x="968" y="783" on="0"/>
        <pt x="980" y="777" on="1"/>
        <pt x="993" y="768" on="0"/>
      </contour>
    </TTGlyph>
    <TTGlyph name="Adieresis" xMin="40" yMin="-44" xMax="993" yMax="951">
      <contour>
        <pt x="987" y="917" on="1"/>
        <pt x="987" y="904" on="0"/>
        <pt x="950" y="859" on="0"/>
        <pt x="940" y="859" on="1"/>
        <pt x="922" y="859" on="0"/>
        <pt x="919" y="873" on="1"/>
        <pt x="915" y="893" on="0"/>
        <pt x="947" y="941" on="0"/>
        <pt x="971" y="947" on="1"/>
        <pt x="987" y="951" on="0"/>
      </contour>
      <contour>
        <pt x="855" y="917" on="1"/>
        <pt x="855" y="904" on="0"/>
        <pt x="819" y="859" on="0"/>
        <pt x="809" y="859" on="1"/>
        <pt x="789" y="859" on="0"/>
        <pt x="788" y="873" on="1"/>
        <pt x="784" y="893" on="0"/>
        <pt x="815" y="941" on="0"/>
        <pt x="840" y="947" on="1"/>
        <pt x="855" y="951" on="0"/>
      </contour>
      <contour>
        <pt x="987" y="759" on="1"/>
        <pt x="838" y="527" on="0"/>
        <pt x="719" y="334" on="1"/>
        <pt x="680" y="270" on="0"/>
        <pt x="661" y="208" on="1"/>
        <pt x="633" y="114" on="0"/>
        <pt x="633" y="91" on="1"/>
        <pt x="633" y="53" on="0"/>
        <pt x="656" y="32" on="1"/>
        <pt x="665" y="24" on="0"/>
        <pt x="678" y="24" on="1"/>
        <pt x="745" y="24" on="0"/>
        <pt x="845" y="108" on="1"/>
        <pt x="847" y="109" on="0"/>
        <pt x="849" y="110" on="1"/>
        <pt x="852" y="109" on="0"/>
        <pt x="854" y="108" on="1"/>
        <pt x="863" y="104" on="0"/>
        <pt x="855" y="96" on="1"/>
        <pt x="732" y="-23" on="0"/>
        <pt x="654" y="-23" on="1"/>
        <pt x="606" y="-23" on="0"/>
        <pt x="589" y="20" on="1"/>
        <pt x="583" y="41" on="0"/>
        <pt x="583" y="65" on="1"/>
        <pt x="583" y="84" on="0"/>
        <pt x="606" y="193" on="1"/>
        <pt x="677" y="348" on="0"/>
        <pt x="742" y="447" on="1"/>
        <pt x="710" y="409" on="0"/>
        <pt x="665" y="366" on="1"/>
        <pt x="609" y="313" on="0"/>
        <pt x="571" y="271" on="1"/>
        <pt x="501" y="194" on="0"/>
        <pt x="369" y="94" on="1"/>
        <pt x="247" y="1" on="0"/>
        <pt x="245" y="0" on="1"/>
        <pt x="175" y="-44" on="0"/>
        <pt x="102" y="-40" on="1"/>
        <pt x="75" y="-39" on="0"/>
        <pt x="40" y="13" on="0"/>
        <pt x="44" y="44" on="1"/>
        <pt x="77" y="280" on="0"/>
        <pt x="399" y="546" on="1"/>
        <pt x="508" y="636" on="0"/>
        <pt x="719" y="741" on="1"/>
        <pt x="812" y="787" on="0"/>
        <pt x="875" y="787" on="1"/>
        <pt x="897" y="787" on="0"/>
        <pt x="897" y="775" on="1"/>
        <pt x="897" y="759" on="0"/>
        <pt x="885" y="761" on="1"/>
        <pt x="836" y="768" on="0"/>
        <pt x="728" y="716" on="1"/>
        <pt x="576" y="642" on="0"/>
        <pt x="453" y="547" on="1"/>
        <pt x="307" y="434" on="0"/>
        <pt x="233" y="343" on="1"/>
        <pt x="140" y="229" on="0"/>
        <pt x="100" y="83" on="1"/>
        <pt x="98" y="75" on="0"/>
        <pt x="98" y="67" on="1"/>
        <pt x="98" y="45" on="0"/>
        <pt x="129" y="20" on="0"/>
        <pt x="143" y="21" on="1"/>
        <pt x="198" y="24" on="0"/>
        <pt x="246" y="50" on="1"/>
        <pt x="279" y="67" on="0"/>
        <pt x="349" y="121" on="1"/>
        <pt x="483" y="224" on="0"/>
        <pt x="546" y="293" on="1"/>
        <pt x="654" y="409" on="0"/>
        <pt x="761" y="524" on="1"/>
        <pt x="882" y="657" on="0"/>
        <pt x="959" y="764" on="1"/>
        <pt x="968" y="783" on="0"/>
        <pt x="980" y="777" on="1"/>
        <pt x="993" y="768" on="0"/>
      </contour>
    </TTGlyph>
    <TTGlyph name="Agrave" xMin="40" yMin="-44" xMax="993" yMax="1037">
      <contour>
        <pt x="878" y="839" on="1"/>
        <pt x="884" y="830" on="0"/>
        <pt x="879" y="825" on="1"/>
        <pt x="874" y="819" on="0"/>
        <pt x="866" y="826" on="1"/>
        <pt x="775" y="932" on="0"/>
        <pt x="727" y="1005" on="1"/>
        <pt x="725" y="1008" on="0"/>
        <pt x="725" y="1012" on="1"/>
        <pt x="725" y="1037" on="0"/>
        <pt x="757" y="1037" on="1"/>
        <pt x="767" y="1037" on="0"/>
        <pt x="771" y="1030" on="1"/>
        <pt x="807" y="960" on="0"/>
      </contour>
      <contour>
        <pt x="987" y="759" on="1"/>
        <pt x="838" y="527" on="0"/>
        <pt x="719" y="334" on="1"/>
        <pt x="680" y="270" on="0"/>
        <pt x="661" y="208" on="1"/>
        <pt x="633" y="114" on="0"/>
        <pt x="633" y="91" on="1"/>
        <pt x="633" y="53" on="0"/>
        <pt x="656" y="32" on="1"/>
        <pt x="665" y="24" on="0"/>
        <pt x="678" y="24" on="1"/>
        <pt x="745" y="24" on="0"/>
        <pt x="845" y="108" on="1"/>
        <pt x="847" y="109" on="0"/>
        <pt x="849" y="110" on="1"/>
        <pt x="852" y="109" on="0"/>
        <pt x="854" y="108" on="1"/>
        <pt x="863" y="104" on="0"/>
        <pt x="855" y="96" on="1"/>
        <pt x="732" y="-23" on="0"/>
        <pt x="654" y="-23" on="1"/>
        <pt x="606" y="-23" on="0"/>
        <pt x="589" y="20" on="1"/>
        <pt x="583" y="41" on="0"/>
        <pt x="583" y="65" on="1"/>
        <pt x="583" y="84" on="0"/>
        <pt x="606" y="193" on="1"/>
        <pt x="677" y="348" on="0"/>
        <pt x="742" y="447" on="1"/>
        <pt x="710" y="409" on="0"/>
        <pt x="665" y="366" on="1"/>
        <pt x="609" y="313" on="0"/>
        <pt x="571" y="271" on="1"/>
        <pt x="501" y="194" on="0"/>
        <pt x="369" y="94" on="1"/>
        <pt x="247" y="1" on="0"/>
        <pt x="245" y="0" on="1"/>
        <pt x="175" y="-44" on="0"/>
        <pt x="102" y="-40" on="1"/>
        <pt x="75" y="-39" on="0"/>
        <pt x="40" y="13" on="0"/>
        <pt x="44" y="44" on="1"/>
        <pt x="77" y="280" on="0"/>
        <pt x="399" y="546" on="1"/>
        <pt x="508" y="636" on="0"/>
        <pt x="719" y="741" on="1"/>
        <pt x="812" y="787" on="0"/>
        <pt x="875" y="787" on="1"/>
        <pt x="897" y="787" on="0"/>
        <pt x="897" y="775" on="1"/>
        <pt x="897" y="759" on="0"/>
        <pt x="885" y="761" on="1"/>
        <pt x="836" y="768" on="0"/>
        <pt x="728" y="716" on="1"/>
        <pt x="576" y="642" on="0"/>
        <pt x="453" y="547" on="1"/>
        <pt x="307" y="434" on="0"/>
        <pt x="233" y="343" on="1"/>
        <pt x="140" y="229" on="0"/>
        <pt x="100" y="83" on="1"/>
        <pt x="98" y="75" on="0"/>
        <pt x="98" y="67" on="1"/>
        <pt x="98" y="45" on="0"/>
        <pt x="129" y="20" on="0"/>
        <pt x="143" y="21" on="1"/>
        <pt x="198" y="24" on="0"/>
        <pt x="246" y="50" on="1"/>
        <pt x="279" y="67" on="0"/>
        <pt x="349" y="121" on="1"/>
        <pt x="483" y="224" on="0"/>
        <pt x="546" y="293" on="1"/>
        <pt x="654" y="409" on="0"/>
        <pt x="761" y="524" on="1"/>
        <pt x="882" y="657" on="0"/>
        <pt x="959" y="764" on="1"/>
        <pt x="968" y="783" on="0"/>
        <pt x="980" y="777" on="1"/>
        <pt x="993" y="768" on="0"/>
      </contour>
    </TTGlyph>
    <TTGlyph name="Aring" xMin="40" yMin="-44" xMax="1022" yMax="990">
      <contour>
        <pt x="1018" y="942" on="1"/>
        <pt x="1022" y="908" on="0"/>
        <pt x="989" y="876" on="1"/>
        <pt x="918" y="808" on="0"/>
        <pt x="859" y="831" on="1"/>
        <pt x="832" y="842" on="0"/>
        <pt x="839" y="878" on="1"/>
        <pt x="845" y="910" on="0"/>
        <pt x="885" y="944" on="1"/>
        <pt x="917" y="971" on="0"/>
        <pt x="951" y="980" on="1"/>
        <pt x="991" y="990" on="0"/>
        <pt x="1008" y="968" on="1"/>
        <pt x="1016" y="961" on="0"/>
      </contour>
      <contour>
        <pt x="987" y="759" on="1"/>
        <pt x="838" y="527" on="0"/>
        <pt x="719" y="334" on="1"/>
        <pt x="680" y="270" on="0"/>
        <pt x="661" y="208" on="1"/>
        <pt x="633" y="114" on="0"/>
        <pt x="633" y="91" on="1"/>
        <pt x="633" y="53" on="0"/>
        <pt x="656" y="32" on="1"/>
        <pt x="665" y="24" on="0"/>
        <pt x="678" y="24" on="1"/>
        <pt x="745" y="24" on="0"/>
        <pt x="845" y="108" on="1"/>
        <pt x="847" y="109" on="0"/>
        <pt x="849" y="110" on="1"/>
        <pt x="852" y="109" on="0"/>
        <pt x="854" y="108" on="1"/>
        <pt x="863" y="104" on="0"/>
        <pt x="855" y="96" on="1"/>
        <pt x="732" y="-23" on="0"/>
        <pt x="654" y="-23" on="1"/>
        <pt x="606" y="-23" on="0"/>
        <pt x="589" y="20" on="1"/>
        <pt x="583" y="41" on="0"/>
        <pt x="583" y="65" on="1"/>
        <pt x="583" y="84" on="0"/>
        <pt x="606" y="193" on="1"/>
        <pt x="677" y="348" on="0"/>
        <pt x="742" y="447" on="1"/>
        <pt x="710" y="409" on="0"/>
        <pt x="665" y="366" on="1"/>
        <pt x="609" y="313" on="0"/>
        <pt x="571" y="271" on="1"/>
        <pt x="501" y="194" on="0"/>
        <pt x="369" y="94" on="1"/>
        <pt x="247" y="1" on="0"/>
        <pt x="245" y="0" on="1"/>
        <pt x="175" y="-44" on="0"/>
        <pt x="102" y="-40" on="1"/>
        <pt x="75" y="-39" on="0"/>
        <pt x="40" y="13" on="0"/>
        <pt x="44" y="44" on="1"/>
        <pt x="77" y="280" on="0"/>
        <pt x="399" y="546" on="1"/>
        <pt x="508" y="636" on="0"/>
        <pt x="719" y="741" on="1"/>
        <pt x="812" y="787" on="0"/>
        <pt x="875" y="787" on="1"/>
        <pt x="897" y="787" on="0"/>
        <pt x="897" y="775" on="1"/>
        <pt x="897" y="759" on="0"/>
        <pt x="885" y="761" on="1"/>
        <pt x="836" y="768" on="0"/>
        <pt x="728" y="716" on="1"/>
        <pt x="576" y="642" on="0"/>
        <pt x="453" y="547" on="1"/>
        <pt x="307" y="434" on="0"/>
        <pt x="233" y="343" on="1"/>
        <pt x="140" y="229" on="0"/>
        <pt x="100" y="83" on="1"/>
        <pt x="98" y="75" on="0"/>
        <pt x="98" y="67" on="1"/>
        <pt x="98" y="45" on="0"/>
        <pt x="129" y="20" on="0"/>
        <pt x="143" y="21" on="1"/>
        <pt x="198" y="24" on="0"/>
        <pt x="246" y="50" on="1"/>
        <pt x="279" y="67" on="0"/>
        <pt x="349" y="121" on="1"/>
        <pt x="483" y="224" on="0"/>
        <pt x="546" y="293" on="1"/>
        <pt x="654" y="409" on="0"/>
        <pt x="761" y="524" on="1"/>
        <pt x="882" y="657" on="0"/>
        <pt x="959" y="764" on="1"/>
        <pt x="968" y="783" on="0"/>
        <pt x="980" y="777" on="1"/>
        <pt x="993" y="768" on="0"/>
      </contour>
      <contour>
        <pt x="993" y="942" on="1"/>
        <pt x="992" y="946" on="0"/>
        <pt x="989" y="953" on="1"/>
        <pt x="974" y="963" on="0"/>
        <pt x="944" y="951" on="1"/>
        <pt x="938" y="949" on="0"/>
        <pt x="907" y="929" on="1"/>
        <pt x="892" y="917" on="0"/>
        <pt x="878" y="900" on="1"/>
        <pt x="871" y="886" on="0"/>
        <pt x="871" y="872" on="1"/>
        <pt x="866" y="863" on="0"/>
        <pt x="881" y="859" on="1"/>
        <pt x="914" y="855" on="0"/>
        <pt x="963" y="892" on="1"/>
        <pt x="995" y="924" on="0"/>
      </contour>
    </TTGlyph>
    <TTGlyph name="Atilde" xMin="40" yMin="-44" xMax="1021" yMax="926">
      <contour>
        <pt x="932" y="845" on="1"/>
        <pt x="903" y="845" on="0"/>
        <pt x="854" y="879" on="0"/>
        <pt x="838" y="879" on="1"/>
        <pt x="805" y="879" on="0"/>
        <pt x="763" y="847" on="1"/>
        <pt x="758" y="843" on="0"/>
        <pt x="752" y="843" on="1"/>
        <pt x="734" y="843" on="0"/>
        <pt x="734" y="861" on="1"/>
        <pt x="734" y="869" on="0"/>
        <pt x="741" y="874" on="1"/>
        <pt x="803" y="921" on="0"/>
        <pt x="838" y="921" on="1"/>
        <pt x="854" y="921" on="0"/>
        <pt x="903" y="885" on="0"/>
        <pt x="932" y="885" on="1"/>
        <pt x="971" y="885" on="0"/>
        <pt x="993" y="916" on="1"/>
        <pt x="1000" y="926" on="0"/>
        <pt x="1008" y="926" on="1"/>
        <pt x="1021" y="926" on="0"/>
        <pt x="1021" y="911" on="1"/>
        <pt x="1021" y="889" on="0"/>
        <pt x="954" y="845" on="0"/>
      </contour>
      <contour>
        <pt x="987" y="759" on="1"/>
        <pt x="838" y="527" on="0"/>
        <pt x="719" y="334" on="1"/>
        <pt x="680" y="270" on="0"/>
        <pt x="661" y="208" on="1"/>
        <pt x="633" y="114" on="0"/>
        <pt x="633" y="91" on="1"/>
        <pt x="633" y="53" on="0"/>
        <pt x="656" y="32" on="1"/>
        <pt x="665" y="24" on="0"/>
        <pt x="678" y="24" on="1"/>
        <pt x="745" y="24" on="0"/>
        <pt x="845" y="108" on="1"/>
        <pt x="847" y="109" on="0"/>
        <pt x="849" y="110" on="1"/>
        <pt x="852" y="109" on="0"/>
        <pt x="854" y="108" on="1"/>
        <pt x="863" y="104" on="0"/>
        <pt x="855" y="96" on="1"/>
        <pt x="732" y="-23" on="0"/>
        <pt x="654" y="-23" on="1"/>
        <pt x="606" y="-23" on="0"/>
        <pt x="589" y="20" on="1"/>
        <pt x="583" y="41" on="0"/>
        <pt x="583" y="65" on="1"/>
        <pt x="583" y="84" on="0"/>
        <pt x="606" y="193" on="1"/>
        <pt x="677" y="348" on="0"/>
        <pt x="742" y="447" on="1"/>
        <pt x="710" y="409" on="0"/>
        <pt x="665" y="366" on="1"/>
        <pt x="609" y="313" on="0"/>
        <pt x="571" y="271" on="1"/>
        <pt x="501" y="194" on="0"/>
        <pt x="369" y="94" on="1"/>
        <pt x="247" y="1" on="0"/>
        <pt x="245" y="0" on="1"/>
        <pt x="175" y="-44" on="0"/>
        <pt x="102" y="-40" on="1"/>
        <pt x="75" y="-39" on="0"/>
        <pt x="40" y="13" on="0"/>
        <pt x="44" y="44" on="1"/>
        <pt x="77" y="280" on="0"/>
        <pt x="399" y="546" on="1"/>
        <pt x="508" y="636" on="0"/>
        <pt x="719" y="741" on="1"/>
        <pt x="812" y="787" on="0"/>
        <pt x="875" y="787" on="1"/>
        <pt x="897" y="787" on="0"/>
        <pt x="897" y="775" on="1"/>
        <pt x="897" y="759" on="0"/>
        <pt x="885" y="761" on="1"/>
        <pt x="836" y="768" on="0"/>
        <pt x="728" y="716" on="1"/>
        <pt x="576" y="642" on="0"/>
        <pt x="453" y="547" on="1"/>
        <pt x="307" y="434" on="0"/>
        <pt x="233" y="343" on="1"/>
        <pt x="140" y="229" on="0"/>
        <pt x="100" y="83" on="1"/>
        <pt x="98" y="75" on="0"/>
        <pt x="98" y="67" on="1"/>
        <pt x="98" y="45" on="0"/>
        <pt x="129" y="20" on="0"/>
        <pt x="143" y="21" on="1"/>
        <pt x="198" y="24" on="0"/>
        <pt x="246" y="50" on="1"/>
        <pt x="279" y="67" on="0"/>
        <pt x="349" y="121" on="1"/>
        <pt x="483" y="224" on="0"/>
        <pt x="546" y="293" on="1"/>
        <pt x="654" y="409" on="0"/>
        <pt x="761" y="524" on="1"/>
        <pt x="882" y="657" on="0"/>
        <pt x="959" y="764" on="1"/>
        <pt x="968" y="783" on="0"/>
        <pt x="980" y="777" on="1"/>
        <pt x="993" y="768" on="0"/>
      </contour>
    </TTGlyph>
    <TTGlyph name="B" xMin="19" yMin="-71" xMax="709" yMax="865">
      <contour>
        <pt x="709" y="757" on="1"/>
        <pt x="709" y="738" on="0"/>
        <pt x="694" y="713" on="1"/>
        <pt x="608" y="613" on="0"/>
        <pt x="486" y="536" on="1"/>
        <pt x="635" y="536" on="0"/>
        <pt x="654" y="435" on="1"/>
        <pt x="655" y="420" on="0"/>
        <pt x="655" y="404" on="1"/>
        <pt x="655" y="304" on="0"/>
        <pt x="556" y="102" on="0"/>
        <pt x="478" y="39" on="1"/>
        <pt x="341" y="-71" on="0"/>
        <pt x="199" y="-71" on="1"/>
        <pt x="116" y="-71" on="0"/>
        <pt x="57" y="-24" on="1"/>
        <pt x="19" y="15" on="0"/>
        <pt x="19" y="79" on="1"/>
        <pt x="19" y="107" on="0"/>
        <pt x="28" y="137" on="1"/>
        <pt x="51" y="214" on="0"/>
        <pt x="175" y="255" on="1"/>
        <pt x="272" y="416" on="0"/>
        <pt x="338" y="505" on="1"/>
        <pt x="372" y="551" on="1"/>
        <pt x="428" y="631" on="0"/>
        <pt x="538" y="790" on="1"/>
        <pt x="361" y="684" on="0"/>
        <pt x="187" y="684" on="1"/>
        <pt x="162" y="684" on="0"/>
        <pt x="135" y="686" on="1"/>
        <pt x="129" y="686" on="0"/>
        <pt x="129" y="693" on="1"/>
        <pt x="129" y="701" on="0"/>
        <pt x="135" y="701" on="1"/>
        <pt x="353" y="694" on="0"/>
        <pt x="581" y="854" on="1"/>
        <pt x="591" y="861" on="1"/>
        <pt x="593" y="862" on="1"/>
        <pt x="599" y="865" on="0"/>
        <pt x="605" y="862" on="1"/>
        <pt x="611" y="858" on="0"/>
        <pt x="610" y="851" on="1"/>
        <pt x="609" y="846" on="0"/>
        <pt x="604" y="838" on="1"/>
        <pt x="577" y="798" on="0"/>
        <pt x="521" y="722" on="1"/>
        <pt x="590" y="777" on="0"/>
        <pt x="661" y="790" on="1"/>
        <pt x="679" y="793" on="0"/>
        <pt x="709" y="774" on="0"/>
      </contour>
      <contour>
        <pt x="657" y="719" on="1"/>
        <pt x="661" y="730" on="0"/>
        <pt x="651" y="747" on="0"/>
        <pt x="641" y="745" on="1"/>
        <pt x="562" y="729" on="0"/>
        <pt x="497" y="666" on="1"/>
        <pt x="451" y="622" on="0"/>
        <pt x="387" y="526" on="1"/>
        <pt x="383" y="520" on="1"/>
        <pt x="393" y="522" on="0"/>
        <pt x="414" y="528" on="1"/>
        <pt x="484" y="564" on="0"/>
        <pt x="558" y="623" on="1"/>
        <pt x="586" y="645" on="0"/>
        <pt x="615" y="666" on="1"/>
        <pt x="641" y="688" on="0"/>
      </contour>
      <contour>
        <pt x="618" y="423" on="1"/>
        <pt x="613" y="501" on="0"/>
        <pt x="498" y="501" on="1"/>
        <pt x="458" y="501" on="0"/>
        <pt x="417" y="491" on="1"/>
        <pt x="403" y="487" on="0"/>
        <pt x="374" y="477" on="1"/>
        <pt x="365" y="474" on="1"/>
        <pt x="362" y="473" on="0"/>
        <pt x="355" y="475" on="1"/>
        <pt x="290" y="364" on="0"/>
        <pt x="224" y="254" on="1"/>
        <pt x="148" y="128" on="0"/>
        <pt x="83" y="44" on="1"/>
        <pt x="74" y="35" on="1"/>
        <pt x="86" y="21" on="1"/>
        <pt x="142" y="-23" on="0"/>
        <pt x="217" y="-23" on="1"/>
        <pt x="340" y="-23" on="0"/>
        <pt x="456" y="73" on="1"/>
        <pt x="535" y="139" on="0"/>
        <pt x="624" y="326" on="0"/>
      </contour>
      <contour>
        <pt x="148" y="210" on="1"/>
        <pt x="61" y="164" on="0"/>
        <pt x="66" y="90" on="1"/>
        <pt x="67" y="76" on="1"/>
        <pt x="94" y="120" on="0"/>
      </contour>
    </TTGlyph>
    <TTGlyph name="C" xMin="43" yMin="-69" xMax="869" yMax="909">
      <contour>
        <pt x="869" y="905" on="1"/>
        <pt x="866" y="899" on="0"/>
        <pt x="865" y="899" on="1"/>
        <pt x="807" y="872" on="0"/>
        <pt x="694" y="803" on="1"/>
        <pt x="692" y="801" on="0"/>
        <pt x="685" y="796" on="0"/>
        <pt x="684" y="795" on="1"/>
        <pt x="711" y="768" on="0"/>
        <pt x="711" y="726" on="1"/>
        <pt x="711" y="678" on="0"/>
        <pt x="674" y="641" on="1"/>
        <pt x="622" y="590" on="0"/>
        <pt x="580" y="589" on="1"/>
        <pt x="564" y="589" on="0"/>
        <pt x="558" y="606" on="1"/>
        <pt x="552" y="620" on="0"/>
        <pt x="557" y="634" on="1"/>
        <pt x="571" y="720" on="0"/>
        <pt x="642" y="788" on="1"/>
        <pt x="628" y="795" on="0"/>
        <pt x="609" y="795" on="1"/>
        <pt x="557" y="795" on="0"/>
        <pt x="504" y="759" on="1"/>
        <pt x="322" y="637" on="0"/>
        <pt x="86" y="271" on="0"/>
        <pt x="86" y="129" on="1"/>
        <pt x="86" y="66" on="0"/>
        <pt x="116" y="34" on="1"/>
        <pt x="170" y="-24" on="0"/>
        <pt x="250" y="-18" on="1"/>
        <pt x="416" y="-5" on="0"/>
        <pt x="579" y="212" on="1"/>
        <pt x="586" y="221" on="0"/>
        <pt x="596" y="213" on="1"/>
        <pt x="601" y="208" on="0"/>
        <pt x="595" y="197" on="1"/>
        <pt x="533" y="104" on="0"/>
        <pt x="456" y="37" on="1"/>
        <pt x="350" y="-55" on="0"/>
        <pt x="251" y="-62" on="1"/>
        <pt x="152" y="-69" on="0"/>
        <pt x="99" y="-22" on="1"/>
        <pt x="43" y="27" on="0"/>
        <pt x="43" y="118" on="1"/>
        <pt x="43" y="179" on="0"/>
        <pt x="69" y="260" on="1"/>
        <pt x="162" y="557" on="0"/>
        <pt x="480" y="773" on="1"/>
        <pt x="551" y="821" on="0"/>
        <pt x="616" y="821" on="1"/>
        <pt x="645" y="821" on="0"/>
        <pt x="666" y="809" on="1"/>
        <pt x="746" y="875" on="0"/>
        <pt x="863" y="907" on="1"/>
        <pt x="865" y="909" on="0"/>
      </contour>
      <contour>
        <pt x="671" y="686" on="1"/>
        <pt x="681" y="703" on="0"/>
        <pt x="681" y="721" on="1"/>
        <pt x="681" y="748" on="0"/>
        <pt x="660" y="774" on="1"/>
        <pt x="618" y="733" on="0"/>
        <pt x="597" y="659" on="1"/>
        <pt x="594" y="650" on="0"/>
        <pt x="603" y="636" on="0"/>
        <pt x="610" y="637" on="1"/>
        <pt x="648" y="649" on="0"/>
      </contour>
    </TTGlyph>
    <TTGlyph name="Ccedilla" xMin="2" yMin="-316" xMax="869" yMax="909">
      <contour>
        <pt x="869" y="905" on="1"/>
        <pt x="866" y="899" on="0"/>
        <pt x="865" y="899" on="1"/>
        <pt x="807" y="872" on="0"/>
        <pt x="694" y="803" on="1"/>
        <pt x="692" y="801" on="0"/>
        <pt x="685" y="796" on="0"/>
        <pt x="684" y="795" on="1"/>
        <pt x="711" y="768" on="0"/>
        <pt x="711" y="726" on="1"/>
        <pt x="711" y="678" on="0"/>
        <pt x="674" y="641" on="1"/>
        <pt x="622" y="590" on="0"/>
        <pt x="580" y="589" on="1"/>
        <pt x="564" y="589" on="0"/>
        <pt x="558" y="606" on="1"/>
        <pt x="552" y="620" on="0"/>
        <pt x="557" y="634" on="1"/>
        <pt x="571" y="720" on="0"/>
        <pt x="642" y="788" on="1"/>
        <pt x="628" y="795" on="0"/>
        <pt x="609" y="795" on="1"/>
        <pt x="557" y="795" on="0"/>
        <pt x="504" y="759" on="1"/>
        <pt x="322" y="637" on="0"/>
        <pt x="86" y="271" on="0"/>
        <pt x="86" y="129" on="1"/>
        <pt x="86" y="66" on="0"/>
        <pt x="116" y="34" on="1"/>
        <pt x="170" y="-24" on="0"/>
        <pt x="250" y="-18" on="1"/>
        <pt x="416" y="-5" on="0"/>
        <pt x="579" y="212" on="1"/>
        <pt x="586" y="221" on="0"/>
        <pt x="596" y="213" on="1"/>
        <pt x="601" y="208" on="0"/>
        <pt x="595" y="197" on="1"/>
        <pt x="534" y="104" on="0"/>
        <pt x="456" y="37" on="1"/>
        <pt x="350" y="-55" on="0"/>
        <pt x="251" y="-62" on="1"/>
        <pt x="196" y="-66" on="0"/>
        <pt x="160" y="-55" on="1"/>
        <pt x="152" y="-76" on="0"/>
        <pt x="135" y="-115" on="1"/>
        <pt x="146" y="-112" on="0"/>
        <pt x="158" y="-112" on="1"/>
        <pt x="210" y="-112" on="0"/>
        <pt x="210" y="-183" on="1"/>
        <pt x="210" y="-235" on="0"/>
        <pt x="150" y="-272" on="1"/>
        <pt x="99" y="-302" on="0"/>
        <pt x="25" y="-313" on="1"/>
        <pt x="2" y="-316" on="0"/>
        <pt x="2" y="-296" on="1"/>
        <pt x="2" y="-289" on="0"/>
        <pt x="11" y="-287" on="1"/>
        <pt x="168" y="-254" on="0"/>
        <pt x="168" y="-180" on="1"/>
        <pt x="168" y="-150" on="0"/>
        <pt x="148" y="-150" on="1"/>
        <pt x="131" y="-150" on="0"/>
        <pt x="119" y="-159" on="1"/>
        <pt x="99" y="-173" on="0"/>
        <pt x="99" y="-173" on="1"/>
        <pt x="94" y="-175" on="0"/>
        <pt x="90" y="-175" on="1"/>
        <pt x="77" y="-175" on="0"/>
        <pt x="77" y="-163" on="1"/>
        <pt x="77" y="-157" on="0"/>
        <pt x="81" y="-151" on="1"/>
        <pt x="93" y="-136" on="0"/>
        <pt x="136" y="-46" on="1"/>
        <pt x="116" y="-37" on="0"/>
        <pt x="99" y="-22" on="1"/>
        <pt x="43" y="27" on="0"/>
        <pt x="43" y="118" on="1"/>
        <pt x="43" y="179" on="0"/>
        <pt x="69" y="260" on="1"/>
        <pt x="162" y="557" on="0"/>
        <pt x="480" y="773" on="1"/>
        <pt x="551" y="821" on="0"/>
        <pt x="616" y="821" on="1"/>
        <pt x="645" y="821" on="0"/>
        <pt x="666" y="809" on="1"/>
        <pt x="746" y="875" on="0"/>
        <pt x="863" y="907" on="1"/>
        <pt x="865" y="909" on="0"/>
      </contour>
      <contour>
        <pt x="671" y="686" on="1"/>
        <pt x="681" y="703" on="0"/>
        <pt x="681" y="721" on="1"/>
        <pt x="681" y="748" on="0"/>
        <pt x="660" y="774" on="1"/>
        <pt x="618" y="733" on="0"/>
        <pt x="597" y="659" on="1"/>
        <pt x="594" y="650" on="0"/>
        <pt x="603" y="636" on="0"/>
        <pt x="610" y="637" on="1"/>
        <pt x="648" y="649" on="0"/>
      </contour>
    </TTGlyph>
    <TTGlyph name="D" xMin="6" yMin="-115" xMax="1081" yMax="828">
      <contour>
        <pt x="1058" y="642" on="1"/>
        <pt x="1081" y="590" on="0"/>
        <pt x="1081" y="523" on="1"/>
        <pt x="1081" y="349" on="0"/>
        <pt x="964" y="181" on="1"/>
        <pt x="906" y="97" on="0"/>
        <pt x="814" y="37" on="1"/>
        <pt x="707" y="-33" on="0"/>
        <pt x="603" y="-33" on="1"/>
        <pt x="568" y="-33" on="0"/>
        <pt x="535" y="-25" on="1"/>
        <pt x="534" y="-25" on="0"/>
        <pt x="403" y="22" on="1"/>
        <pt x="289" y="-78" on="0"/>
        <pt x="151" y="-101" on="1"/>
        <pt x="65" y="-115" on="0"/>
        <pt x="32" y="-89" on="1"/>
        <pt x="6" y="-68" on="0"/>
        <pt x="6" y="-33" on="1"/>
        <pt x="6" y="1" on="0"/>
        <pt x="31" y="27" on="1"/>
        <pt x="87" y="87" on="0"/>
        <pt x="195" y="87" on="1"/>
        <pt x="242" y="87" on="0"/>
        <pt x="306" y="75" on="1"/>
        <pt x="342" y="68" on="0"/>
        <pt x="384" y="55" on="1"/>
        <pt x="472" y="130" on="0"/>
        <pt x="540" y="243" on="1"/>
        <pt x="554" y="265" on="0"/>
        <pt x="654" y="455" on="1"/>
        <pt x="671" y="488" on="0"/>
        <pt x="710" y="571" on="1"/>
        <pt x="657" y="554" on="0"/>
        <pt x="609" y="554" on="1"/>
        <pt x="569" y="554" on="0"/>
        <pt x="535" y="566" on="1"/>
        <pt x="468" y="589" on="0"/>
        <pt x="469" y="634" on="1"/>
        <pt x="471" y="714" on="0"/>
        <pt x="575" y="771" on="1"/>
        <pt x="666" y="820" on="0"/>
        <pt x="769" y="824" on="1"/>
        <pt x="873" y="828" on="0"/>
        <pt x="953" y="772" on="1"/>
        <pt x="1023" y="723" on="0"/>
      </contour>
      <contour>
        <pt x="1021" y="632" on="1"/>
        <pt x="929" y="803" on="0"/>
        <pt x="757" y="789" on="1"/>
        <pt x="682" y="783" on="0"/>
        <pt x="606" y="748" on="1"/>
        <pt x="509" y="703" on="0"/>
        <pt x="509" y="641" on="1"/>
        <pt x="509" y="605" on="0"/>
        <pt x="558" y="592" on="1"/>
        <pt x="583" y="585" on="0"/>
        <pt x="615" y="585" on="1"/>
        <pt x="674" y="585" on="0"/>
        <pt x="725" y="606" on="1"/>
        <pt x="752" y="665" on="0"/>
        <pt x="772" y="714" on="1"/>
        <pt x="775" y="722" on="0"/>
        <pt x="785" y="721" on="1"/>
        <pt x="795" y="720" on="0"/>
        <pt x="795" y="710" on="1"/>
        <pt x="795" y="707" on="0"/>
        <pt x="793" y="703" on="1"/>
        <pt x="781" y="675" on="0"/>
        <pt x="758" y="622" on="1"/>
        <pt x="791" y="642" on="0"/>
        <pt x="805" y="669" on="1"/>
        <pt x="809" y="680" on="0"/>
        <pt x="823" y="680" on="1"/>
        <pt x="835" y="679" on="0"/>
        <pt x="832" y="665" on="1"/>
        <pt x="830" y="632" on="0"/>
        <pt x="791" y="609" on="1"/>
        <pt x="766" y="594" on="0"/>
        <pt x="741" y="583" on="1"/>
        <pt x="671" y="419" on="0"/>
        <pt x="633" y="345" on="1"/>
        <pt x="570" y="225" on="0"/>
        <pt x="479" y="104" on="1"/>
        <pt x="453" y="70" on="0"/>
        <pt x="423" y="41" on="1"/>
        <pt x="489" y="18" on="0"/>
        <pt x="509" y="13" on="1"/>
        <pt x="558" y="-1" on="0"/>
        <pt x="602" y="-1" on="1"/>
        <pt x="671" y="-2" on="0"/>
        <pt x="735" y="32" on="1"/>
        <pt x="880" y="109" on="0"/>
        <pt x="967" y="259" on="1"/>
        <pt x="1044" y="393" on="0"/>
        <pt x="1044" y="522" on="1"/>
        <pt x="1044" y="589" on="0"/>
      </contour>
      <contour>
        <pt x="361" y="36" on="1"/>
        <pt x="284" y="60" on="0"/>
        <pt x="215" y="60" on="1"/>
        <pt x="178" y="60" on="0"/>
        <pt x="139" y="54" on="1"/>
        <pt x="81" y="45" on="0"/>
        <pt x="62" y="12" on="1"/>
        <pt x="52" y="-4" on="0"/>
        <pt x="52" y="-19" on="1"/>
        <pt x="52" y="-43" on="0"/>
        <pt x="77" y="-54" on="1"/>
        <pt x="98" y="-63" on="0"/>
        <pt x="129" y="-63" on="1"/>
        <pt x="210" y="-63" on="0"/>
        <pt x="285" y="-17" on="1"/>
        <pt x="330" y="11" on="0"/>
      </contour>
    </TTGlyph>
    <TTGlyph name="Delta" xMin="45" yMin="-3" xMax="876" yMax="948">
      <contour>
        <pt x="876" y="-3" on="1"/>
        <pt x="45" y="-3" on="1"/>
        <pt x="485" y="948" on="1"/>
      </contour>
      <contour>
        <pt x="704" y="65" on="1"/>
        <pt x="435" y="713" on="1"/>
        <pt x="135" y="65" on="1"/>
      </contour>
    </TTGlyph>
    <TTGlyph name="E" xMin="52" yMin="-71" xMax="922" yMax="942">
      <contour>
        <pt x="919" y="933" on="1"/>
        <pt x="922" y="923" on="0"/>
        <pt x="912" y="921" on="1"/>
        <pt x="825" y="912" on="0"/>
        <pt x="749" y="833" on="1"/>
        <pt x="810" y="813" on="0"/>
        <pt x="815" y="755" on="1"/>
        <pt x="815" y="733" on="0"/>
        <pt x="798" y="718" on="1"/>
        <pt x="761" y="694" on="0"/>
        <pt x="738" y="694" on="1"/>
        <pt x="724" y="694" on="0"/>
        <pt x="709" y="699" on="1"/>
        <pt x="663" y="715" on="0"/>
        <pt x="678" y="770" on="1"/>
        <pt x="683" y="782" on="0"/>
        <pt x="694" y="804" on="1"/>
        <pt x="647" y="806" on="0"/>
        <pt x="619" y="792" on="1"/>
        <pt x="392" y="679" on="0"/>
        <pt x="392" y="544" on="1"/>
        <pt x="392" y="517" on="0"/>
        <pt x="402" y="490" on="1"/>
        <pt x="479" y="531" on="0"/>
        <pt x="547" y="537" on="1"/>
        <pt x="610" y="543" on="0"/>
        <pt x="634" y="503" on="1"/>
        <pt x="643" y="491" on="0"/>
        <pt x="640" y="471" on="1"/>
        <pt x="636" y="455" on="0"/>
        <pt x="625" y="444" on="1"/>
        <pt x="577" y="394" on="0"/>
        <pt x="503" y="394" on="1"/>
        <pt x="432" y="394" on="0"/>
        <pt x="390" y="442" on="1"/>
        <pt x="246" y="361" on="0"/>
        <pt x="150" y="239" on="1"/>
        <pt x="102" y="177" on="0"/>
        <pt x="102" y="103" on="1"/>
        <pt x="102" y="45" on="0"/>
        <pt x="136" y="-1" on="1"/>
        <pt x="164" y="-30" on="0"/>
        <pt x="238" y="-30" on="1"/>
        <pt x="257" y="-30" on="0"/>
        <pt x="270" y="-27" on="1"/>
        <pt x="390" y="4" on="0"/>
        <pt x="492" y="76" on="1"/>
        <pt x="528" y="101" on="0"/>
        <pt x="670" y="224" on="1"/>
        <pt x="675" y="231" on="0"/>
        <pt x="686" y="225" on="1"/>
        <pt x="690" y="215" on="0"/>
        <pt x="685" y="209" on="1"/>
        <pt x="424" y="-71" on="0"/>
        <pt x="206" y="-71" on="1"/>
        <pt x="174" y="-71" on="0"/>
        <pt x="102" y="-44" on="0"/>
        <pt x="92" y="-31" on="1"/>
        <pt x="52" y="24" on="0"/>
        <pt x="52" y="89" on="1"/>
        <pt x="52" y="240" on="0"/>
        <pt x="223" y="369" on="1"/>
        <pt x="318" y="441" on="0"/>
        <pt x="371" y="472" on="1"/>
        <pt x="357" y="501" on="0"/>
        <pt x="357" y="536" on="1"/>
        <pt x="357" y="609" on="0"/>
        <pt x="407" y="673" on="1"/>
        <pt x="480" y="767" on="0"/>
        <pt x="608" y="822" on="1"/>
        <pt x="662" y="845" on="0"/>
        <pt x="720" y="839" on="1"/>
        <pt x="789" y="912" on="0"/>
        <pt x="899" y="938" on="1"/>
        <pt x="917" y="942" on="0"/>
      </contour>
      <contour>
        <pt x="780" y="769" on="1"/>
        <pt x="765" y="795" on="0"/>
        <pt x="722" y="801" on="1"/>
        <pt x="721" y="800" on="1"/>
        <pt x="707" y="781" on="0"/>
        <pt x="707" y="758" on="1"/>
        <pt x="707" y="731" on="0"/>
        <pt x="735" y="725" on="1"/>
        <pt x="757" y="721" on="0"/>
        <pt x="778" y="742" on="1"/>
        <pt x="788" y="755" on="0"/>
      </contour>
      <contour>
        <pt x="589" y="476" on="1"/>
        <pt x="586" y="490" on="0"/>
        <pt x="577" y="492" on="1"/>
        <pt x="526" y="506" on="0"/>
        <pt x="477" y="485" on="1"/>
        <pt x="459" y="478" on="0"/>
        <pt x="420" y="458" on="1"/>
        <pt x="454" y="426" on="0"/>
        <pt x="501" y="426" on="1"/>
        <pt x="545" y="426" on="0"/>
        <pt x="581" y="455" on="1"/>
        <pt x="590" y="463" on="0"/>
      </contour>
    </TTGlyph>
    <TTGlyph name="Eacute" xMin="52" yMin="-71" xMax="922" yMax="1064">
      <contour>
        <pt x="881" y="1024" on="1"/>
        <pt x="802" y="957" on="0"/>
        <pt x="698" y="891" on="1"/>
        <pt x="689" y="885" on="0"/>
        <pt x="686" y="892" on="1"/>
        <pt x="682" y="899" on="0"/>
        <pt x="690" y="906" on="1"/>
        <pt x="740" y="956" on="0"/>
        <pt x="845" y="1061" on="1"/>
        <pt x="849" y="1064" on="0"/>
        <pt x="855" y="1064" on="1"/>
        <pt x="866" y="1064" on="0"/>
        <pt x="886" y="1045" on="0"/>
        <pt x="886" y="1034" on="1"/>
        <pt x="886" y="1028" on="0"/>
      </contour>
      <contour>
        <pt x="919" y="933" on="1"/>
        <pt x="922" y="923" on="0"/>
        <pt x="912" y="921" on="1"/>
        <pt x="825" y="912" on="0"/>
        <pt x="749" y="833" on="1"/>
        <pt x="810" y="813" on="0"/>
        <pt x="815" y="755" on="1"/>
        <pt x="815" y="733" on="0"/>
        <pt x="798" y="718" on="1"/>
        <pt x="761" y="694" on="0"/>
        <pt x="738" y="694" on="1"/>
        <pt x="724" y="694" on="0"/>
        <pt x="709" y="699" on="1"/>
        <pt x="663" y="715" on="0"/>
        <pt x="678" y="770" on="1"/>
        <pt x="683" y="782" on="0"/>
        <pt x="694" y="804" on="1"/>
        <pt x="647" y="806" on="0"/>
        <pt x="619" y="792" on="1"/>
        <pt x="392" y="679" on="0"/>
        <pt x="392" y="544" on="1"/>
        <pt x="392" y="517" on="0"/>
        <pt x="402" y="490" on="1"/>
        <pt x="479" y="531" on="0"/>
        <pt x="547" y="537" on="1"/>
        <pt x="610" y="543" on="0"/>
        <pt x="634" y="503" on="1"/>
        <pt x="643" y="491" on="0"/>
        <pt x="640" y="471" on="1"/>
        <pt x="636" y="455" on="0"/>
        <pt x="625" y="444" on="1"/>
        <pt x="577" y="394" on="0"/>
        <pt x="503" y="394" on="1"/>
        <pt x="432" y="394" on="0"/>
        <pt x="390" y="442" on="1"/>
        <pt x="246" y="361" on="0"/>
        <pt x="150" y="239" on="1"/>
        <pt x="102" y="177" on="0"/>
        <pt x="102" y="103" on="1"/>
        <pt x="102" y="45" on="0"/>
        <pt x="136" y="-1" on="1"/>
        <pt x="164" y="-30" on="0"/>
        <pt x="238" y="-30" on="1"/>
        <pt x="257" y="-30" on="0"/>
        <pt x="270" y="-27" on="1"/>
        <pt x="390" y="4" on="0"/>
        <pt x="492" y="76" on="1"/>
        <pt x="528" y="101" on="0"/>
        <pt x="670" y="224" on="1"/>
        <pt x="675" y="231" on="0"/>
        <pt x="686" y="225" on="1"/>
        <pt x="690" y="215" on="0"/>
        <pt x="685" y="209" on="1"/>
        <pt x="424" y="-71" on="0"/>
        <pt x="206" y="-71" on="1"/>
        <pt x="174" y="-71" on="0"/>
        <pt x="102" y="-44" on="0"/>
        <pt x="92" y="-31" on="1"/>
        <pt x="52" y="24" on="0"/>
        <pt x="52" y="89" on="1"/>
        <pt x="52" y="240" on="0"/>
        <pt x="223" y="369" on="1"/>
        <pt x="318" y="441" on="0"/>
        <pt x="371" y="472" on="1"/>
        <pt x="357" y="501" on="0"/>
        <pt x="357" y="536" on="1"/>
        <pt x="357" y="609" on="0"/>
        <pt x="407" y="673" on="1"/>
        <pt x="480" y="767" on="0"/>
        <pt x="608" y="822" on="1"/>
        <pt x="662" y="845" on="0"/>
        <pt x="720" y="839" on="1"/>
        <pt x="789" y="912" on="0"/>
        <pt x="899" y="938" on="1"/>
        <pt x="917" y="942" on="0"/>
      </contour>
      <contour>
        <pt x="780" y="769" on="1"/>
        <pt x="765" y="795" on="0"/>
        <pt x="722" y="801" on="1"/>
        <pt x="721" y="800" on="1"/>
        <pt x="707" y="781" on="0"/>
        <pt x="707" y="758" on="1"/>
        <pt x="707" y="731" on="0"/>
        <pt x="735" y="725" on="1"/>
        <pt x="757" y="721" on="0"/>
        <pt x="778" y="742" on="1"/>
        <pt x="788" y="755" on="0"/>
      </contour>
      <contour>
        <pt x="589" y="476" on="1"/>
        <pt x="586" y="490" on="0"/>
        <pt x="577" y="492" on="1"/>
        <pt x="526" y="506" on="0"/>
        <pt x="477" y="485" on="1"/>
        <pt x="459" y="478" on="0"/>
        <pt x="420" y="458" on="1"/>
        <pt x="454" y="426" on="0"/>
        <pt x="501" y="426" on="1"/>
        <pt x="545" y="426" on="0"/>
        <pt x="581" y="455" on="1"/>
        <pt x="590" y="463" on="0"/>
      </contour>
    </TTGlyph>
    <TTGlyph name="Ecircumflex" xMin="52" yMin="-71" xMax="922" yMax="994">
      <contour>
        <pt x="919" y="933" on="1"/>
        <pt x="922" y="923" on="0"/>
        <pt x="912" y="921" on="1"/>
        <pt x="884" y="918" on="0"/>
        <pt x="851" y="905" on="1"/>
        <pt x="856" y="898" on="0"/>
        <pt x="856" y="889" on="1"/>
        <pt x="856" y="869" on="0"/>
        <pt x="841" y="869" on="1"/>
        <pt x="831" y="869" on="0"/>
        <pt x="816" y="887" on="1"/>
        <pt x="779" y="865" on="0"/>
        <pt x="749" y="833" on="1"/>
        <pt x="810" y="813" on="0"/>
        <pt x="815" y="755" on="1"/>
        <pt x="815" y="733" on="0"/>
        <pt x="798" y="718" on="1"/>
        <pt x="761" y="694" on="0"/>
        <pt x="738" y="694" on="1"/>
        <pt x="724" y="694" on="0"/>
        <pt x="709" y="699" on="1"/>
        <pt x="663" y="715" on="0"/>
        <pt x="678" y="770" on="1"/>
        <pt x="683" y="782" on="0"/>
        <pt x="694" y="804" on="1"/>
        <pt x="647" y="806" on="0"/>
        <pt x="619" y="792" on="1"/>
        <pt x="392" y="679" on="0"/>
        <pt x="392" y="544" on="1"/>
        <pt x="392" y="517" on="0"/>
        <pt x="402" y="490" on="1"/>
        <pt x="479" y="531" on="0"/>
        <pt x="547" y="537" on="1"/>
        <pt x="610" y="543" on="0"/>
        <pt x="634" y="503" on="1"/>
        <pt x="643" y="491" on="0"/>
        <pt x="640" y="471" on="1"/>
        <pt x="636" y="455" on="0"/>
        <pt x="625" y="444" on="1"/>
        <pt x="577" y="394" on="0"/>
        <pt x="503" y="394" on="1"/>
        <pt x="432" y="394" on="0"/>
        <pt x="390" y="442" on="1"/>
        <pt x="246" y="361" on="0"/>
        <pt x="150" y="239" on="1"/>
        <pt x="102" y="177" on="0"/>
        <pt x="102" y="103" on="1"/>
        <pt x="102" y="45" on="0"/>
        <pt x="136" y="-1" on="1"/>
        <pt x="164" y="-30" on="0"/>
        <pt x="238" y="-30" on="1"/>
        <pt x="257" y="-30" on="0"/>
        <pt x="270" y="-27" on="1"/>
        <pt x="390" y="4" on="0"/>
        <pt x="492" y="76" on="1"/>
        <pt x="528" y="101" on="0"/>
        <pt x="670" y="224" on="1"/>
        <pt x="675" y="231" on="0"/>
        <pt x="686" y="225" on="1"/>
        <pt x="690" y="215" on="0"/>
        <pt x="685" y="209" on="1"/>
        <pt x="424" y="-71" on="0"/>
        <pt x="206" y="-71" on="1"/>
        <pt x="174" y="-71" on="0"/>
        <pt x="102" y="-44" on="0"/>
        <pt x="92" y="-31" on="1"/>
        <pt x="52" y="24" on="0"/>
        <pt x="52" y="89" on="1"/>
        <pt x="52" y="240" on="0"/>
        <pt x="223" y="369" on="1"/>
        <pt x="318" y="441" on="0"/>
        <pt x="371" y="472" on="1"/>
        <pt x="357" y="501" on="0"/>
        <pt x="357" y="536" on="1"/>
        <pt x="357" y="609" on="0"/>
        <pt x="407" y="673" on="1"/>
        <pt x="480" y="767" on="0"/>
        <pt x="608" y="822" on="1"/>
        <pt x="662" y="845" on="0"/>
        <pt x="720" y="839" on="1"/>
        <pt x="754" y="875" on="0"/>
        <pt x="803" y="901" on="1"/>
        <pt x="770" y="938" on="0"/>
        <pt x="760" y="938" on="1"/>
        <pt x="734" y="938" on="0"/>
        <pt x="595" y="873" on="1"/>
        <pt x="580" y="868" on="0"/>
        <pt x="580" y="885" on="1"/>
        <pt x="580" y="894" on="0"/>
        <pt x="589" y="899" on="1"/>
        <pt x="611" y="910" on="0"/>
        <pt x="691" y="961" on="1"/>
        <pt x="744" y="994" on="0"/>
        <pt x="768" y="994" on="1"/>
        <pt x="780" y="994" on="0"/>
        <pt x="840" y="919" on="1"/>
        <pt x="868" y="931" on="0"/>
        <pt x="899" y="938" on="1"/>
        <pt x="917" y="942" on="0"/>
      </contour>
      <contour>
        <pt x="780" y="769" on="1"/>
        <pt x="765" y="795" on="0"/>
        <pt x="722" y="801" on="1"/>
        <pt x="721" y="800" on="1"/>
        <pt x="707" y="781" on="0"/>
        <pt x="707" y="758" on="1"/>
        <pt x="707" y="731" on="0"/>
        <pt x="735" y="725" on="1"/>
        <pt x="757" y="721" on="0"/>
        <pt x="778" y="742" on="1"/>
        <pt x="788" y="755" on="0"/>
      </contour>
      <contour>
        <pt x="589" y="476" on="1"/>
        <pt x="586" y="490" on="0"/>
        <pt x="577" y="492" on="1"/>
        <pt x="526" y="506" on="0"/>
        <pt x="477" y="485" on="1"/>
        <pt x="459" y="478" on="0"/>
        <pt x="420" y="458" on="1"/>
        <pt x="454" y="426" on="0"/>
        <pt x="501" y="426" on="1"/>
        <pt x="545" y="426" on="0"/>
        <pt x="581" y="455" on="1"/>
        <pt x="590" y="463" on="0"/>
      </contour>
    </TTGlyph>
    <TTGlyph name="Edieresis" xMin="52" yMin="-71" xMax="922" yMax="992">
      <contour>
        <pt x="795" y="958" on="1"/>
        <pt x="795" y="945" on="0"/>
        <pt x="758" y="900" on="0"/>
        <pt x="748" y="900" on="1"/>
        <pt x="730" y="900" on="0"/>
        <pt x="727" y="914" on="1"/>
        <pt x="723" y="934" on="0"/>
        <pt x="755" y="982" on="0"/>
        <pt x="779" y="988" on="1"/>
        <pt x="795" y="992" on="0"/>
      </contour>
      <contour>
        <pt x="663" y="958" on="1"/>
        <pt x="663" y="945" on="0"/>
        <pt x="627" y="900" on="0"/>
        <pt x="617" y="900" on="1"/>
        <pt x="597" y="900" on="0"/>
        <pt x="596" y="914" on="1"/>
        <pt x="592" y="934" on="0"/>
        <pt x="623" y="982" on="0"/>
        <pt x="648" y="988" on="1"/>
        <pt x="663" y="992" on="0"/>
      </contour>
      <contour>
        <pt x="919" y="933" on="1"/>
        <pt x="922" y="923" on="0"/>
        <pt x="912" y="921" on="1"/>
        <pt x="825" y="912" on="0"/>
        <pt x="749" y="833" on="1"/>
        <pt x="810" y="813" on="0"/>
        <pt x="815" y="755" on="1"/>
        <pt x="815" y="733" on="0"/>
        <pt x="798" y="718" on="1"/>
        <pt x="761" y="694" on="0"/>
        <pt x="738" y="694" on="1"/>
        <pt x="724" y="694" on="0"/>
        <pt x="709" y="699" on="1"/>
        <pt x="663" y="715" on="0"/>
        <pt x="678" y="770" on="1"/>
        <pt x="683" y="782" on="0"/>
        <pt x="694" y="804" on="1"/>
        <pt x="647" y="806" on="0"/>
        <pt x="619" y="792" on="1"/>
        <pt x="392" y="679" on="0"/>
        <pt x="392" y="544" on="1"/>
        <pt x="392" y="517" on="0"/>
        <pt x="402" y="490" on="1"/>
        <pt x="479" y="531" on="0"/>
        <pt x="547" y="537" on="1"/>
        <pt x="610" y="543" on="0"/>
        <pt x="634" y="503" on="1"/>
        <pt x="643" y="491" on="0"/>
        <pt x="640" y="471" on="1"/>
        <pt x="636" y="455" on="0"/>
        <pt x="625" y="444" on="1"/>
        <pt x="577" y="394" on="0"/>
        <pt x="503" y="394" on="1"/>
        <pt x="432" y="394" on="0"/>
        <pt x="390" y="442" on="1"/>
        <pt x="246" y="361" on="0"/>
        <pt x="150" y="239" on="1"/>
        <pt x="102" y="177" on="0"/>
        <pt x="102" y="103" on="1"/>
        <pt x="102" y="45" on="0"/>
        <pt x="136" y="-1" on="1"/>
        <pt x="164" y="-30" on="0"/>
        <pt x="238" y="-30" on="1"/>
        <pt x="257" y="-30" on="0"/>
        <pt x="270" y="-27" on="1"/>
        <pt x="390" y="4" on="0"/>
        <pt x="492" y="76" on="1"/>
        <pt x="528" y="101" on="0"/>
        <pt x="670" y="224" on="1"/>
        <pt x="675" y="231" on="0"/>
        <pt x="686" y="225" on="1"/>
        <pt x="690" y="215" on="0"/>
        <pt x="685" y="209" on="1"/>
        <pt x="424" y="-71" on="0"/>
        <pt x="206" y="-71" on="1"/>
        <pt x="174" y="-71" on="0"/>
        <pt x="102" y="-44" on="0"/>
        <pt x="92" y="-31" on="1"/>
        <pt x="52" y="24" on="0"/>
        <pt x="52" y="89" on="1"/>
        <pt x="52" y="240" on="0"/>
        <pt x="223" y="369" on="1"/>
        <pt x="318" y="441" on="0"/>
        <pt x="371" y="472" on="1"/>
        <pt x="357" y="501" on="0"/>
        <pt x="357" y="536" on="1"/>
        <pt x="357" y="609" on="0"/>
        <pt x="407" y="673" on="1"/>
        <pt x="480" y="767" on="0"/>
        <pt x="608" y="822" on="1"/>
        <pt x="662" y="845" on="0"/>
        <pt x="720" y="839" on="1"/>
        <pt x="789" y="912" on="0"/>
        <pt x="899" y="938" on="1"/>
        <pt x="917" y="942" on="0"/>
      </contour>
      <contour>
        <pt x="780" y="769" on="1"/>
        <pt x="765" y="795" on="0"/>
        <pt x="722" y="801" on="1"/>
        <pt x="721" y="800" on="1"/>
        <pt x="707" y="781" on="0"/>
        <pt x="707" y="758" on="1"/>
        <pt x="707" y="731" on="0"/>
        <pt x="735" y="725" on="1"/>
        <pt x="757" y="721" on="0"/>
        <pt x="778" y="742" on="1"/>
        <pt x="788" y="755" on="0"/>
      </contour>
      <contour>
        <pt x="589" y="476" on="1"/>
        <pt x="586" y="490" on="0"/>
        <pt x="577" y="492" on="1"/>
        <pt x="526" y="506" on="0"/>
        <pt x="477" y="485" on="1"/>
        <pt x="459" y="478" on="0"/>
        <pt x="420" y="458" on="1"/>
        <pt x="454" y="426" on="0"/>
        <pt x="501" y="426" on="1"/>
        <pt x="545" y="426" on="0"/>
        <pt x="581" y="455" on="1"/>
        <pt x="590" y="463" on="0"/>
      </contour>
    </TTGlyph>
    <TTGlyph name="Egrave" xMin="52" yMin="-71" xMax="922" yMax="1097">
      <contour>
        <pt x="713" y="899" on="1"/>
        <pt x="719" y="890" on="0"/>
        <pt x="714" y="885" on="1"/>
        <pt x="709" y="879" on="0"/>
        <pt x="701" y="886" on="1"/>
        <pt x="610" y="992" on="0"/>
        <pt x="562" y="1065" on="1"/>
        <pt x="560" y="1068" on="0"/>
        <pt x="560" y="1072" on="1"/>
        <pt x="560" y="1097" on="0"/>
        <pt x="592" y="1097" on="1"/>
        <pt x="602" y="1097" on="0"/>
        <pt x="606" y="1090" on="1"/>
        <pt x="642" y="1020" on="0"/>
      </contour>
      <contour>
        <pt x="919" y="933" on="1"/>
        <pt x="922" y="923" on="0"/>
        <pt x="912" y="921" on="1"/>
        <pt x="825" y="912" on="0"/>
        <pt x="749" y="833" on="1"/>
        <pt x="810" y="813" on="0"/>
        <pt x="815" y="755" on="1"/>
        <pt x="815" y="733" on="0"/>
        <pt x="798" y="718" on="1"/>
        <pt x="761" y="694" on="0"/>
        <pt x="738" y="694" on="1"/>
        <pt x="724" y="694" on="0"/>
        <pt x="709" y="699" on="1"/>
        <pt x="663" y="715" on="0"/>
        <pt x="678" y="770" on="1"/>
        <pt x="683" y="782" on="0"/>
        <pt x="694" y="804" on="1"/>
        <pt x="647" y="806" on="0"/>
        <pt x="619" y="792" on="1"/>
        <pt x="392" y="679" on="0"/>
        <pt x="392" y="544" on="1"/>
        <pt x="392" y="517" on="0"/>
        <pt x="402" y="490" on="1"/>
        <pt x="479" y="531" on="0"/>
        <pt x="547" y="537" on="1"/>
        <pt x="610" y="543" on="0"/>
        <pt x="634" y="503" on="1"/>
        <pt x="643" y="491" on="0"/>
        <pt x="640" y="471" on="1"/>
        <pt x="636" y="455" on="0"/>
        <pt x="625" y="444" on="1"/>
        <pt x="577" y="394" on="0"/>
        <pt x="503" y="394" on="1"/>
        <pt x="432" y="394" on="0"/>
        <pt x="390" y="442" on="1"/>
        <pt x="246" y="361" on="0"/>
        <pt x="150" y="239" on="1"/>
        <pt x="102" y="177" on="0"/>
        <pt x="102" y="103" on="1"/>
        <pt x="102" y="45" on="0"/>
        <pt x="136" y="-1" on="1"/>
        <pt x="164" y="-30" on="0"/>
        <pt x="238" y="-30" on="1"/>
        <pt x="257" y="-30" on="0"/>
        <pt x="270" y="-27" on="1"/>
        <pt x="390" y="4" on="0"/>
        <pt x="492" y="76" on="1"/>
        <pt x="528" y="101" on="0"/>
        <pt x="670" y="224" on="1"/>
        <pt x="675" y="231" on="0"/>
        <pt x="686" y="225" on="1"/>
        <pt x="690" y="215" on="0"/>
        <pt x="685" y="209" on="1"/>
        <pt x="424" y="-71" on="0"/>
        <pt x="206" y="-71" on="1"/>
        <pt x="174" y="-71" on="0"/>
        <pt x="102" y="-44" on="0"/>
        <pt x="92" y="-31" on="1"/>
        <pt x="52" y="24" on="0"/>
        <pt x="52" y="89" on="1"/>
        <pt x="52" y="240" on="0"/>
        <pt x="223" y="369" on="1"/>
        <pt x="318" y="441" on="0"/>
        <pt x="371" y="472" on="1"/>
        <pt x="357" y="501" on="0"/>
        <pt x="357" y="536" on="1"/>
        <pt x="357" y="609" on="0"/>
        <pt x="407" y="673" on="1"/>
        <pt x="480" y="767" on="0"/>
        <pt x="608" y="822" on="1"/>
        <pt x="662" y="845" on="0"/>
        <pt x="720" y="839" on="1"/>
        <pt x="789" y="912" on="0"/>
        <pt x="899" y="938" on="1"/>
        <pt x="917" y="942" on="0"/>
      </contour>
      <contour>
        <pt x="780" y="769" on="1"/>
        <pt x="765" y="795" on="0"/>
        <pt x="722" y="801" on="1"/>
        <pt x="721" y="800" on="1"/>
        <pt x="707" y="781" on="0"/>
        <pt x="707" y="758" on="1"/>
        <pt x="707" y="731" on="0"/>
        <pt x="735" y="725" on="1"/>
        <pt x="757" y="721" on="0"/>
        <pt x="778" y="742" on="1"/>
        <pt x="788" y="755" on="0"/>
      </contour>
      <contour>
        <pt x="589" y="476" on="1"/>
        <pt x="586" y="490" on="0"/>
        <pt x="577" y="492" on="1"/>
        <pt x="526" y="506" on="0"/>
        <pt x="477" y="485" on="1"/>
        <pt x="459" y="478" on="0"/>
        <pt x="420" y="458" on="1"/>
        <pt x="454" y="426" on="0"/>
        <pt x="501" y="426" on="1"/>
        <pt x="545" y="426" on="0"/>
        <pt x="581" y="455" on="1"/>
        <pt x="590" y="463" on="0"/>
      </contour>
    </TTGlyph>
    <TTGlyph name="Eth" xMin="6" yMin="-115" xMax="1081" yMax="828">
      <contour>
        <pt x="1058" y="642" on="1"/>
        <pt x="1081" y="590" on="0"/>
        <pt x="1081" y="523" on="1"/>
        <pt x="1081" y="349" on="0"/>
        <pt x="964" y="181" on="1"/>
        <pt x="906" y="97" on="0"/>
        <pt x="814" y="37" on="1"/>
        <pt x="707" y="-33" on="0"/>
        <pt x="603" y="-33" on="1"/>
        <pt x="568" y="-33" on="0"/>
        <pt x="535" y="-25" on="1"/>
        <pt x="534" y="-25" on="0"/>
        <pt x="403" y="22" on="1"/>
        <pt x="289" y="-78" on="0"/>
        <pt x="151" y="-101" on="1"/>
        <pt x="65" y="-115" on="0"/>
        <pt x="32" y="-89" on="1"/>
        <pt x="6" y="-68" on="0"/>
        <pt x="6" y="-33" on="1"/>
        <pt x="6" y="1" on="0"/>
        <pt x="31" y="27" on="1"/>
        <pt x="87" y="87" on="0"/>
        <pt x="195" y="87" on="1"/>
        <pt x="242" y="87" on="0"/>
        <pt x="306" y="75" on="1"/>
        <pt x="342" y="68" on="0"/>
        <pt x="384" y="55" on="1"/>
        <pt x="497" y="153" on="0"/>
        <pt x="591" y="334" on="1"/>
        <pt x="579" y="334" on="0"/>
        <pt x="554" y="333" on="1"/>
        <pt x="530" y="333" on="0"/>
        <pt x="498" y="333" on="0"/>
        <pt x="476" y="333" on="1"/>
        <pt x="454" y="334" on="0"/>
        <pt x="442" y="334" on="1"/>
        <pt x="422" y="334" on="0"/>
        <pt x="422" y="351" on="1"/>
        <pt x="422" y="367" on="0"/>
        <pt x="462" y="371" on="0"/>
        <pt x="514" y="372" on="1"/>
        <pt x="542" y="373" on="0"/>
        <pt x="609" y="375" on="1"/>
        <pt x="610" y="375" on="0"/>
        <pt x="612" y="375" on="1"/>
        <pt x="662" y="468" on="0"/>
        <pt x="710" y="571" on="1"/>
        <pt x="657" y="554" on="0"/>
        <pt x="609" y="554" on="1"/>
        <pt x="569" y="554" on="0"/>
        <pt x="535" y="566" on="1"/>
        <pt x="468" y="589" on="0"/>
        <pt x="469" y="634" on="1"/>
        <pt x="471" y="714" on="0"/>
        <pt x="575" y="771" on="1"/>
        <pt x="666" y="820" on="0"/>
        <pt x="769" y="824" on="1"/>
        <pt x="873" y="828" on="0"/>
        <pt x="953" y="772" on="1"/>
        <pt x="1023" y="723" on="0"/>
      </contour>
      <contour>
        <pt x="1021" y="632" on="1"/>
        <pt x="929" y="803" on="0"/>
        <pt x="757" y="789" on="1"/>
        <pt x="682" y="783" on="0"/>
        <pt x="606" y="748" on="1"/>
        <pt x="509" y="703" on="0"/>
        <pt x="509" y="641" on="1"/>
        <pt x="509" y="605" on="0"/>
        <pt x="558" y="592" on="1"/>
        <pt x="583" y="585" on="0"/>
        <pt x="615" y="585" on="1"/>
        <pt x="674" y="585" on="0"/>
        <pt x="725" y="606" on="1"/>
        <pt x="752" y="665" on="0"/>
        <pt x="772" y="714" on="1"/>
        <pt x="775" y="722" on="0"/>
        <pt x="785" y="721" on="1"/>
        <pt x="795" y="720" on="0"/>
        <pt x="795" y="710" on="1"/>
        <pt x="795" y="707" on="0"/>
        <pt x="793" y="703" on="1"/>
        <pt x="781" y="675" on="0"/>
        <pt x="758" y="622" on="1"/>
        <pt x="791" y="642" on="0"/>
        <pt x="805" y="669" on="1"/>
        <pt x="809" y="680" on="0"/>
        <pt x="823" y="680" on="1"/>
        <pt x="835" y="679" on="0"/>
        <pt x="832" y="665" on="1"/>
        <pt x="830" y="632" on="0"/>
        <pt x="791" y="609" on="1"/>
        <pt x="766" y="594" on="0"/>
        <pt x="741" y="583" on="1"/>
        <pt x="711" y="512" on="0"/>
        <pt x="648" y="376" on="1"/>
        <pt x="720" y="376" on="1"/>
        <pt x="749" y="377" on="0"/>
        <pt x="749" y="357" on="1"/>
        <pt x="749" y="339" on="0"/>
        <pt x="729" y="335" on="1"/>
        <pt x="695" y="335" on="0"/>
        <pt x="627" y="334" on="1"/>
        <pt x="565" y="217" on="0"/>
        <pt x="479" y="104" on="1"/>
        <pt x="452" y="68" on="0"/>
        <pt x="423" y="41" on="1"/>
        <pt x="489" y="18" on="0"/>
        <pt x="509" y="13" on="1"/>
        <pt x="558" y="-1" on="0"/>
        <pt x="602" y="-1" on="1"/>
        <pt x="671" y="-2" on="0"/>
        <pt x="735" y="32" on="1"/>
        <pt x="880" y="109" on="0"/>
        <pt x="967" y="259" on="1"/>
        <pt x="1044" y="393" on="0"/>
        <pt x="1044" y="522" on="1"/>
        <pt x="1044" y="589" on="0"/>
      </contour>
      <contour>
        <pt x="361" y="36" on="1"/>
        <pt x="284" y="60" on="0"/>
        <pt x="215" y="60" on="1"/>
        <pt x="178" y="60" on="0"/>
        <pt x="139" y="54" on="1"/>
        <pt x="81" y="45" on="0"/>
        <pt x="62" y="12" on="1"/>
        <pt x="52" y="-4" on="0"/>
        <pt x="52" y="-19" on="1"/>
        <pt x="52" y="-43" on="0"/>
        <pt x="77" y="-54" on="1"/>
        <pt x="98" y="-63" on="0"/>
        <pt x="129" y="-63" on="1"/>
        <pt x="210" y="-63" on="0"/>
        <pt x="285" y="-17" on="1"/>
        <pt x="330" y="11" on="0"/>
      </contour>
    </TTGlyph>
    <TTGlyph name="F" xMin="1" yMin="-86" xMax="860" yMax="870">
      <contour>
        <pt x="859" y="841" on="1"/>
        <pt x="858" y="819" on="0"/>
        <pt x="833" y="807" on="1"/>
        <pt x="772" y="777" on="0"/>
        <pt x="677" y="759" on="1"/>
        <pt x="666" y="757" on="0"/>
        <pt x="664" y="757" on="1"/>
        <pt x="606" y="690" on="0"/>
        <pt x="548" y="582" on="1"/>
        <pt x="453" y="404" on="0"/>
        <pt x="453" y="404" on="1"/>
        <pt x="502" y="424" on="0"/>
        <pt x="659" y="463" on="1"/>
        <pt x="667" y="465" on="1"/>
        <pt x="676" y="467" on="0"/>
        <pt x="682" y="465" on="1"/>
        <pt x="688" y="463" on="0"/>
        <pt x="687" y="457" on="1"/>
        <pt x="688" y="452" on="0"/>
        <pt x="685" y="446" on="1"/>
        <pt x="674" y="429" on="1"/>
        <pt x="662" y="411" on="0"/>
        <pt x="650" y="392" on="1"/>
        <pt x="632" y="361" on="0"/>
        <pt x="629" y="334" on="1"/>
        <pt x="629" y="313" on="0"/>
        <pt x="629" y="313" on="1"/>
        <pt x="628" y="308" on="0"/>
        <pt x="619" y="299" on="1"/>
        <pt x="603" y="295" on="0"/>
        <pt x="598" y="315" on="0"/>
        <pt x="598" y="327" on="1"/>
        <pt x="598" y="369" on="0"/>
        <pt x="625" y="426" on="1"/>
        <pt x="536" y="408" on="0"/>
        <pt x="423" y="358" on="1"/>
        <pt x="415" y="348" on="0"/>
        <pt x="400" y="329" on="1"/>
        <pt x="319" y="221" on="0"/>
        <pt x="238" y="112" on="1"/>
        <pt x="136" y="-15" on="0"/>
        <pt x="40" y="-80" on="1"/>
        <pt x="32" y="-86" on="0"/>
        <pt x="26" y="-86" on="1"/>
        <pt x="10" y="-86" on="0"/>
        <pt x="5" y="-78" on="1"/>
        <pt x="1" y="-70" on="0"/>
        <pt x="5" y="-62" on="1"/>
        <pt x="88" y="198" on="0"/>
        <pt x="280" y="318" on="1"/>
        <pt x="334" y="352" on="0"/>
        <pt x="404" y="385" on="1"/>
        <pt x="421" y="409" on="0"/>
        <pt x="450" y="457" on="1"/>
        <pt x="452" y="461" on="0"/>
        <pt x="532" y="606" on="1"/>
        <pt x="583" y="699" on="0"/>
        <pt x="628" y="752" on="1"/>
        <pt x="581" y="747" on="0"/>
        <pt x="499" y="746" on="1"/>
        <pt x="411" y="746" on="0"/>
        <pt x="370" y="742" on="1"/>
        <pt x="228" y="730" on="0"/>
        <pt x="132" y="653" on="1"/>
        <pt x="121" y="649" on="0"/>
        <pt x="120" y="649" on="1"/>
        <pt x="116" y="653" on="0"/>
        <pt x="118" y="658" on="1"/>
        <pt x="178" y="731" on="0"/>
        <pt x="318" y="768" on="1"/>
        <pt x="374" y="783" on="0"/>
        <pt x="453" y="785" on="1"/>
        <pt x="520" y="787" on="0"/>
        <pt x="586" y="789" on="1"/>
        <pt x="640" y="793" on="0"/>
        <pt x="672" y="798" on="1"/>
        <pt x="714" y="836" on="0"/>
        <pt x="767" y="860" on="1"/>
        <pt x="788" y="870" on="0"/>
        <pt x="815" y="870" on="1"/>
        <pt x="860" y="870" on="0"/>
      </contour>
      <contour>
        <pt x="809" y="838" on="1"/>
        <pt x="792" y="843" on="0"/>
        <pt x="772" y="833" on="1"/>
        <pt x="753" y="827" on="0"/>
        <pt x="712" y="804" on="1"/>
        <pt x="814" y="823" on="0"/>
      </contour>
      <contour>
        <pt x="369" y="334" on="1"/>
        <pt x="330" y="313" on="0"/>
        <pt x="296" y="292" on="1"/>
        <pt x="148" y="201" on="0"/>
        <pt x="71" y="-6" on="1"/>
        <pt x="106" y="18" on="0"/>
        <pt x="129" y="44" on="1"/>
        <pt x="217" y="142" on="0"/>
        <pt x="256" y="188" on="1"/>
        <pt x="319" y="263" on="0"/>
      </contour>
    </TTGlyph>
    <TTGlyph name="G" xMin="-126" yMin="-49" xMax="1029" yMax="887">
      <contour>
        <pt x="1028" y="578" on="1"/>
        <pt x="1025" y="545" on="0"/>
        <pt x="976" y="524" on="1"/>
        <pt x="872" y="338" on="0"/>
        <pt x="815" y="257" on="1"/>
        <pt x="716" y="119" on="0"/>
        <pt x="599" y="32" on="1"/>
        <pt x="565" y="7" on="0"/>
        <pt x="506" y="-15" on="1"/>
        <pt x="440" y="-39" on="0"/>
        <pt x="386" y="-42" on="1"/>
        <pt x="256" y="-49" on="0"/>
        <pt x="203" y="16" on="1"/>
        <pt x="174" y="51" on="0"/>
        <pt x="161" y="104" on="1"/>
        <pt x="13" y="8" on="0"/>
        <pt x="-108" y="-42" on="1"/>
        <pt x="-111" y="-43" on="0"/>
        <pt x="-114" y="-43" on="1"/>
        <pt x="-126" y="-43" on="0"/>
        <pt x="-126" y="-31" on="1"/>
        <pt x="-126" y="-24" on="0"/>
        <pt x="-120" y="-20" on="1"/>
        <pt x="0" y="36" on="0"/>
        <pt x="156" y="132" on="1"/>
        <pt x="154" y="152" on="0"/>
        <pt x="154" y="173" on="1"/>
        <pt x="154" y="262" on="0"/>
        <pt x="196" y="390" on="1"/>
        <pt x="199" y="399" on="0"/>
        <pt x="213" y="425" on="1"/>
        <pt x="222" y="444" on="0"/>
        <pt x="239" y="436" on="1"/>
        <pt x="246" y="435" on="0"/>
        <pt x="249" y="426" on="1"/>
        <pt x="257" y="371" on="1"/>
        <pt x="270" y="282" on="0"/>
        <pt x="311" y="233" on="1"/>
        <pt x="346" y="256" on="0"/>
        <pt x="418" y="304" on="1"/>
        <pt x="558" y="397" on="0"/>
        <pt x="608" y="433" on="1"/>
        <pt x="714" y="509" on="0"/>
        <pt x="782" y="574" on="1"/>
        <pt x="750" y="614" on="0"/>
        <pt x="751" y="668" on="1"/>
        <pt x="753" y="730" on="0"/>
        <pt x="798" y="789" on="1"/>
        <pt x="839" y="842" on="0"/>
        <pt x="902" y="875" on="1"/>
        <pt x="925" y="887" on="0"/>
        <pt x="948" y="883" on="1"/>
        <pt x="994" y="874" on="0"/>
        <pt x="990" y="822" on="1"/>
        <pt x="986" y="758" on="0"/>
        <pt x="919" y="681" on="1"/>
        <pt x="887" y="644" on="0"/>
        <pt x="826" y="581" on="1"/>
        <pt x="859" y="549" on="0"/>
        <pt x="906" y="549" on="1"/>
        <pt x="934" y="549" on="0"/>
        <pt x="960" y="562" on="1"/>
        <pt x="983" y="597" on="0"/>
        <pt x="1001" y="598" on="1"/>
        <pt x="1012" y="599" on="0"/>
        <pt x="1029" y="587" on="0"/>
      </contour>
      <contour>
        <pt x="939" y="786" on="1"/>
        <pt x="955" y="825" on="0"/>
        <pt x="926" y="833" on="1"/>
        <pt x="914" y="836" on="0"/>
        <pt x="885" y="819" on="1"/>
        <pt x="786" y="755" on="0"/>
        <pt x="789" y="666" on="1"/>
        <pt x="790" y="629" on="0"/>
        <pt x="809" y="601" on="1"/>
        <pt x="903" y="697" on="0"/>
      </contour>
      <contour>
        <pt x="935" y="518" on="1"/>
        <pt x="923" y="517" on="0"/>
        <pt x="912" y="517" on="1"/>
        <pt x="845" y="517" on="0"/>
        <pt x="800" y="556" on="1"/>
        <pt x="645" y="409" on="0"/>
        <pt x="436" y="283" on="1"/>
        <pt x="392" y="256" on="0"/>
        <pt x="329" y="215" on="1"/>
        <pt x="366" y="187" on="0"/>
        <pt x="415" y="187" on="1"/>
        <pt x="465" y="187" on="0"/>
        <pt x="554" y="223" on="1"/>
        <pt x="564" y="227" on="0"/>
        <pt x="568" y="217" on="1"/>
        <pt x="572" y="207" on="0"/>
        <pt x="562" y="201" on="1"/>
        <pt x="480" y="151" on="0"/>
        <pt x="406" y="151" on="1"/>
        <pt x="342" y="151" on="0"/>
        <pt x="296" y="193" on="1"/>
        <pt x="280" y="182" on="0"/>
        <pt x="217" y="140" on="0"/>
        <pt x="201" y="130" on="1"/>
        <pt x="206" y="103" on="0"/>
        <pt x="212" y="87" on="1"/>
        <pt x="227" y="44" on="0"/>
        <pt x="288" y="19" on="1"/>
        <pt x="343" y="-3" on="0"/>
        <pt x="403" y="2" on="1"/>
        <pt x="446" y="6" on="0"/>
        <pt x="503" y="25" on="1"/>
        <pt x="557" y="44" on="0"/>
        <pt x="580" y="61" on="1"/>
        <pt x="699" y="151" on="0"/>
        <pt x="787" y="272" on="1"/>
        <pt x="840" y="347" on="0"/>
      </contour>
      <contour>
        <pt x="278" y="211" on="1"/>
        <pt x="228" y="270" on="0"/>
        <pt x="217" y="353" on="1"/>
        <pt x="185" y="255" on="0"/>
        <pt x="197" y="158" on="1"/>
        <pt x="224" y="175" on="0"/>
      </contour>
    </TTGlyph>
    <TTGlyph name="H" xMin="26" yMin="-76" xMax="1204" yMax="879">
      <contour>
        <pt x="1197" y="861" on="1"/>
        <pt x="1204" y="855" on="0"/>
        <pt x="1185" y="839" on="1"/>
        <pt x="1039" y="718" on="0"/>
        <pt x="875" y="462" on="1"/>
        <pt x="883" y="465" on="0"/>
        <pt x="898" y="472" on="1"/>
        <pt x="906" y="474" on="0"/>
        <pt x="915" y="470" on="1"/>
        <pt x="917" y="467" on="0"/>
        <pt x="911" y="454" on="1"/>
        <pt x="890" y="443" on="0"/>
        <pt x="847" y="422" on="1"/>
        <pt x="828" y="394" on="0"/>
        <pt x="780" y="323" on="1"/>
        <pt x="641" y="116" on="0"/>
        <pt x="568" y="-45" on="1"/>
        <pt x="554" y="-76" on="0"/>
        <pt x="529" y="-73" on="1"/>
        <pt x="507" y="-70" on="0"/>
        <pt x="517" y="-48" on="1"/>
        <pt x="527" y="-25" on="0"/>
        <pt x="534" y="-13" on="1"/>
        <pt x="604" y="200" on="0"/>
        <pt x="597" y="336" on="1"/>
        <pt x="566" y="334" on="0"/>
        <pt x="546" y="339" on="1"/>
        <pt x="401" y="95" on="0"/>
        <pt x="251" y="-19" on="1"/>
        <pt x="178" y="-74" on="0"/>
        <pt x="123" y="-74" on="1"/>
        <pt x="26" y="-74" on="0"/>
        <pt x="26" y="21" on="1"/>
        <pt x="26" y="65" on="0"/>
        <pt x="48" y="118" on="1"/>
        <pt x="48" y="131" on="0"/>
        <pt x="62" y="131" on="1"/>
        <pt x="76" y="131" on="0"/>
        <pt x="72" y="116" on="1"/>
        <pt x="64" y="39" on="0"/>
        <pt x="73" y="12" on="1"/>
        <pt x="83" y="-19" on="0"/>
        <pt x="132" y="-19" on="1"/>
        <pt x="145" y="-19" on="0"/>
        <pt x="158" y="-15" on="1"/>
        <pt x="292" y="25" on="0"/>
        <pt x="418" y="209" on="1"/>
        <pt x="450" y="256" on="0"/>
        <pt x="514" y="349" on="1"/>
        <pt x="513" y="350" on="0"/>
        <pt x="511" y="350" on="1"/>
        <pt x="470" y="369" on="0"/>
        <pt x="470" y="408" on="1"/>
        <pt x="470" y="431" on="0"/>
        <pt x="510" y="475" on="0"/>
        <pt x="549" y="474" on="1"/>
        <pt x="567" y="474" on="0"/>
        <pt x="583" y="464" on="1"/>
        <pt x="634" y="556" on="0"/>
        <pt x="660" y="640" on="1"/>
        <pt x="673" y="683" on="0"/>
        <pt x="673" y="718" on="1"/>
        <pt x="673" y="775" on="0"/>
        <pt x="639" y="816" on="1"/>
        <pt x="608" y="853" on="0"/>
        <pt x="544" y="853" on="1"/>
        <pt x="483" y="853" on="0"/>
        <pt x="429" y="812" on="1"/>
        <pt x="422" y="808" on="0"/>
        <pt x="419" y="810" on="1"/>
        <pt x="409" y="815" on="0"/>
        <pt x="419" y="823" on="1"/>
        <pt x="472" y="879" on="0"/>
        <pt x="558" y="879" on="1"/>
        <pt x="651" y="879" on="0"/>
        <pt x="686" y="823" on="1"/>
        <pt x="712" y="781" on="0"/>
        <pt x="712" y="735" on="1"/>
        <pt x="712" y="702" on="0"/>
        <pt x="700" y="662" on="1"/>
        <pt x="667" y="551" on="0"/>
        <pt x="606" y="441" on="1"/>
        <pt x="616" y="426" on="0"/>
        <pt x="624" y="394" on="0"/>
        <pt x="626" y="378" on="1"/>
        <pt x="679" y="384" on="0"/>
        <pt x="742" y="411" on="1"/>
        <pt x="785" y="430" on="0"/>
        <pt x="815" y="441" on="1"/>
        <pt x="916" y="591" on="0"/>
        <pt x="972" y="661" on="1"/>
        <pt x="1070" y="782" on="0"/>
        <pt x="1175" y="858" on="1"/>
        <pt x="1190" y="865" on="0"/>
      </contour>
      <contour>
        <pt x="567" y="437" on="1"/>
        <pt x="560" y="442" on="0"/>
        <pt x="554" y="442" on="1"/>
        <pt x="531" y="442" on="0"/>
        <pt x="515" y="417" on="0"/>
        <pt x="519" y="403" on="1"/>
        <pt x="523" y="389" on="0"/>
        <pt x="536" y="384" on="1"/>
        <pt x="551" y="406" on="0"/>
      </contour>
      <contour>
        <pt x="596" y="374" on="1"/>
        <pt x="597" y="382" on="0"/>
        <pt x="593" y="404" on="0"/>
        <pt x="589" y="411" on="1"/>
        <pt x="584" y="402" on="0"/>
        <pt x="574" y="385" on="1"/>
        <pt x="572" y="382" on="0"/>
        <pt x="568" y="375" on="1"/>
        <pt x="570" y="375" on="1"/>
        <pt x="578" y="374" on="0"/>
      </contour>
      <contour>
        <pt x="784" y="393" on="1"/>
        <pt x="692" y="352" on="0"/>
        <pt x="628" y="341" on="1"/>
        <pt x="632" y="218" on="0"/>
        <pt x="609" y="128" on="1"/>
        <pt x="664" y="218" on="0"/>
        <pt x="746" y="339" on="1"/>
        <pt x="758" y="356" on="0"/>
      </contour>
    </TTGlyph>
    <TTGlyph name="I" xMin="6" yMin="-124" xMax="908" yMax="874">
      <contour>
        <pt x="895" y="845" on="1"/>
        <pt x="854" y="713" on="0"/>
        <pt x="760" y="554" on="1"/>
        <pt x="668" y="400" on="0"/>
        <pt x="559" y="274" on="1"/>
        <pt x="522" y="119" on="0"/>
        <pt x="530" y="-102" on="1"/>
        <pt x="531" y="-124" on="0"/>
        <pt x="512" y="-124" on="1"/>
        <pt x="498" y="-124" on="0"/>
        <pt x="492" y="-110" on="1"/>
        <pt x="482" y="-70" on="0"/>
        <pt x="492" y="88" on="1"/>
        <pt x="497" y="168" on="0"/>
        <pt x="507" y="223" on="1"/>
        <pt x="294" y="21" on="0"/>
        <pt x="125" y="-32" on="1"/>
        <pt x="106" y="-38" on="0"/>
        <pt x="82" y="-38" on="1"/>
        <pt x="29" y="-38" on="0"/>
        <pt x="15" y="-13" on="1"/>
        <pt x="6" y="3" on="0"/>
        <pt x="6" y="24" on="1"/>
        <pt x="6" y="58" on="0"/>
        <pt x="52" y="124" on="0"/>
        <pt x="87" y="137" on="1"/>
        <pt x="133" y="154" on="0"/>
        <pt x="172" y="158" on="1"/>
        <pt x="187" y="162" on="0"/>
        <pt x="192" y="148" on="1"/>
        <pt x="192" y="134" on="0"/>
        <pt x="177" y="130" on="1"/>
        <pt x="155" y="124" on="0"/>
        <pt x="133" y="118" on="1"/>
        <pt x="98" y="107" on="0"/>
        <pt x="80" y="88" on="1"/>
        <pt x="57" y="64" on="0"/>
        <pt x="57" y="40" on="1"/>
        <pt x="57" y="23" on="0"/>
        <pt x="71" y="12" on="1"/>
        <pt x="103" y="-7" on="0"/>
        <pt x="140" y="7" on="1"/>
        <pt x="314" y="72" on="0"/>
        <pt x="517" y="275" on="1"/>
        <pt x="533" y="343" on="0"/>
        <pt x="556" y="404" on="1"/>
        <pt x="674" y="713" on="0"/>
        <pt x="868" y="867" on="1"/>
        <pt x="878" y="874" on="0"/>
        <pt x="885" y="873" on="1"/>
        <pt x="908" y="871" on="0"/>
      </contour>
      <contour>
        <pt x="844" y="810" on="1"/>
        <pt x="665" y="615" on="0"/>
        <pt x="579" y="344" on="1"/>
        <pt x="789" y="609" on="0"/>
      </contour>
    </TTGlyph>
    <TTGlyph name="Iacute" xMin="6" yMin="-124" xMax="1066" yMax="1094">
      <contour>
        <pt x="1061" y="1054" on="1"/>
        <pt x="982" y="987" on="0"/>
        <pt x="878" y="921" on="1"/>
        <pt x="869" y="915" on="0"/>
        <pt x="866" y="922" on="1"/>
        <pt x="862" y="929" on="0"/>
        <pt x="870" y="936" on="1"/>
        <pt x="920" y="986" on="0"/>
        <pt x="1025" y="1091" on="1"/>
        <pt x="1029" y="1094" on="0"/>
        <pt x="1035" y="1094" on="1"/>
        <pt x="1046" y="1094" on="0"/>
        <pt x="1066" y="1075" on="0"/>
        <pt x="1066" y="1064" on="1"/>
        <pt x="1066" y="1058" on="0"/>
      </contour>
      <contour>
        <pt x="895" y="845" on="1"/>
        <pt x="854" y="713" on="0"/>
        <pt x="760" y="554" on="1"/>
        <pt x="668" y="400" on="0"/>
        <pt x="559" y="274" on="1"/>
        <pt x="522" y="119" on="0"/>
        <pt x="530" y="-102" on="1"/>
        <pt x="531" y="-124" on="0"/>
        <pt x="512" y="-124" on="1"/>
        <pt x="498" y="-124" on="0"/>
        <pt x="492" y="-110" on="1"/>
        <pt x="482" y="-70" on="0"/>
        <pt x="492" y="88" on="1"/>
        <pt x="497" y="168" on="0"/>
        <pt x="507" y="223" on="1"/>
        <pt x="294" y="21" on="0"/>
        <pt x="125" y="-32" on="1"/>
        <pt x="106" y="-38" on="0"/>
        <pt x="82" y="-38" on="1"/>
        <pt x="29" y="-38" on="0"/>
        <pt x="15" y="-13" on="1"/>
        <pt x="6" y="3" on="0"/>
        <pt x="6" y="24" on="1"/>
        <pt x="6" y="58" on="0"/>
        <pt x="52" y="124" on="0"/>
        <pt x="87" y="137" on="1"/>
        <pt x="133" y="154" on="0"/>
        <pt x="172" y="158" on="1"/>
        <pt x="187" y="162" on="0"/>
        <pt x="192" y="148" on="1"/>
        <pt x="192" y="134" on="0"/>
        <pt x="177" y="130" on="1"/>
        <pt x="155" y="124" on="0"/>
        <pt x="133" y="118" on="1"/>
        <pt x="98" y="107" on="0"/>
        <pt x="80" y="88" on="1"/>
        <pt x="57" y="64" on="0"/>
        <pt x="57" y="40" on="1"/>
        <pt x="57" y="23" on="0"/>
        <pt x="71" y="12" on="1"/>
        <pt x="103" y="-7" on="0"/>
        <pt x="140" y="7" on="1"/>
        <pt x="314" y="72" on="0"/>
        <pt x="517" y="275" on="1"/>
        <pt x="533" y="343" on="0"/>
        <pt x="556" y="404" on="1"/>
        <pt x="674" y="713" on="0"/>
        <pt x="868" y="867" on="1"/>
        <pt x="878" y="874" on="0"/>
        <pt x="885" y="873" on="1"/>
        <pt x="908" y="871" on="0"/>
      </contour>
      <contour>
        <pt x="844" y="810" on="1"/>
        <pt x="665" y="615" on="0"/>
        <pt x="579" y="344" on="1"/>
        <pt x="789" y="609" on="0"/>
      </contour>
    </TTGlyph>
    <TTGlyph name="Icircumflex" xMin="6" yMin="-124" xMax="1006" yMax="983">
      <contour>
        <pt x="1000" y="895" on="1"/>
        <pt x="1006" y="888" on="0"/>
        <pt x="1006" y="878" on="1"/>
        <pt x="1006" y="858" on="0"/>
        <pt x="991" y="858" on="1"/>
        <pt x="986" y="858" on="0"/>
        <pt x="977" y="864" on="0"/>
        <pt x="946" y="897" on="1"/>
        <pt x="919" y="927" on="0"/>
        <pt x="910" y="927" on="1"/>
        <pt x="884" y="927" on="0"/>
        <pt x="745" y="862" on="1"/>
        <pt x="730" y="857" on="0"/>
        <pt x="730" y="874" on="1"/>
        <pt x="730" y="883" on="0"/>
        <pt x="739" y="888" on="1"/>
        <pt x="761" y="899" on="0"/>
        <pt x="841" y="950" on="1"/>
        <pt x="894" y="983" on="0"/>
        <pt x="918" y="983" on="1"/>
        <pt x="929" y="983" on="0"/>
        <pt x="962" y="943" on="1"/>
        <pt x="981" y="919" on="0"/>
      </contour>
      <contour>
        <pt x="895" y="845" on="1"/>
        <pt x="854" y="713" on="0"/>
        <pt x="760" y="554" on="1"/>
        <pt x="668" y="400" on="0"/>
        <pt x="559" y="274" on="1"/>
        <pt x="522" y="119" on="0"/>
        <pt x="530" y="-102" on="1"/>
        <pt x="531" y="-124" on="0"/>
        <pt x="512" y="-124" on="1"/>
        <pt x="498" y="-124" on="0"/>
        <pt x="492" y="-110" on="1"/>
        <pt x="482" y="-70" on="0"/>
        <pt x="492" y="88" on="1"/>
        <pt x="497" y="168" on="0"/>
        <pt x="507" y="223" on="1"/>
        <pt x="294" y="21" on="0"/>
        <pt x="125" y="-32" on="1"/>
        <pt x="106" y="-38" on="0"/>
        <pt x="82" y="-38" on="1"/>
        <pt x="29" y="-38" on="0"/>
        <pt x="15" y="-13" on="1"/>
        <pt x="6" y="3" on="0"/>
        <pt x="6" y="24" on="1"/>
        <pt x="6" y="58" on="0"/>
        <pt x="52" y="124" on="0"/>
        <pt x="87" y="137" on="1"/>
        <pt x="133" y="154" on="0"/>
        <pt x="172" y="158" on="1"/>
        <pt x="187" y="162" on="0"/>
        <pt x="192" y="148" on="1"/>
        <pt x="192" y="134" on="0"/>
        <pt x="177" y="130" on="1"/>
        <pt x="155" y="124" on="0"/>
        <pt x="133" y="118" on="1"/>
        <pt x="98" y="107" on="0"/>
        <pt x="80" y="88" on="1"/>
        <pt x="57" y="64" on="0"/>
        <pt x="57" y="40" on="1"/>
        <pt x="57" y="23" on="0"/>
        <pt x="71" y="12" on="1"/>
        <pt x="103" y="-7" on="0"/>
        <pt x="140" y="7" on="1"/>
        <pt x="314" y="72" on="0"/>
        <pt x="517" y="275" on="1"/>
        <pt x="533" y="343" on="0"/>
        <pt x="556" y="404" on="1"/>
        <pt x="674" y="713" on="0"/>
        <pt x="868" y="867" on="1"/>
        <pt x="878" y="874" on="0"/>
        <pt x="885" y="873" on="1"/>
        <pt x="908" y="871" on="0"/>
      </contour>
      <contour>
        <pt x="844" y="810" on="1"/>
        <pt x="665" y="615" on="0"/>
        <pt x="579" y="344" on="1"/>
        <pt x="789" y="609" on="0"/>
      </contour>
    </TTGlyph>
    <TTGlyph name="Idieresis" xMin="6" yMin="-124" xMax="1002" yMax="996">
      <contour>
        <pt x="1002" y="962" on="1"/>
        <pt x="1002" y="949" on="0"/>
        <pt x="965" y="904" on="0"/>
        <pt x="955" y="904" on="1"/>
        <pt x="937" y="904" on="0"/>
        <pt x="934" y="918" on="1"/>
        <pt x="930" y="938" on="0"/>
        <pt x="962" y="986" on="0"/>
        <pt x="986" y="992" on="1"/>
        <pt x="1002" y="996" on="0"/>
      </contour>
      <contour>
        <pt x="870" y="962" on="1"/>
        <pt x="870" y="949" on="0"/>
        <pt x="834" y="904" on="0"/>
        <pt x="824" y="904" on="1"/>
        <pt x="804" y="904" on="0"/>
        <pt x="803" y="918" on="1"/>
        <pt x="799" y="938" on="0"/>
        <pt x="830" y="986" on="0"/>
        <pt x="855" y="992" on="1"/>
        <pt x="870" y="996" on="0"/>
      </contour>
      <contour>
        <pt x="895" y="845" on="1"/>
        <pt x="854" y="713" on="0"/>
        <pt x="760" y="554" on="1"/>
        <pt x="668" y="400" on="0"/>
        <pt x="559" y="274" on="1"/>
        <pt x="522" y="119" on="0"/>
        <pt x="530" y="-102" on="1"/>
        <pt x="531" y="-124" on="0"/>
        <pt x="512" y="-124" on="1"/>
        <pt x="498" y="-124" on="0"/>
        <pt x="492" y="-110" on="1"/>
        <pt x="482" y="-70" on="0"/>
        <pt x="492" y="88" on="1"/>
        <pt x="497" y="168" on="0"/>
        <pt x="507" y="223" on="1"/>
        <pt x="294" y="21" on="0"/>
        <pt x="125" y="-32" on="1"/>
        <pt x="106" y="-38" on="0"/>
        <pt x="82" y="-38" on="1"/>
        <pt x="29" y="-38" on="0"/>
        <pt x="15" y="-13" on="1"/>
        <pt x="6" y="3" on="0"/>
        <pt x="6" y="24" on="1"/>
        <pt x="6" y="58" on="0"/>
        <pt x="52" y="124" on="0"/>
        <pt x="87" y="137" on="1"/>
        <pt x="133" y="154" on="0"/>
        <pt x="172" y="158" on="1"/>
        <pt x="187" y="162" on="0"/>
        <pt x="192" y="148" on="1"/>
        <pt x="192" y="134" on="0"/>
        <pt x="177" y="130" on="1"/>
        <pt x="155" y="124" on="0"/>
        <pt x="133" y="118" on="1"/>
        <pt x="98" y="107" on="0"/>
        <pt x="80" y="88" on="1"/>
        <pt x="57" y="64" on="0"/>
        <pt x="57" y="40" on="1"/>
        <pt x="57" y="23" on="0"/>
        <pt x="71" y="12" on="1"/>
        <pt x="103" y="-7" on="0"/>
        <pt x="140" y="7" on="1"/>
        <pt x="314" y="72" on="0"/>
        <pt x="517" y="275" on="1"/>
        <pt x="533" y="343" on="0"/>
        <pt x="556" y="404" on="1"/>
        <pt x="674" y="713" on="0"/>
        <pt x="868" y="867" on="1"/>
        <pt x="878" y="874" on="0"/>
        <pt x="885" y="873" on="1"/>
        <pt x="908" y="871" on="0"/>
      </contour>
      <contour>
        <pt x="844" y="810" on="1"/>
        <pt x="665" y="615" on="0"/>
        <pt x="579" y="344" on="1"/>
        <pt x="789" y="609" on="0"/>
      </contour>
    </TTGlyph>
    <TTGlyph name="Igrave" xMin="6" yMin="-124" xMax="908" yMax="1109">
      <contour>
        <pt x="856" y="911" on="1"/>
        <pt x="862" y="902" on="0"/>
        <pt x="857" y="897" on="1"/>
        <pt x="852" y="891" on="0"/>
        <pt x="844" y="898" on="1"/>
        <pt x="753" y="1004" on="0"/>
        <pt x="705" y="1077" on="1"/>
        <pt x="703" y="1080" on="0"/>
        <pt x="703" y="1084" on="1"/>
        <pt x="703" y="1109" on="0"/>
        <pt x="735" y="1109" on="1"/>
        <pt x="745" y="1109" on="0"/>
        <pt x="749" y="1102" on="1"/>
        <pt x="785" y="1032" on="0"/>
      </contour>
      <contour>
        <pt x="895" y="845" on="1"/>
        <pt x="854" y="713" on="0"/>
        <pt x="760" y="554" on="1"/>
        <pt x="668" y="400" on="0"/>
        <pt x="559" y="274" on="1"/>
        <pt x="522" y="119" on="0"/>
        <pt x="530" y="-102" on="1"/>
        <pt x="531" y="-124" on="0"/>
        <pt x="512" y="-124" on="1"/>
        <pt x="498" y="-124" on="0"/>
        <pt x="492" y="-110" on="1"/>
        <pt x="482" y="-70" on="0"/>
        <pt x="492" y="88" on="1"/>
        <pt x="497" y="168" on="0"/>
        <pt x="507" y="223" on="1"/>
        <pt x="294" y="21" on="0"/>
        <pt x="125" y="-32" on="1"/>
        <pt x="106" y="-38" on="0"/>
        <pt x="82" y="-38" on="1"/>
        <pt x="29" y="-38" on="0"/>
        <pt x="15" y="-13" on="1"/>
        <pt x="6" y="3" on="0"/>
        <pt x="6" y="24" on="1"/>
        <pt x="6" y="58" on="0"/>
        <pt x="52" y="124" on="0"/>
        <pt x="87" y="137" on="1"/>
        <pt x="133" y="154" on="0"/>
        <pt x="172" y="158" on="1"/>
        <pt x="187" y="162" on="0"/>
        <pt x="192" y="148" on="1"/>
        <pt x="192" y="134" on="0"/>
        <pt x="177" y="130" on="1"/>
        <pt x="155" y="124" on="0"/>
        <pt x="133" y="118" on="1"/>
        <pt x="98" y="107" on="0"/>
        <pt x="80" y="88" on="1"/>
        <pt x="57" y="64" on="0"/>
        <pt x="57" y="40" on="1"/>
        <pt x="57" y="23" on="0"/>
        <pt x="71" y="12" on="1"/>
        <pt x="103" y="-7" on="0"/>
        <pt x="140" y="7" on="1"/>
        <pt x="314" y="72" on="0"/>
        <pt x="517" y="275" on="1"/>
        <pt x="533" y="343" on="0"/>
        <pt x="556" y="404" on="1"/>
        <pt x="674" y="713" on="0"/>
        <pt x="868" y="867" on="1"/>
        <pt x="878" y="874" on="0"/>
        <pt x="885" y="873" on="1"/>
        <pt x="908" y="871" on="0"/>
      </contour>
      <contour>
        <pt x="844" y="810" on="1"/>
        <pt x="665" y="615" on="0"/>
        <pt x="579" y="344" on="1"/>
        <pt x="789" y="609" on="0"/>
      </contour>
    </TTGlyph>
    <TTGlyph name="J" xMin="-219" yMin="-698" xMax="584" yMax="813">
      <contour>
        <pt x="576" y="124" on="1"/>
        <pt x="557" y="105" on="0"/>
        <pt x="518" y="72" on="1"/>
        <pt x="480" y="45" on="0"/>
        <pt x="338" y="-37" on="1"/>
        <pt x="281" y="-162" on="0"/>
        <pt x="224" y="-287" on="1"/>
        <pt x="154" y="-433" on="0"/>
        <pt x="81" y="-522" on="1"/>
        <pt x="-15" y="-637" on="0"/>
        <pt x="-143" y="-695" on="1"/>
        <pt x="-154" y="-698" on="0"/>
        <pt x="-163" y="-698" on="1"/>
        <pt x="-219" y="-698" on="0"/>
        <pt x="-219" y="-616" on="1"/>
        <pt x="-219" y="-579" on="0"/>
        <pt x="-203" y="-545" on="1"/>
        <pt x="-88" y="-305" on="0"/>
        <pt x="91" y="-159" on="1"/>
        <pt x="139" y="-120" on="0"/>
        <pt x="305" y="-21" on="1"/>
        <pt x="313" y="-2" on="0"/>
        <pt x="320" y="13" on="1"/>
        <pt x="421" y="251" on="0"/>
        <pt x="462" y="399" on="1"/>
        <pt x="485" y="483" on="0"/>
        <pt x="485" y="548" on="1"/>
        <pt x="485" y="601" on="0"/>
        <pt x="470" y="649" on="1"/>
        <pt x="443" y="734" on="0"/>
        <pt x="364" y="759" on="1"/>
        <pt x="347" y="762" on="0"/>
        <pt x="328" y="762" on="1"/>
        <pt x="240" y="762" on="0"/>
        <pt x="132" y="699" on="1"/>
        <pt x="45" y="648" on="0"/>
        <pt x="13" y="605" on="1"/>
        <pt x="-6" y="579" on="0"/>
        <pt x="-6" y="550" on="1"/>
        <pt x="-6" y="531" on="0"/>
        <pt x="8" y="527" on="1"/>
        <pt x="70" y="510" on="0"/>
        <pt x="134" y="536" on="1"/>
        <pt x="137" y="537" on="0"/>
        <pt x="139" y="535" on="1"/>
        <pt x="141" y="533" on="0"/>
        <pt x="138" y="530" on="1"/>
        <pt x="91" y="493" on="0"/>
        <pt x="31" y="493" on="1"/>
        <pt x="10" y="493" on="0"/>
        <pt x="-9" y="498" on="1"/>
        <pt x="-56" y="510" on="0"/>
        <pt x="-47" y="548" on="1"/>
        <pt x="-11" y="704" on="0"/>
        <pt x="261" y="796" on="1"/>
        <pt x="312" y="813" on="0"/>
        <pt x="364" y="804" on="1"/>
        <pt x="516" y="777" on="0"/>
        <pt x="516" y="578" on="1"/>
        <pt x="516" y="344" on="0"/>
        <pt x="361" y="11" on="1"/>
        <pt x="394" y="30" on="0"/>
        <pt x="471" y="72" on="1"/>
        <pt x="525" y="101" on="0"/>
        <pt x="566" y="136" on="1"/>
        <pt x="568" y="137" on="0"/>
        <pt x="570" y="137" on="1"/>
        <pt x="573" y="137" on="0"/>
        <pt x="575" y="136" on="1"/>
        <pt x="584" y="132" on="0"/>
      </contour>
      <contour>
        <pt x="284" y="-69" on="1"/>
        <pt x="144" y="-150" on="0"/>
        <pt x="108" y="-179" on="1"/>
        <pt x="17" y="-252" on="0"/>
        <pt x="-45" y="-340" on="1"/>
        <pt x="-73" y="-380" on="0"/>
        <pt x="-158" y="-530" on="1"/>
        <pt x="-187" y="-581" on="0"/>
        <pt x="-164" y="-630" on="1"/>
        <pt x="-158" y="-643" on="0"/>
        <pt x="-144" y="-640" on="1"/>
        <pt x="-11" y="-585" on="0"/>
        <pt x="188" y="-285" on="0"/>
      </contour>
    </TTGlyph>
    <TTGlyph name="K" xMin="-58" yMin="-406" xMax="965" yMax="962">
      <contour>
        <pt x="964" y="949" on="1"/>
        <pt x="924" y="868" on="0"/>
        <pt x="845" y="764" on="1"/>
        <pt x="772" y="670" on="0"/>
        <pt x="716" y="618" on="1"/>
        <pt x="550" y="466" on="0"/>
        <pt x="435" y="418" on="1"/>
        <pt x="443" y="382" on="0"/>
        <pt x="441" y="332" on="1"/>
        <pt x="435" y="206" on="0"/>
        <pt x="421" y="115" on="1"/>
        <pt x="401" y="-13" on="0"/>
        <pt x="394" y="-82" on="1"/>
        <pt x="382" y="-196" on="0"/>
        <pt x="382" y="-230" on="1"/>
        <pt x="382" y="-337" on="0"/>
        <pt x="437" y="-386" on="1"/>
        <pt x="447" y="-393" on="0"/>
        <pt x="441" y="-401" on="1"/>
        <pt x="437" y="-406" on="0"/>
        <pt x="428" y="-402" on="1"/>
        <pt x="340" y="-345" on="0"/>
        <pt x="344" y="-193" on="1"/>
        <pt x="346" y="-119" on="0"/>
        <pt x="382" y="103" on="1"/>
        <pt x="411" y="280" on="0"/>
        <pt x="411" y="349" on="1"/>
        <pt x="411" y="383" on="0"/>
        <pt x="406" y="407" on="1"/>
        <pt x="399" y="404" on="0"/>
        <pt x="384" y="401" on="1"/>
        <pt x="281" y="220" on="0"/>
        <pt x="254" y="179" on="1"/>
        <pt x="175" y="57" on="0"/>
        <pt x="90" y="-17" on="1"/>
        <pt x="54" y="-48" on="0"/>
        <pt x="8" y="-48" on="1"/>
        <pt x="-58" y="-48" on="0"/>
        <pt x="-58" y="37" on="1"/>
        <pt x="-58" y="74" on="0"/>
        <pt x="-43" y="112" on="1"/>
        <pt x="-41" y="123" on="0"/>
        <pt x="-27" y="128" on="1"/>
        <pt x="-8" y="128" on="0"/>
        <pt x="-15" y="113" on="1"/>
        <pt x="-23" y="19" on="0"/>
        <pt x="24" y="8" on="1"/>
        <pt x="64" y="-1" on="0"/>
        <pt x="125" y="68" on="1"/>
        <pt x="231" y="188" on="0"/>
        <pt x="343" y="396" on="1"/>
        <pt x="295" y="400" on="0"/>
        <pt x="298" y="434" on="1"/>
        <pt x="300" y="456" on="0"/>
        <pt x="316" y="471" on="1"/>
        <pt x="344" y="497" on="0"/>
        <pt x="389" y="478" on="1"/>
        <pt x="407" y="510" on="0"/>
        <pt x="451" y="592" on="1"/>
        <pt x="536" y="751" on="0"/>
        <pt x="548" y="815" on="1"/>
        <pt x="549" y="820" on="0"/>
        <pt x="546" y="821" on="1"/>
        <pt x="543" y="822" on="0"/>
        <pt x="537" y="821" on="1"/>
        <pt x="514" y="816" on="0"/>
        <pt x="416" y="768" on="1"/>
        <pt x="414" y="767" on="0"/>
        <pt x="411" y="767" on="1"/>
        <pt x="399" y="767" on="0"/>
        <pt x="399" y="779" on="1"/>
        <pt x="399" y="785" on="0"/>
        <pt x="405" y="791" on="1"/>
        <pt x="455" y="825" on="0"/>
        <pt x="551" y="866" on="1"/>
        <pt x="566" y="872" on="0"/>
        <pt x="581" y="868" on="1"/>
        <pt x="600" y="863" on="0"/>
        <pt x="597" y="842" on="1"/>
        <pt x="588" y="782" on="0"/>
        <pt x="485" y="583" on="1"/>
        <pt x="464" y="543" on="0"/>
        <pt x="416" y="457" on="1"/>
        <pt x="420" y="451" on="0"/>
        <pt x="423" y="447" on="1"/>
        <pt x="475" y="467" on="0"/>
        <pt x="536" y="513" on="1"/>
        <pt x="591" y="557" on="0"/>
        <pt x="646" y="601" on="1"/>
        <pt x="796" y="720" on="0"/>
        <pt x="939" y="951" on="1"/>
        <pt x="946" y="962" on="0"/>
        <pt x="956" y="962" on="1"/>
        <pt x="965" y="962" on="0"/>
        <pt x="965" y="954" on="1"/>
        <pt x="965" y="951" on="0"/>
      </contour>
      <contour>
        <pt x="376" y="455" on="1"/>
        <pt x="340" y="468" on="0"/>
        <pt x="337" y="440" on="1"/>
        <pt x="336" y="432" on="0"/>
        <pt x="363" y="432" on="1"/>
        <pt x="364" y="434" on="0"/>
      </contour>
    </TTGlyph>
    <TTGlyph name="L" xMin="33" yMin="-257" xMax="962" yMax="799">
      <contour>
        <pt x="962" y="-111" on="1"/>
        <pt x="962" y="-169" on="0"/>
        <pt x="876" y="-257" on="0"/>
        <pt x="819" y="-257" on="1"/>
        <pt x="731" y="-257" on="0"/>
        <pt x="674" y="-229" on="1"/>
        <pt x="640" y="-212" on="0"/>
        <pt x="573" y="-155" on="1"/>
        <pt x="543" y="-129" on="0"/>
        <pt x="496" y="-76" on="1"/>
        <pt x="446" y="-20" on="0"/>
        <pt x="419" y="5" on="1"/>
        <pt x="392" y="34" on="0"/>
        <pt x="332" y="89" on="1"/>
        <pt x="313" y="70" on="0"/>
        <pt x="250" y="16" on="1"/>
        <pt x="165" y="-58" on="0"/>
        <pt x="121" y="-58" on="1"/>
        <pt x="80" y="-58" on="0"/>
        <pt x="33" y="-1" on="0"/>
        <pt x="33" y="44" on="1"/>
        <pt x="33" y="104" on="0"/>
        <pt x="88" y="143" on="1"/>
        <pt x="140" y="180" on="0"/>
        <pt x="210" y="180" on="1"/>
        <pt x="281" y="180" on="0"/>
        <pt x="336" y="139" on="1"/>
        <pt x="376" y="182" on="0"/>
        <pt x="406" y="225" on="1"/>
        <pt x="476" y="324" on="0"/>
        <pt x="545" y="436" on="1"/>
        <pt x="484" y="418" on="0"/>
        <pt x="439" y="418" on="1"/>
        <pt x="368" y="418" on="0"/>
        <pt x="309" y="449" on="1"/>
        <pt x="242" y="483" on="0"/>
        <pt x="233" y="539" on="1"/>
        <pt x="231" y="554" on="0"/>
        <pt x="245" y="554" on="1"/>
        <pt x="256" y="554" on="0"/>
        <pt x="258" y="543" on="1"/>
        <pt x="272" y="462" on="0"/>
        <pt x="441" y="462" on="1"/>
        <pt x="502" y="462" on="0"/>
        <pt x="577" y="489" on="1"/>
        <pt x="619" y="556" on="0"/>
        <pt x="641" y="598" on="1"/>
        <pt x="678" y="669" on="0"/>
        <pt x="740" y="728" on="1"/>
        <pt x="814" y="799" on="0"/>
        <pt x="876" y="799" on="1"/>
        <pt x="939" y="799" on="0"/>
        <pt x="939" y="744" on="1"/>
        <pt x="939" y="706" on="0"/>
        <pt x="908" y="667" on="1"/>
        <pt x="897" y="653" on="0"/>
        <pt x="852" y="611" on="1"/>
        <pt x="750" y="515" on="0"/>
        <pt x="595" y="453" on="1"/>
        <pt x="531" y="347" on="0"/>
        <pt x="431" y="205" on="1"/>
        <pt x="397" y="156" on="0"/>
        <pt x="360" y="118" on="1"/>
        <pt x="387" y="87" on="0"/>
        <pt x="440" y="29" on="1"/>
        <pt x="488" y="-26" on="0"/>
        <pt x="593" y="-130" on="1"/>
        <pt x="649" y="-177" on="0"/>
        <pt x="678" y="-189" on="1"/>
        <pt x="721" y="-207" on="0"/>
        <pt x="805" y="-207" on="1"/>
        <pt x="854" y="-207" on="0"/>
        <pt x="893" y="-184" on="1"/>
        <pt x="936" y="-158" on="0"/>
        <pt x="936" y="-116" on="1"/>
        <pt x="936" y="-86" on="0"/>
        <pt x="909" y="-86" on="1"/>
        <pt x="859" y="-86" on="0"/>
        <pt x="853" y="-126" on="1"/>
        <pt x="852" y="-133" on="0"/>
        <pt x="846" y="-156" on="0"/>
        <pt x="836" y="-153" on="1"/>
        <pt x="825" y="-149" on="0"/>
        <pt x="827" y="-136" on="1"/>
        <pt x="829" y="-121" on="1"/>
        <pt x="840" y="-41" on="0"/>
        <pt x="909" y="-41" on="1"/>
        <pt x="932" y="-41" on="0"/>
        <pt x="962" y="-88" on="0"/>
      </contour>
      <contour>
        <pt x="900" y="727" on="1"/>
        <pt x="900" y="754" on="0"/>
        <pt x="865" y="754" on="1"/>
        <pt x="810" y="754" on="0"/>
        <pt x="750" y="695" on="1"/>
        <pt x="702" y="647" on="0"/>
        <pt x="669" y="583" on="1"/>
        <pt x="655" y="558" on="0"/>
        <pt x="627" y="508" on="1"/>
        <pt x="755" y="561" on="0"/>
        <pt x="833" y="631" on="1"/>
        <pt x="855" y="651" on="0"/>
        <pt x="878" y="671" on="1"/>
        <pt x="900" y="696" on="0"/>
      </contour>
      <contour>
        <pt x="306" y="108" on="1"/>
        <pt x="258" y="138" on="0"/>
        <pt x="198" y="138" on="1"/>
        <pt x="60" y="138" on="0"/>
        <pt x="60" y="44" on="1"/>
        <pt x="60" y="-14" on="0"/>
        <pt x="124" y="-14" on="1"/>
        <pt x="162" y="-14" on="0"/>
        <pt x="231" y="41" on="1"/>
        <pt x="261" y="65" on="0"/>
      </contour>
    </TTGlyph>
    <TTGlyph name="Lslash" xMin="33" yMin="-257" xMax="962" yMax="799">
      <contour>
        <pt x="962" y="-111" on="1"/>
        <pt x="962" y="-169" on="0"/>
        <pt x="876" y="-257" on="0"/>
        <pt x="819" y="-257" on="1"/>
        <pt x="731" y="-257" on="0"/>
        <pt x="674" y="-229" on="1"/>
        <pt x="640" y="-212" on="0"/>
        <pt x="573" y="-155" on="1"/>
        <pt x="543" y="-129" on="0"/>
        <pt x="496" y="-76" on="1"/>
        <pt x="446" y="-20" on="0"/>
        <pt x="419" y="5" on="1"/>
        <pt x="392" y="34" on="0"/>
        <pt x="332" y="89" on="1"/>
        <pt x="313" y="70" on="0"/>
        <pt x="250" y="16" on="1"/>
        <pt x="165" y="-58" on="0"/>
        <pt x="121" y="-58" on="1"/>
        <pt x="80" y="-58" on="0"/>
        <pt x="33" y="-1" on="0"/>
        <pt x="33" y="44" on="1"/>
        <pt x="33" y="104" on="0"/>
        <pt x="88" y="143" on="1"/>
        <pt x="140" y="180" on="0"/>
        <pt x="210" y="180" on="1"/>
        <pt x="281" y="180" on="0"/>
        <pt x="336" y="139" on="1"/>
        <pt x="388" y="196" on="0"/>
        <pt x="450" y="288" on="1"/>
        <pt x="446" y="287" on="0"/>
        <pt x="440" y="285" on="1"/>
        <pt x="418" y="278" on="0"/>
        <pt x="372" y="262" on="1"/>
        <pt x="368" y="260" on="0"/>
        <pt x="364" y="260" on="1"/>
        <pt x="347" y="260" on="0"/>
        <pt x="347" y="277" on="1"/>
        <pt x="347" y="288" on="0"/>
        <pt x="359" y="295" on="1"/>
        <pt x="427" y="322" on="1"/>
        <pt x="459" y="335" on="0"/>
        <pt x="487" y="345" on="1"/>
        <pt x="506" y="375" on="0"/>
        <pt x="545" y="436" on="1"/>
        <pt x="484" y="418" on="0"/>
        <pt x="439" y="418" on="1"/>
        <pt x="368" y="418" on="0"/>
        <pt x="309" y="449" on="1"/>
        <pt x="242" y="483" on="0"/>
        <pt x="233" y="539" on="1"/>
        <pt x="231" y="554" on="0"/>
        <pt x="245" y="554" on="1"/>
        <pt x="256" y="554" on="0"/>
        <pt x="258" y="543" on="1"/>
        <pt x="272" y="462" on="0"/>
        <pt x="441" y="462" on="1"/>
        <pt x="502" y="462" on="0"/>
        <pt x="577" y="489" on="1"/>
        <pt x="619" y="556" on="0"/>
        <pt x="641" y="598" on="1"/>
        <pt x="678" y="669" on="0"/>
        <pt x="740" y="728" on="1"/>
        <pt x="814" y="799" on="0"/>
        <pt x="876" y="799" on="1"/>
        <pt x="939" y="799" on="0"/>
        <pt x="939" y="744" on="1"/>
        <pt x="939" y="706" on="0"/>
        <pt x="908" y="667" on="1"/>
        <pt x="897" y="653" on="0"/>
        <pt x="852" y="611" on="1"/>
        <pt x="750" y="515" on="0"/>
        <pt x="595" y="453" on="1"/>
        <pt x="575" y="419" on="0"/>
        <pt x="541" y="367" on="1"/>
        <pt x="588" y="387" on="0"/>
        <pt x="619" y="396" on="1"/>
        <pt x="627" y="400" on="0"/>
        <pt x="635" y="400" on="1"/>
        <pt x="654" y="400" on="0"/>
        <pt x="654" y="381" on="1"/>
        <pt x="654" y="368" on="0"/>
        <pt x="642" y="361" on="1"/>
        <pt x="601" y="346" on="0"/>
        <pt x="530" y="319" on="1"/>
        <pt x="521" y="315" on="0"/>
        <pt x="502" y="309" on="1"/>
        <pt x="488" y="287" on="0"/>
        <pt x="431" y="205" on="1"/>
        <pt x="398" y="157" on="0"/>
        <pt x="360" y="118" on="1"/>
        <pt x="387" y="87" on="0"/>
        <pt x="440" y="29" on="1"/>
        <pt x="488" y="-26" on="0"/>
        <pt x="593" y="-130" on="1"/>
        <pt x="649" y="-177" on="0"/>
        <pt x="678" y="-189" on="1"/>
        <pt x="721" y="-207" on="0"/>
        <pt x="805" y="-207" on="1"/>
        <pt x="854" y="-207" on="0"/>
        <pt x="893" y="-184" on="1"/>
        <pt x="936" y="-158" on="0"/>
        <pt x="936" y="-116" on="1"/>
        <pt x="936" y="-86" on="0"/>
        <pt x="909" y="-86" on="1"/>
        <pt x="859" y="-86" on="0"/>
        <pt x="853" y="-126" on="1"/>
        <pt x="852" y="-133" on="0"/>
        <pt x="846" y="-156" on="0"/>
        <pt x="836" y="-153" on="1"/>
        <pt x="825" y="-149" on="0"/>
        <pt x="827" y="-136" on="1"/>
        <pt x="829" y="-121" on="1"/>
        <pt x="840" y="-41" on="0"/>
        <pt x="909" y="-41" on="1"/>
        <pt x="932" y="-41" on="0"/>
        <pt x="962" y="-88" on="0"/>
      </contour>
      <contour>
        <pt x="900" y="727" on="1"/>
        <pt x="900" y="754" on="0"/>
        <pt x="865" y="754" on="1"/>
        <pt x="810" y="754" on="0"/>
        <pt x="750" y="695" on="1"/>
        <pt x="702" y="647" on="0"/>
        <pt x="669" y="583" on="1"/>
        <pt x="655" y="558" on="0"/>
        <pt x="627" y="508" on="1"/>
        <pt x="755" y="561" on="0"/>
        <pt x="833" y="631" on="1"/>
        <pt x="855" y="651" on="0"/>
        <pt x="878" y="671" on="1"/>
        <pt x="900" y="696" on="0"/>
      </contour>
      <contour>
        <pt x="306" y="108" on="1"/>
        <pt x="258" y="138" on="0"/>
        <pt x="198" y="138" on="1"/>
        <pt x="60" y="138" on="0"/>
        <pt x="60" y="44" on="1"/>
        <pt x="60" y="-14" on="0"/>
        <pt x="124" y="-14" on="1"/>
        <pt x="162" y="-14" on="0"/>
        <pt x="231" y="41" on="1"/>
        <pt x="261" y="65" on="0"/>
      </contour>
    </TTGlyph>
    <TTGlyph name="M" xMin="-78" yMin="-137" xMax="837" yMax="1070">
      <contour>
        <pt x="832" y="495" on="1"/>
        <pt x="818" y="433" on="0"/>
        <pt x="762" y="317" on="1"/>
        <pt x="704" y="195" on="0"/>
        <pt x="689" y="138" on="1"/>
        <pt x="681" y="108" on="0"/>
        <pt x="681" y="60" on="1"/>
        <pt x="681" y="-59" on="0"/>
        <pt x="724" y="-98" on="1"/>
        <pt x="746" y="-111" on="0"/>
        <pt x="740" y="-125" on="1"/>
        <pt x="736" y="-134" on="0"/>
        <pt x="723" y="-136" on="1"/>
        <pt x="716" y="-137" on="0"/>
        <pt x="705" y="-134" on="1"/>
        <pt x="649" y="-104" on="0"/>
        <pt x="649" y="23" on="1"/>
        <pt x="649" y="93" on="0"/>
        <pt x="665" y="150" on="1"/>
        <pt x="686" y="226" on="0"/>
        <pt x="769" y="422" on="1"/>
        <pt x="790" y="471" on="0"/>
        <pt x="790" y="509" on="1"/>
        <pt x="790" y="531" on="0"/>
        <pt x="779" y="533" on="1"/>
        <pt x="753" y="538" on="0"/>
        <pt x="622" y="442" on="0"/>
        <pt x="581" y="390" on="1"/>
        <pt x="494" y="279" on="0"/>
        <pt x="434" y="161" on="1"/>
        <pt x="407" y="109" on="0"/>
        <pt x="352" y="3" on="1"/>
        <pt x="339" y="-27" on="0"/>
        <pt x="320" y="-27" on="1"/>
        <pt x="317" y="-27" on="0"/>
        <pt x="315" y="-26" on="1"/>
        <pt x="301" y="-18" on="0"/>
        <pt x="311" y="7" on="1"/>
        <pt x="316" y="16" on="0"/>
        <pt x="321" y="30" on="1"/>
        <pt x="338" y="61" on="0"/>
        <pt x="370" y="123" on="1"/>
        <pt x="491" y="363" on="0"/>
        <pt x="596" y="630" on="1"/>
        <pt x="612" y="672" on="0"/>
        <pt x="612" y="696" on="1"/>
        <pt x="612" y="710" on="0"/>
        <pt x="594" y="710" on="1"/>
        <pt x="552" y="710" on="0"/>
        <pt x="484" y="671" on="1"/>
        <pt x="409" y="628" on="0"/>
        <pt x="353" y="564" on="1"/>
        <pt x="298" y="445" on="0"/>
        <pt x="246" y="345" on="1"/>
        <pt x="188" y="220" on="0"/>
        <pt x="72" y="-15" on="1"/>
        <pt x="70" y="-22" on="0"/>
        <pt x="55" y="-31" on="1"/>
        <pt x="50" y="-36" on="0"/>
        <pt x="38" y="-35" on="1"/>
        <pt x="25" y="-35" on="0"/>
        <pt x="21" y="-30" on="1"/>
        <pt x="8" y="-20" on="0"/>
        <pt x="22" y="-6" on="1"/>
        <pt x="144" y="208" on="0"/>
        <pt x="351" y="633" on="1"/>
        <pt x="452" y="840" on="0"/>
        <pt x="452" y="937" on="1"/>
        <pt x="452" y="968" on="0"/>
        <pt x="440" y="986" on="1"/>
        <pt x="417" y="1021" on="0"/>
        <pt x="326" y="1026" on="1"/>
        <pt x="169" y="1034" on="0"/>
        <pt x="34" y="897" on="1"/>
        <pt x="-24" y="838" on="0"/>
        <pt x="-24" y="785" on="1"/>
        <pt x="-24" y="771" on="0"/>
        <pt x="-20" y="758" on="1"/>
        <pt x="-4" y="728" on="0"/>
        <pt x="39" y="728" on="1"/>
        <pt x="60" y="728" on="0"/>
        <pt x="83" y="737" on="1"/>
        <pt x="93" y="738" on="0"/>
        <pt x="95" y="728" on="1"/>
        <pt x="96" y="721" on="0"/>
        <pt x="87" y="716" on="1"/>
        <pt x="32" y="695" on="0"/>
        <pt x="-5" y="695" on="1"/>
        <pt x="-52" y="695" on="0"/>
        <pt x="-70" y="728" on="1"/>
        <pt x="-78" y="743" on="0"/>
        <pt x="-78" y="761" on="1"/>
        <pt x="-78" y="807" on="0"/>
        <pt x="-26" y="872" on="1"/>
        <pt x="41" y="955" on="0"/>
        <pt x="142" y="1015" on="1"/>
        <pt x="235" y="1070" on="0"/>
        <pt x="332" y="1070" on="1"/>
        <pt x="424" y="1070" on="0"/>
        <pt x="474" y="1016" on="1"/>
        <pt x="489" y="993" on="0"/>
        <pt x="489" y="955" on="1"/>
        <pt x="489" y="887" on="0"/>
        <pt x="400" y="670" on="1"/>
        <pt x="391" y="647" on="0"/>
        <pt x="384" y="634" on="1"/>
        <pt x="492" y="742" on="0"/>
        <pt x="612" y="769" on="1"/>
        <pt x="655" y="779" on="0"/>
        <pt x="663" y="757" on="1"/>
        <pt x="668" y="743" on="0"/>
        <pt x="668" y="726" on="1"/>
        <pt x="668" y="700" on="0"/>
        <pt x="650" y="650" on="1"/>
        <pt x="625" y="584" on="0"/>
        <pt x="524" y="360" on="1"/>
        <pt x="628" y="482" on="0"/>
        <pt x="639" y="494" on="1"/>
        <pt x="713" y="568" on="0"/>
        <pt x="784" y="584" on="1"/>
        <pt x="790" y="585" on="0"/>
        <pt x="795" y="585" on="1"/>
        <pt x="825" y="585" on="0"/>
        <pt x="832" y="545" on="1"/>
        <pt x="837" y="517" on="0"/>
      </contour>
    </TTGlyph>
    <TTGlyph name="N" xMin="31" yMin="-252" xMax="783" yMax="877">
      <contour>
        <pt x="764" y="692" on="1"/>
        <pt x="738" y="578" on="0"/>
        <pt x="652" y="392" on="1"/>
        <pt x="549" y="167" on="0"/>
        <pt x="523" y="92" on="1"/>
        <pt x="495" y="9" on="0"/>
        <pt x="495" y="-61" on="1"/>
        <pt x="495" y="-169" on="0"/>
        <pt x="565" y="-215" on="1"/>
        <pt x="574" y="-220" on="0"/>
        <pt x="569" y="-235" on="1"/>
        <pt x="558" y="-252" on="0"/>
        <pt x="545" y="-246" on="1"/>
        <pt x="514" y="-247" on="0"/>
        <pt x="482" y="-183" on="1"/>
        <pt x="457" y="-133" on="0"/>
        <pt x="457" y="-68" on="1"/>
        <pt x="457" y="-29" on="0"/>
        <pt x="466" y="13" on="1"/>
        <pt x="491" y="126" on="0"/>
        <pt x="697" y="573" on="0"/>
        <pt x="722" y="687" on="1"/>
        <pt x="739" y="764" on="0"/>
        <pt x="712" y="780" on="1"/>
        <pt x="704" y="783" on="0"/>
        <pt x="694" y="774" on="1"/>
        <pt x="639" y="726" on="0"/>
        <pt x="565" y="641" on="1"/>
        <pt x="465" y="526" on="0"/>
        <pt x="301" y="317" on="1"/>
        <pt x="290" y="302" on="0"/>
        <pt x="258" y="256" on="1"/>
        <pt x="206" y="179" on="0"/>
        <pt x="180" y="139" on="1"/>
        <pt x="125" y="54" on="0"/>
        <pt x="98" y="-3" on="1"/>
        <pt x="86" y="-27" on="0"/>
        <pt x="69" y="-25" on="1"/>
        <pt x="52" y="-23" on="0"/>
        <pt x="58" y="-5" on="1"/>
        <pt x="60" y="2" on="0"/>
        <pt x="64" y="13" on="1"/>
        <pt x="147" y="161" on="0"/>
        <pt x="313" y="466" on="1"/>
        <pt x="409" y="649" on="0"/>
        <pt x="409" y="734" on="1"/>
        <pt x="409" y="780" on="0"/>
        <pt x="386" y="811" on="1"/>
        <pt x="349" y="841" on="0"/>
        <pt x="302" y="841" on="1"/>
        <pt x="217" y="841" on="0"/>
        <pt x="121" y="752" on="1"/>
        <pt x="88" y="721" on="0"/>
        <pt x="88" y="688" on="1"/>
        <pt x="88" y="667" on="0"/>
        <pt x="126" y="640" on="0"/>
        <pt x="149" y="640" on="1"/>
        <pt x="161" y="640" on="0"/>
        <pt x="169" y="644" on="1"/>
        <pt x="194" y="656" on="0"/>
        <pt x="233" y="676" on="1"/>
        <pt x="242" y="680" on="0"/>
        <pt x="246" y="671" on="1"/>
        <pt x="249" y="664" on="0"/>
        <pt x="242" y="660" on="1"/>
        <pt x="220" y="638" on="0"/>
        <pt x="172" y="615" on="1"/>
        <pt x="144" y="601" on="0"/>
        <pt x="116" y="601" on="1"/>
        <pt x="79" y="601" on="0"/>
        <pt x="31" y="644" on="0"/>
        <pt x="32" y="678" on="1"/>
        <pt x="33" y="734" on="0"/>
        <pt x="84" y="779" on="1"/>
        <pt x="194" y="877" on="0"/>
        <pt x="311" y="877" on="1"/>
        <pt x="384" y="877" on="0"/>
        <pt x="423" y="829" on="1"/>
        <pt x="444" y="796" on="0"/>
        <pt x="444" y="747" on="1"/>
        <pt x="444" y="633" on="0"/>
        <pt x="300" y="364" on="1"/>
        <pt x="426" y="526" on="0"/>
        <pt x="648" y="782" on="1"/>
        <pt x="670" y="808" on="0"/>
        <pt x="698" y="830" on="1"/>
        <pt x="722" y="849" on="0"/>
        <pt x="746" y="842" on="1"/>
        <pt x="755" y="839" on="0"/>
        <pt x="762" y="824" on="1"/>
        <pt x="783" y="778" on="0"/>
      </contour>
    </TTGlyph>
    <TTGlyph name="Ntilde" xMin="31" yMin="-252" xMax="783" yMax="966">
      <contour>
        <pt x="672" y="885" on="1"/>
        <pt x="643" y="885" on="0"/>
        <pt x="594" y="919" on="0"/>
        <pt x="578" y="919" on="1"/>
        <pt x="545" y="919" on="0"/>
        <pt x="503" y="887" on="1"/>
        <pt x="498" y="883" on="0"/>
        <pt x="492" y="883" on="1"/>
        <pt x="474" y="883" on="0"/>
        <pt x="474" y="901" on="1"/>
        <pt x="474" y="909" on="0"/>
        <pt x="481" y="914" on="1"/>
        <pt x="543" y="961" on="0"/>
        <pt x="578" y="961" on="1"/>
        <pt x="594" y="961" on="0"/>
        <pt x="643" y="925" on="0"/>
        <pt x="672" y="925" on="1"/>
        <pt x="711" y="925" on="0"/>
        <pt x="733" y="956" on="1"/>
        <pt x="740" y="966" on="0"/>
        <pt x="748" y="966" on="1"/>
        <pt x="761" y="966" on="0"/>
        <pt x="761" y="951" on="1"/>
        <pt x="761" y="929" on="0"/>
        <pt x="694" y="885" on="0"/>
      </contour>
      <contour>
        <pt x="764" y="692" on="1"/>
        <pt x="738" y="578" on="0"/>
        <pt x="652" y="392" on="1"/>
        <pt x="549" y="167" on="0"/>
        <pt x="523" y="92" on="1"/>
        <pt x="495" y="9" on="0"/>
        <pt x="495" y="-61" on="1"/>
        <pt x="495" y="-169" on="0"/>
        <pt x="565" y="-215" on="1"/>
        <pt x="574" y="-220" on="0"/>
        <pt x="569" y="-235" on="1"/>
        <pt x="558" y="-252" on="0"/>
        <pt x="545" y="-246" on="1"/>
        <pt x="514" y="-247" on="0"/>
        <pt x="482" y="-183" on="1"/>
        <pt x="457" y="-133" on="0"/>
        <pt x="457" y="-68" on="1"/>
        <pt x="457" y="-29" on="0"/>
        <pt x="466" y="13" on="1"/>
        <pt x="491" y="126" on="0"/>
        <pt x="697" y="573" on="0"/>
        <pt x="722" y="687" on="1"/>
        <pt x="739" y="764" on="0"/>
        <pt x="712" y="780" on="1"/>
        <pt x="704" y="783" on="0"/>
        <pt x="694" y="774" on="1"/>
        <pt x="639" y="726" on="0"/>
        <pt x="565" y="641" on="1"/>
        <pt x="465" y="526" on="0"/>
        <pt x="301" y="317" on="1"/>
        <pt x="290" y="302" on="0"/>
        <pt x="258" y="256" on="1"/>
        <pt x="206" y="179" on="0"/>
        <pt x="180" y="139" on="1"/>
        <pt x="125" y="54" on="0"/>
        <pt x="98" y="-3" on="1"/>
        <pt x="86" y="-27" on="0"/>
        <pt x="69" y="-25" on="1"/>
        <pt x="52" y="-23" on="0"/>
        <pt x="58" y="-5" on="1"/>
        <pt x="60" y="2" on="0"/>
        <pt x="64" y="13" on="1"/>
        <pt x="147" y="161" on="0"/>
        <pt x="313" y="466" on="1"/>
        <pt x="409" y="649" on="0"/>
        <pt x="409" y="734" on="1"/>
        <pt x="409" y="780" on="0"/>
        <pt x="386" y="811" on="1"/>
        <pt x="349" y="841" on="0"/>
        <pt x="302" y="841" on="1"/>
        <pt x="217" y="841" on="0"/>
        <pt x="121" y="752" on="1"/>
        <pt x="88" y="721" on="0"/>
        <pt x="88" y="688" on="1"/>
        <pt x="88" y="667" on="0"/>
        <pt x="126" y="640" on="0"/>
        <pt x="149" y="640" on="1"/>
        <pt x="161" y="640" on="0"/>
        <pt x="169" y="644" on="1"/>
        <pt x="194" y="656" on="0"/>
        <pt x="233" y="676" on="1"/>
        <pt x="242" y="680" on="0"/>
        <pt x="246" y="671" on="1"/>
        <pt x="249" y="664" on="0"/>
        <pt x="242" y="660" on="1"/>
        <pt x="220" y="638" on="0"/>
        <pt x="172" y="615" on="1"/>
        <pt x="144" y="601" on="0"/>
        <pt x="116" y="601" on="1"/>
        <pt x="79" y="601" on="0"/>
        <pt x="31" y="644" on="0"/>
        <pt x="32" y="678" on="1"/>
        <pt x="33" y="734" on="0"/>
        <pt x="84" y="779" on="1"/>
        <pt x="194" y="877" on="0"/>
        <pt x="311" y="877" on="1"/>
        <pt x="384" y="877" on="0"/>
        <pt x="423" y="829" on="1"/>
        <pt x="444" y="796" on="0"/>
        <pt x="444" y="747" on="1"/>
        <pt x="444" y="633" on="0"/>
        <pt x="300" y="364" on="1"/>
        <pt x="426" y="526" on="0"/>
        <pt x="648" y="782" on="1"/>
        <pt x="670" y="808" on="0"/>
        <pt x="698" y="830" on="1"/>
        <pt x="722" y="849" on="0"/>
        <pt x="746" y="842" on="1"/>
        <pt x="755" y="839" on="0"/>
        <pt x="762" y="824" on="1"/>
        <pt x="783" y="778" on="0"/>
      </contour>
    </TTGlyph>
    <TTGlyph name="O" xMin="36" yMin="-30" xMax="845" yMax="857">
      <contour>
        <pt x="840" y="820" on="1"/>
        <pt x="827" y="793" on="0"/>
        <pt x="790" y="767" on="1"/>
        <pt x="776" y="756" on="0"/>
        <pt x="748" y="734" on="1"/>
        <pt x="754" y="656" on="0"/>
        <pt x="718" y="568" on="1"/>
        <pt x="649" y="401" on="0"/>
        <pt x="555" y="270" on="1"/>
        <pt x="416" y="77" on="0"/>
        <pt x="198" y="-12" on="1"/>
        <pt x="155" y="-30" on="0"/>
        <pt x="119" y="-30" on="1"/>
        <pt x="69" y="-30" on="0"/>
        <pt x="36" y="40" on="0"/>
        <pt x="36" y="80" on="1"/>
        <pt x="36" y="139" on="0"/>
        <pt x="72" y="220" on="1"/>
        <pt x="208" y="525" on="0"/>
        <pt x="439" y="700" on="1"/>
        <pt x="437" y="707" on="0"/>
        <pt x="437" y="714" on="1"/>
        <pt x="437" y="769" on="0"/>
        <pt x="492" y="809" on="1"/>
        <pt x="558" y="857" on="0"/>
        <pt x="623" y="855" on="1"/>
        <pt x="696" y="853" on="0"/>
        <pt x="724" y="810" on="1"/>
        <pt x="739" y="787" on="0"/>
        <pt x="745" y="757" on="1"/>
        <pt x="787" y="788" on="0"/>
        <pt x="822" y="826" on="1"/>
        <pt x="829" y="833" on="0"/>
        <pt x="834" y="832" on="1"/>
        <pt x="845" y="830" on="0"/>
      </contour>
      <contour>
        <pt x="646" y="818" on="1"/>
        <pt x="631" y="822" on="0"/>
        <pt x="612" y="824" on="1"/>
        <pt x="571" y="828" on="0"/>
        <pt x="533" y="802" on="1"/>
        <pt x="489" y="771" on="0"/>
        <pt x="487" y="734" on="1"/>
        <pt x="562" y="785" on="0"/>
      </contour>
      <contour>
        <pt x="707" y="730" on="1"/>
        <pt x="704" y="763" on="0"/>
        <pt x="694" y="784" on="1"/>
        <pt x="687" y="800" on="0"/>
        <pt x="668" y="810" on="1"/>
        <pt x="581" y="775" on="0"/>
        <pt x="493" y="711" on="1"/>
        <pt x="512" y="679" on="0"/>
        <pt x="581" y="680" on="1"/>
        <pt x="619" y="681" on="0"/>
        <pt x="652" y="698" on="1"/>
        <pt x="682" y="714" on="0"/>
      </contour>
      <contour>
        <pt x="708" y="704" on="1"/>
        <pt x="643" y="656" on="0"/>
        <pt x="581" y="651" on="1"/>
        <pt x="482" y="643" on="0"/>
        <pt x="451" y="678" on="1"/>
        <pt x="372" y="614" on="0"/>
        <pt x="280" y="500" on="1"/>
        <pt x="209" y="412" on="0"/>
        <pt x="137" y="273" on="1"/>
        <pt x="86" y="174" on="0"/>
        <pt x="86" y="86" on="1"/>
        <pt x="86" y="44" on="0"/>
        <pt x="120" y="17" on="0"/>
        <pt x="148" y="17" on="1"/>
        <pt x="178" y="17" on="0"/>
        <pt x="214" y="33" on="1"/>
        <pt x="407" y="117" on="0"/>
        <pt x="527" y="288" on="1"/>
        <pt x="672" y="494" on="0"/>
        <pt x="707" y="687" on="1"/>
        <pt x="708" y="692" on="0"/>
      </contour>
    </TTGlyph>
    <TTGlyph name="OE" xMin="36" yMin="-71" xMax="1320" yMax="942">
      <contour>
        <pt x="1317" y="933" on="1"/>
        <pt x="1320" y="923" on="0"/>
        <pt x="1310" y="921" on="1"/>
        <pt x="1223" y="912" on="0"/>
        <pt x="1147" y="833" on="1"/>
        <pt x="1208" y="813" on="0"/>
        <pt x="1213" y="755" on="1"/>
        <pt x="1213" y="733" on="0"/>
        <pt x="1196" y="718" on="1"/>
        <pt x="1159" y="694" on="0"/>
        <pt x="1136" y="694" on="1"/>
        <pt x="1122" y="694" on="0"/>
        <pt x="1107" y="699" on="1"/>
        <pt x="1061" y="715" on="0"/>
        <pt x="1076" y="770" on="1"/>
        <pt x="1082" y="782" on="0"/>
        <pt x="1092" y="804" on="1"/>
        <pt x="1045" y="806" on="0"/>
        <pt x="1017" y="792" on="1"/>
        <pt x="790" y="679" on="0"/>
        <pt x="790" y="544" on="1"/>
        <pt x="790" y="517" on="0"/>
        <pt x="800" y="490" on="1"/>
        <pt x="877" y="531" on="0"/>
        <pt x="945" y="537" on="1"/>
        <pt x="1008" y="543" on="0"/>
        <pt x="1032" y="503" on="1"/>
        <pt x="1041" y="491" on="0"/>
        <pt x="1038" y="471" on="1"/>
        <pt x="1034" y="455" on="0"/>
        <pt x="1023" y="444" on="1"/>
        <pt x="975" y="394" on="0"/>
        <pt x="901" y="394" on="1"/>
        <pt x="830" y="394" on="0"/>
        <pt x="788" y="442" on="1"/>
        <pt x="644" y="361" on="0"/>
        <pt x="548" y="239" on="1"/>
        <pt x="500" y="177" on="0"/>
        <pt x="500" y="103" on="1"/>
        <pt x="500" y="45" on="0"/>
        <pt x="534" y="-1" on="1"/>
        <pt x="562" y="-30" on="0"/>
        <pt x="636" y="-30" on="1"/>
        <pt x="655" y="-30" on="0"/>
        <pt x="668" y="-27" on="1"/>
        <pt x="788" y="4" on="0"/>
        <pt x="890" y="76" on="1"/>
        <pt x="926" y="101" on="0"/>
        <pt x="1068" y="224" on="1"/>
        <pt x="1073" y="231" on="0"/>
        <pt x="1084" y="225" on="1"/>
        <pt x="1088" y="215" on="0"/>
        <pt x="1083" y="209" on="1"/>
        <pt x="822" y="-71" on="0"/>
        <pt x="604" y="-71" on="1"/>
        <pt x="572" y="-71" on="0"/>
        <pt x="500" y="-44" on="0"/>
        <pt x="490" y="-31" on="1"/>
        <pt x="450" y="24" on="0"/>
        <pt x="450" y="89" on="1"/>
        <pt x="450" y="125" on="0"/>
        <pt x="462" y="163" on="1"/>
        <pt x="345" y="47" on="0"/>
        <pt x="198" y="-12" on="1"/>
        <pt x="154" y="-30" on="0"/>
        <pt x="119" y="-30" on="1"/>
        <pt x="69" y="-30" on="0"/>
        <pt x="36" y="40" on="0"/>
        <pt x="36" y="80" on="1"/>
        <pt x="36" y="139" on="0"/>
        <pt x="72" y="220" on="1"/>
        <pt x="208" y="525" on="0"/>
        <pt x="439" y="700" on="1"/>
        <pt x="437" y="707" on="0"/>
        <pt x="437" y="714" on="1"/>
        <pt x="437" y="769" on="0"/>
        <pt x="492" y="809" on="1"/>
        <pt x="558" y="857" on="0"/>
        <pt x="623" y="855" on="1"/>
        <pt x="696" y="853" on="0"/>
        <pt x="724" y="810" on="1"/>
        <pt x="739" y="787" on="0"/>
        <pt x="745" y="757" on="1"/>
        <pt x="787" y="788" on="0"/>
        <pt x="822" y="826" on="1"/>
        <pt x="829" y="833" on="0"/>
        <pt x="834" y="832" on="1"/>
        <pt x="845" y="830" on="0"/>
        <pt x="840" y="820" on="1"/>
        <pt x="827" y="793" on="0"/>
        <pt x="790" y="767" on="1"/>
        <pt x="776" y="756" on="0"/>
        <pt x="748" y="734" on="1"/>
        <pt x="754" y="656" on="0"/>
        <pt x="718" y="568" on="1"/>
        <pt x="674" y="461" on="0"/>
        <pt x="618" y="367" on="1"/>
        <pt x="619" y="367" on="0"/>
        <pt x="621" y="369" on="1"/>
        <pt x="708" y="436" on="0"/>
        <pt x="769" y="472" on="1"/>
        <pt x="755" y="501" on="0"/>
        <pt x="755" y="536" on="1"/>
        <pt x="755" y="609" on="0"/>
        <pt x="805" y="673" on="1"/>
        <pt x="878" y="767" on="0"/>
        <pt x="1006" y="822" on="1"/>
        <pt x="1060" y="845" on="0"/>
        <pt x="1118" y="839" on="1"/>
        <pt x="1187" y="912" on="0"/>
        <pt x="1297" y="938" on="1"/>
        <pt x="1315" y="942" on="0"/>
      </contour>
      <contour>
        <pt x="646" y="818" on="1"/>
        <pt x="631" y="822" on="0"/>
        <pt x="612" y="824" on="1"/>
        <pt x="571" y="828" on="0"/>
        <pt x="533" y="802" on="1"/>
        <pt x="489" y="771" on="0"/>
        <pt x="487" y="734" on="1"/>
        <pt x="562" y="785" on="0"/>
      </contour>
      <contour>
        <pt x="1178" y="769" on="1"/>
        <pt x="1163" y="795" on="0"/>
        <pt x="1120" y="801" on="1"/>
        <pt x="1119" y="800" on="1"/>
        <pt x="1105" y="781" on="0"/>
        <pt x="1105" y="758" on="1"/>
        <pt x="1105" y="731" on="0"/>
        <pt x="1133" y="725" on="1"/>
        <pt x="1155" y="721" on="0"/>
        <pt x="1176" y="742" on="1"/>
        <pt x="1186" y="755" on="0"/>
      </contour>
      <contour>
        <pt x="707" y="730" on="1"/>
        <pt x="704" y="763" on="0"/>
        <pt x="694" y="784" on="1"/>
        <pt x="687" y="800" on="0"/>
        <pt x="668" y="810" on="1"/>
        <pt x="581" y="775" on="0"/>
        <pt x="493" y="711" on="1"/>
        <pt x="512" y="679" on="0"/>
        <pt x="581" y="680" on="1"/>
        <pt x="619" y="681" on="0"/>
        <pt x="652" y="698" on="1"/>
        <pt x="682" y="714" on="0"/>
      </contour>
      <contour>
        <pt x="987" y="476" on="1"/>
        <pt x="984" y="490" on="0"/>
        <pt x="975" y="492" on="1"/>
        <pt x="924" y="506" on="0"/>
        <pt x="875" y="485" on="1"/>
        <pt x="857" y="478" on="0"/>
        <pt x="818" y="458" on="1"/>
        <pt x="852" y="426" on="0"/>
        <pt x="899" y="426" on="1"/>
        <pt x="943" y="426" on="0"/>
        <pt x="979" y="455" on="1"/>
        <pt x="988" y="463" on="0"/>
      </contour>
      <contour>
        <pt x="708" y="704" on="1"/>
        <pt x="643" y="656" on="0"/>
        <pt x="581" y="651" on="1"/>
        <pt x="482" y="643" on="0"/>
        <pt x="451" y="678" on="1"/>
        <pt x="372" y="614" on="0"/>
        <pt x="280" y="500" on="1"/>
        <pt x="209" y="412" on="0"/>
        <pt x="137" y="273" on="1"/>
        <pt x="86" y="174" on="0"/>
        <pt x="86" y="86" on="1"/>
        <pt x="86" y="44" on="0"/>
        <pt x="120" y="17" on="0"/>
        <pt x="148" y="17" on="1"/>
        <pt x="178" y="17" on="0"/>
        <pt x="214" y="33" on="1"/>
        <pt x="407" y="117" on="0"/>
        <pt x="527" y="288" on="1"/>
        <pt x="672" y="494" on="0"/>
        <pt x="707" y="687" on="1"/>
        <pt x="708" y="692" on="0"/>
      </contour>
    </TTGlyph>
    <TTGlyph name="Oacute" xMin="36" yMin="-30" xMax="886" yMax="1058">
      <contour>
        <pt x="881" y="1018" on="1"/>
        <pt x="802" y="951" on="0"/>
        <pt x="698" y="885" on="1"/>
        <pt x="689" y="879" on="0"/>
        <pt x="686" y="886" on="1"/>
        <pt x="682" y="893" on="0"/>
        <pt x="690" y="900" on="1"/>
        <pt x="740" y="950" on="0"/>
        <pt x="845" y="1055" on="1"/>
        <pt x="849" y="1058" on="0"/>
        <pt x="855" y="1058" on="1"/>
        <pt x="866" y="1058" on="0"/>
        <pt x="886" y="1039" on="0"/>
        <pt x="886" y="1028" on="1"/>
        <pt x="886" y="1022" on="0"/>
      </contour>
      <contour>
        <pt x="840" y="820" on="1"/>
        <pt x="827" y="793" on="0"/>
        <pt x="790" y="767" on="1"/>
        <pt x="776" y="756" on="0"/>
        <pt x="748" y="734" on="1"/>
        <pt x="754" y="656" on="0"/>
        <pt x="718" y="568" on="1"/>
        <pt x="649" y="401" on="0"/>
        <pt x="555" y="270" on="1"/>
        <pt x="416" y="77" on="0"/>
        <pt x="198" y="-12" on="1"/>
        <pt x="155" y="-30" on="0"/>
        <pt x="119" y="-30" on="1"/>
        <pt x="69" y="-30" on="0"/>
        <pt x="36" y="40" on="0"/>
        <pt x="36" y="80" on="1"/>
        <pt x="36" y="139" on="0"/>
        <pt x="72" y="220" on="1"/>
        <pt x="208" y="525" on="0"/>
        <pt x="439" y="700" on="1"/>
        <pt x="437" y="707" on="0"/>
        <pt x="437" y="714" on="1"/>
        <pt x="437" y="769" on="0"/>
        <pt x="492" y="809" on="1"/>
        <pt x="558" y="857" on="0"/>
        <pt x="623" y="855" on="1"/>
        <pt x="696" y="853" on="0"/>
        <pt x="724" y="810" on="1"/>
        <pt x="739" y="787" on="0"/>
        <pt x="745" y="757" on="1"/>
        <pt x="787" y="788" on="0"/>
        <pt x="822" y="826" on="1"/>
        <pt x="829" y="833" on="0"/>
        <pt x="834" y="832" on="1"/>
        <pt x="845" y="830" on="0"/>
      </contour>
      <contour>
        <pt x="646" y="818" on="1"/>
        <pt x="631" y="822" on="0"/>
        <pt x="612" y="824" on="1"/>
        <pt x="571" y="828" on="0"/>
        <pt x="533" y="802" on="1"/>
        <pt x="489" y="771" on="0"/>
        <pt x="487" y="734" on="1"/>
        <pt x="562" y="785" on="0"/>
      </contour>
      <contour>
        <pt x="707" y="730" on="1"/>
        <pt x="704" y="763" on="0"/>
        <pt x="694" y="784" on="1"/>
        <pt x="687" y="800" on="0"/>
        <pt x="668" y="810" on="1"/>
        <pt x="581" y="775" on="0"/>
        <pt x="493" y="711" on="1"/>
        <pt x="512" y="679" on="0"/>
        <pt x="581" y="680" on="1"/>
        <pt x="619" y="681" on="0"/>
        <pt x="652" y="698" on="1"/>
        <pt x="682" y="714" on="0"/>
      </contour>
      <contour>
        <pt x="708" y="704" on="1"/>
        <pt x="643" y="656" on="0"/>
        <pt x="581" y="651" on="1"/>
        <pt x="482" y="643" on="0"/>
        <pt x="451" y="678" on="1"/>
        <pt x="372" y="614" on="0"/>
        <pt x="280" y="500" on="1"/>
        <pt x="209" y="412" on="0"/>
        <pt x="137" y="273" on="1"/>
        <pt x="86" y="174" on="0"/>
        <pt x="86" y="86" on="1"/>
        <pt x="86" y="44" on="0"/>
        <pt x="120" y="17" on="0"/>
        <pt x="148" y="17" on="1"/>
        <pt x="178" y="17" on="0"/>
        <pt x="214" y="33" on="1"/>
        <pt x="407" y="117" on="0"/>
        <pt x="527" y="288" on="1"/>
        <pt x="672" y="494" on="0"/>
        <pt x="707" y="687" on="1"/>
        <pt x="708" y="692" on="0"/>
      </contour>
    </TTGlyph>
    <TTGlyph name="Ocircumflex" xMin="36" yMin="-30" xMax="845" yMax="997">
      <contour>
        <pt x="795" y="909" on="1"/>
        <pt x="801" y="902" on="0"/>
        <pt x="801" y="892" on="1"/>
        <pt x="801" y="872" on="0"/>
        <pt x="786" y="872" on="1"/>
        <pt x="781" y="872" on="0"/>
        <pt x="772" y="878" on="0"/>
        <pt x="741" y="911" on="1"/>
        <pt x="714" y="941" on="0"/>
        <pt x="705" y="941" on="1"/>
        <pt x="679" y="941" on="0"/>
        <pt x="540" y="876" on="1"/>
        <pt x="525" y="871" on="0"/>
        <pt x="525" y="888" on="1"/>
        <pt x="525" y="897" on="0"/>
        <pt x="534" y="902" on="1"/>
        <pt x="556" y="913" on="0"/>
        <pt x="636" y="964" on="1"/>
        <pt x="689" y="997" on="0"/>
        <pt x="713" y="997" on="1"/>
        <pt x="724" y="997" on="0"/>
        <pt x="757" y="957" on="1"/>
        <pt x="776" y="933" on="0"/>
      </contour>
      <contour>
        <pt x="840" y="820" on="1"/>
        <pt x="827" y="793" on="0"/>
        <pt x="790" y="767" on="1"/>
        <pt x="776" y="756" on="0"/>
        <pt x="748" y="734" on="1"/>
        <pt x="754" y="656" on="0"/>
        <pt x="718" y="568" on="1"/>
        <pt x="649" y="401" on="0"/>
        <pt x="555" y="270" on="1"/>
        <pt x="416" y="77" on="0"/>
        <pt x="198" y="-12" on="1"/>
        <pt x="155" y="-30" on="0"/>
        <pt x="119" y="-30" on="1"/>
        <pt x="69" y="-30" on="0"/>
        <pt x="36" y="40" on="0"/>
        <pt x="36" y="80" on="1"/>
        <pt x="36" y="139" on="0"/>
        <pt x="72" y="220" on="1"/>
        <pt x="208" y="525" on="0"/>
        <pt x="439" y="700" on="1"/>
        <pt x="437" y="707" on="0"/>
        <pt x="437" y="714" on="1"/>
        <pt x="437" y="769" on="0"/>
        <pt x="492" y="809" on="1"/>
        <pt x="558" y="857" on="0"/>
        <pt x="623" y="855" on="1"/>
        <pt x="696" y="853" on="0"/>
        <pt x="724" y="810" on="1"/>
        <pt x="739" y="787" on="0"/>
        <pt x="745" y="757" on="1"/>
        <pt x="787" y="788" on="0"/>
        <pt x="822" y="826" on="1"/>
        <pt x="829" y="833" on="0"/>
        <pt x="834" y="832" on="1"/>
        <pt x="845" y="830" on="0"/>
      </contour>
      <contour>
        <pt x="646" y="818" on="1"/>
        <pt x="631" y="822" on="0"/>
        <pt x="612" y="824" on="1"/>
        <pt x="571" y="828" on="0"/>
        <pt x="533" y="802" on="1"/>
        <pt x="489" y="771" on="0"/>
        <pt x="487" y="734" on="1"/>
        <pt x="562" y="785" on="0"/>
      </contour>
      <contour>
        <pt x="707" y="730" on="1"/>
        <pt x="704" y="763" on="0"/>
        <pt x="694" y="784" on="1"/>
        <pt x="687" y="800" on="0"/>
        <pt x="668" y="810" on="1"/>
        <pt x="581" y="775" on="0"/>
        <pt x="493" y="711" on="1"/>
        <pt x="512" y="679" on="0"/>
        <pt x="581" y="680" on="1"/>
        <pt x="619" y="681" on="0"/>
        <pt x="652" y="698" on="1"/>
        <pt x="682" y="714" on="0"/>
      </contour>
      <contour>
        <pt x="708" y="704" on="1"/>
        <pt x="643" y="656" on="0"/>
        <pt x="581" y="651" on="1"/>
        <pt x="482" y="643" on="0"/>
        <pt x="451" y="678" on="1"/>
        <pt x="372" y="614" on="0"/>
        <pt x="280" y="500" on="1"/>
        <pt x="209" y="412" on="0"/>
        <pt x="137" y="273" on="1"/>
        <pt x="86" y="174" on="0"/>
        <pt x="86" y="86" on="1"/>
        <pt x="86" y="44" on="0"/>
        <pt x="120" y="17" on="0"/>
        <pt x="148" y="17" on="1"/>
        <pt x="178" y="17" on="0"/>
        <pt x="214" y="33" on="1"/>
        <pt x="407" y="117" on="0"/>
        <pt x="527" y="288" on="1"/>
        <pt x="672" y="494" on="0"/>
        <pt x="707" y="687" on="1"/>
        <pt x="708" y="692" on="0"/>
      </contour>
    </TTGlyph>
    <TTGlyph name="Odieresis" xMin="36" yMin="-30" xMax="845" yMax="986">
      <contour>
        <pt x="802" y="952" on="1"/>
        <pt x="802" y="939" on="0"/>
        <pt x="765" y="894" on="0"/>
        <pt x="755" y="894" on="1"/>
        <pt x="737" y="894" on="0"/>
        <pt x="734" y="908" on="1"/>
        <pt x="730" y="928" on="0"/>
        <pt x="762" y="976" on="0"/>
        <pt x="786" y="982" on="1"/>
        <pt x="802" y="986" on="0"/>
      </contour>
      <contour>
        <pt x="670" y="952" on="1"/>
        <pt x="670" y="939" on="0"/>
        <pt x="634" y="894" on="0"/>
        <pt x="624" y="894" on="1"/>
        <pt x="604" y="894" on="0"/>
        <pt x="603" y="908" on="1"/>
        <pt x="599" y="928" on="0"/>
        <pt x="630" y="976" on="0"/>
        <pt x="655" y="982" on="1"/>
        <pt x="670" y="986" on="0"/>
      </contour>
      <contour>
        <pt x="840" y="820" on="1"/>
        <pt x="827" y="793" on="0"/>
        <pt x="790" y="767" on="1"/>
        <pt x="776" y="756" on="0"/>
        <pt x="748" y="734" on="1"/>
        <pt x="754" y="656" on="0"/>
        <pt x="718" y="568" on="1"/>
        <pt x="649" y="401" on="0"/>
        <pt x="555" y="270" on="1"/>
        <pt x="416" y="77" on="0"/>
        <pt x="198" y="-12" on="1"/>
        <pt x="155" y="-30" on="0"/>
        <pt x="119" y="-30" on="1"/>
        <pt x="69" y="-30" on="0"/>
        <pt x="36" y="40" on="0"/>
        <pt x="36" y="80" on="1"/>
        <pt x="36" y="139" on="0"/>
        <pt x="72" y="220" on="1"/>
        <pt x="208" y="525" on="0"/>
        <pt x="439" y="700" on="1"/>
        <pt x="437" y="707" on="0"/>
        <pt x="437" y="714" on="1"/>
        <pt x="437" y="769" on="0"/>
        <pt x="492" y="809" on="1"/>
        <pt x="558" y="857" on="0"/>
        <pt x="623" y="855" on="1"/>
        <pt x="696" y="853" on="0"/>
        <pt x="724" y="810" on="1"/>
        <pt x="739" y="787" on="0"/>
        <pt x="745" y="757" on="1"/>
        <pt x="787" y="788" on="0"/>
        <pt x="822" y="826" on="1"/>
        <pt x="829" y="833" on="0"/>
        <pt x="834" y="832" on="1"/>
        <pt x="845" y="830" on="0"/>
      </contour>
      <contour>
        <pt x="646" y="818" on="1"/>
        <pt x="631" y="822" on="0"/>
        <pt x="612" y="824" on="1"/>
        <pt x="571" y="828" on="0"/>
        <pt x="533" y="802" on="1"/>
        <pt x="489" y="771" on="0"/>
        <pt x="487" y="734" on="1"/>
        <pt x="562" y="785" on="0"/>
      </contour>
      <contour>
        <pt x="707" y="730" on="1"/>
        <pt x="704" y="763" on="0"/>
        <pt x="694" y="784" on="1"/>
        <pt x="687" y="800" on="0"/>
        <pt x="668" y="810" on="1"/>
        <pt x="581" y="775" on="0"/>
        <pt x="493" y="711" on="1"/>
        <pt x="512" y="679" on="0"/>
        <pt x="581" y="680" on="1"/>
        <pt x="619" y="681" on="0"/>
        <pt x="652" y="698" on="1"/>
        <pt x="682" y="714" on="0"/>
      </contour>
      <contour>
        <pt x="708" y="704" on="1"/>
        <pt x="643" y="656" on="0"/>
        <pt x="581" y="651" on="1"/>
        <pt x="482" y="643" on="0"/>
        <pt x="451" y="678" on="1"/>
        <pt x="372" y="614" on="0"/>
        <pt x="280" y="500" on="1"/>
        <pt x="209" y="412" on="0"/>
        <pt x="137" y="273" on="1"/>
        <pt x="86" y="174" on="0"/>
        <pt x="86" y="86" on="1"/>
        <pt x="86" y="44" on="0"/>
        <pt x="120" y="17" on="0"/>
        <pt x="148" y="17" on="1"/>
        <pt x="178" y="17" on="0"/>
        <pt x="214" y="33" on="1"/>
        <pt x="407" y="117" on="0"/>
        <pt x="527" y="288" on="1"/>
        <pt x="672" y="494" on="0"/>
        <pt x="707" y="687" on="1"/>
        <pt x="708" y="692" on="0"/>
      </contour>
    </TTGlyph>
    <TTGlyph name="Ograve" xMin="36" yMin="-30" xMax="845" yMax="1092">
      <contour>
        <pt x="683" y="894" on="1"/>
        <pt x="689" y="885" on="0"/>
        <pt x="684" y="880" on="1"/>
        <pt x="679" y="874" on="0"/>
        <pt x="671" y="881" on="1"/>
        <pt x="580" y="987" on="0"/>
        <pt x="532" y="1060" on="1"/>
        <pt x="530" y="1063" on="0"/>
        <pt x="530" y="1067" on="1"/>
        <pt x="530" y="1092" on="0"/>
        <pt x="562" y="1092" on="1"/>
        <pt x="572" y="1092" on="0"/>
        <pt x="576" y="1085" on="1"/>
        <pt x="612" y="1015" on="0"/>
      </contour>
      <contour>
        <pt x="840" y="820" on="1"/>
        <pt x="827" y="793" on="0"/>
        <pt x="790" y="767" on="1"/>
        <pt x="776" y="756" on="0"/>
        <pt x="748" y="734" on="1"/>
        <pt x="754" y="656" on="0"/>
        <pt x="718" y="568" on="1"/>
        <pt x="649" y="401" on="0"/>
        <pt x="555" y="270" on="1"/>
        <pt x="416" y="77" on="0"/>
        <pt x="198" y="-12" on="1"/>
        <pt x="155" y="-30" on="0"/>
        <pt x="119" y="-30" on="1"/>
        <pt x="69" y="-30" on="0"/>
        <pt x="36" y="40" on="0"/>
        <pt x="36" y="80" on="1"/>
        <pt x="36" y="139" on="0"/>
        <pt x="72" y="220" on="1"/>
        <pt x="208" y="525" on="0"/>
        <pt x="439" y="700" on="1"/>
        <pt x="437" y="707" on="0"/>
        <pt x="437" y="714" on="1"/>
        <pt x="437" y="769" on="0"/>
        <pt x="492" y="809" on="1"/>
        <pt x="558" y="857" on="0"/>
        <pt x="623" y="855" on="1"/>
        <pt x="696" y="853" on="0"/>
        <pt x="724" y="810" on="1"/>
        <pt x="739" y="787" on="0"/>
        <pt x="745" y="757" on="1"/>
        <pt x="787" y="788" on="0"/>
        <pt x="822" y="826" on="1"/>
        <pt x="829" y="833" on="0"/>
        <pt x="834" y="832" on="1"/>
        <pt x="845" y="830" on="0"/>
      </contour>
      <contour>
        <pt x="646" y="818" on="1"/>
        <pt x="631" y="822" on="0"/>
        <pt x="612" y="824" on="1"/>
        <pt x="571" y="828" on="0"/>
        <pt x="533" y="802" on="1"/>
        <pt x="489" y="771" on="0"/>
        <pt x="487" y="734" on="1"/>
        <pt x="562" y="785" on="0"/>
      </contour>
      <contour>
        <pt x="707" y="730" on="1"/>
        <pt x="704" y="763" on="0"/>
        <pt x="694" y="784" on="1"/>
        <pt x="687" y="800" on="0"/>
        <pt x="668" y="810" on="1"/>
        <pt x="581" y="775" on="0"/>
        <pt x="493" y="711" on="1"/>
        <pt x="512" y="679" on="0"/>
        <pt x="581" y="680" on="1"/>
        <pt x="619" y="681" on="0"/>
        <pt x="652" y="698" on="1"/>
        <pt x="682" y="714" on="0"/>
      </contour>
      <contour>
        <pt x="708" y="704" on="1"/>
        <pt x="643" y="656" on="0"/>
        <pt x="581" y="651" on="1"/>
        <pt x="482" y="643" on="0"/>
        <pt x="451" y="678" on="1"/>
        <pt x="372" y="614" on="0"/>
        <pt x="280" y="500" on="1"/>
        <pt x="209" y="412" on="0"/>
        <pt x="137" y="273" on="1"/>
        <pt x="86" y="174" on="0"/>
        <pt x="86" y="86" on="1"/>
        <pt x="86" y="44" on="0"/>
        <pt x="120" y="17" on="0"/>
        <pt x="148" y="17" on="1"/>
        <pt x="178" y="17" on="0"/>
        <pt x="214" y="33" on="1"/>
        <pt x="407" y="117" on="0"/>
        <pt x="527" y="288" on="1"/>
        <pt x="672" y="494" on="0"/>
        <pt x="707" y="687" on="1"/>
        <pt x="708" y="692" on="0"/>
      </contour>
    </TTGlyph>
    <TTGlyph name="Omega" xMin="191" yMin="-2" xMax="1113" yMax="900">
      <contour>
        <pt x="1113" y="-2" on="1"/>
        <pt x="723" y="-2" on="1"/>
        <pt x="749" y="197" on="1"/>
        <pt x="820" y="231" on="0"/>
        <pt x="855" y="271" on="1"/>
        <pt x="932" y="358" on="0"/>
        <pt x="932" y="515" on="1"/>
        <pt x="932" y="643" on="0"/>
        <pt x="887" y="728" on="1"/>
        <pt x="818" y="861" on="0"/>
        <pt x="654" y="861" on="1"/>
        <pt x="486" y="861" on="0"/>
        <pt x="416" y="728" on="1"/>
        <pt x="372" y="644" on="0"/>
        <pt x="372" y="515" on="1"/>
        <pt x="372" y="278" on="0"/>
        <pt x="560" y="197" on="1"/>
        <pt x="579" y="-2" on="1"/>
        <pt x="192" y="-2" on="1"/>
        <pt x="191" y="212" on="1"/>
        <pt x="213" y="212" on="1"/>
        <pt x="223" y="166" on="0"/>
        <pt x="256" y="134" on="0"/>
        <pt x="299" y="134" on="1"/>
        <pt x="506" y="134" on="1"/>
        <pt x="504" y="168" on="1"/>
        <pt x="395" y="199" on="0"/>
        <pt x="322" y="266" on="1"/>
        <pt x="216" y="363" on="0"/>
        <pt x="216" y="515" on="1"/>
        <pt x="216" y="661" on="0"/>
        <pt x="315" y="769" on="1"/>
        <pt x="435" y="900" on="0"/>
        <pt x="656" y="900" on="1"/>
        <pt x="864" y="900" on="0"/>
        <pt x="984" y="775" on="1"/>
        <pt x="1089" y="666" on="0"/>
        <pt x="1088" y="515" on="1"/>
        <pt x="1087" y="363" on="0"/>
        <pt x="983" y="266" on="1"/>
        <pt x="910" y="198" on="0"/>
        <pt x="801" y="168" on="1"/>
        <pt x="800" y="134" on="1"/>
        <pt x="1008" y="134" on="1"/>
        <pt x="1049" y="134" on="0"/>
        <pt x="1066" y="152" on="1"/>
        <pt x="1081" y="167" on="0"/>
        <pt x="1091" y="212" on="1"/>
        <pt x="1113" y="212" on="1"/>
      </contour>
    </TTGlyph>
    <TTGlyph name="Oslash" xMin="-106" yMin="-82" xMax="915" yMax="857">
      <contour>
        <pt x="910" y="785" on="1"/>
        <pt x="861" y="742" on="0"/>
        <pt x="739" y="634" on="1"/>
        <pt x="731" y="600" on="0"/>
        <pt x="718" y="568" on="1"/>
        <pt x="650" y="402" on="0"/>
        <pt x="555" y="270" on="1"/>
        <pt x="416" y="77" on="0"/>
        <pt x="198" y="-12" on="1"/>
        <pt x="155" y="-30" on="0"/>
        <pt x="119" y="-30" on="1"/>
        <pt x="69" y="-30" on="0"/>
        <pt x="52" y="6" on="1"/>
        <pt x="50" y="12" on="0"/>
        <pt x="44" y="25" on="1"/>
        <pt x="-56" y="-59" on="0"/>
        <pt x="-76" y="-77" on="1"/>
        <pt x="-81" y="-82" on="0"/>
        <pt x="-87" y="-82" on="1"/>
        <pt x="-106" y="-82" on="0"/>
        <pt x="-106" y="-63" on="1"/>
        <pt x="-106" y="-55" on="0"/>
        <pt x="-99" y="-50" on="1"/>
        <pt x="-63" y="-19" on="0"/>
        <pt x="36" y="65" on="1"/>
        <pt x="32" y="131" on="0"/>
        <pt x="72" y="220" on="1"/>
        <pt x="210" y="526" on="0"/>
        <pt x="439" y="700" on="1"/>
        <pt x="437" y="707" on="0"/>
        <pt x="437" y="714" on="1"/>
        <pt x="437" y="769" on="0"/>
        <pt x="492" y="809" on="1"/>
        <pt x="558" y="857" on="0"/>
        <pt x="623" y="855" on="1"/>
        <pt x="696" y="853" on="0"/>
        <pt x="724" y="810" on="1"/>
        <pt x="739" y="787" on="0"/>
        <pt x="745" y="757" on="1"/>
        <pt x="787" y="788" on="0"/>
        <pt x="822" y="826" on="1"/>
        <pt x="829" y="833" on="0"/>
        <pt x="834" y="832" on="1"/>
        <pt x="845" y="830" on="0"/>
        <pt x="840" y="820" on="1"/>
        <pt x="827" y="793" on="0"/>
        <pt x="790" y="767" on="1"/>
        <pt x="776" y="756" on="0"/>
        <pt x="748" y="734" on="1"/>
        <pt x="750" y="706" on="0"/>
        <pt x="747" y="684" on="1"/>
        <pt x="832" y="756" on="0"/>
        <pt x="889" y="806" on="1"/>
        <pt x="894" y="810" on="0"/>
        <pt x="900" y="810" on="1"/>
        <pt x="915" y="810" on="0"/>
        <pt x="915" y="795" on="1"/>
        <pt x="915" y="789" on="0"/>
      </contour>
      <contour>
        <pt x="646" y="818" on="1"/>
        <pt x="631" y="822" on="0"/>
        <pt x="612" y="824" on="1"/>
        <pt x="571" y="828" on="0"/>
        <pt x="533" y="802" on="1"/>
        <pt x="489" y="771" on="0"/>
        <pt x="487" y="734" on="1"/>
        <pt x="562" y="785" on="0"/>
      </contour>
      <contour>
        <pt x="707" y="730" on="1"/>
        <pt x="704" y="763" on="0"/>
        <pt x="694" y="784" on="1"/>
        <pt x="687" y="800" on="0"/>
        <pt x="668" y="810" on="1"/>
        <pt x="581" y="775" on="0"/>
        <pt x="493" y="711" on="1"/>
        <pt x="512" y="679" on="0"/>
        <pt x="581" y="680" on="1"/>
        <pt x="619" y="681" on="0"/>
        <pt x="652" y="698" on="1"/>
        <pt x="682" y="714" on="0"/>
      </contour>
      <contour>
        <pt x="708" y="704" on="1"/>
        <pt x="643" y="656" on="0"/>
        <pt x="581" y="651" on="1"/>
        <pt x="482" y="643" on="0"/>
        <pt x="451" y="678" on="1"/>
        <pt x="372" y="614" on="0"/>
        <pt x="280" y="500" on="1"/>
        <pt x="206" y="408" on="0"/>
        <pt x="137" y="273" on="1"/>
        <pt x="93" y="187" on="0"/>
        <pt x="87" y="107" on="1"/>
        <pt x="210" y="210" on="1"/>
        <pt x="325" y="315" on="0"/>
        <pt x="564" y="525" on="1"/>
        <pt x="606" y="561" on="0"/>
        <pt x="696" y="639" on="1"/>
        <pt x="708" y="687" on="0"/>
      </contour>
      <contour>
        <pt x="680" y="581" on="1"/>
        <pt x="640" y="546" on="0"/>
        <pt x="588" y="499" on="1"/>
        <pt x="472" y="395" on="0"/>
        <pt x="232" y="183" on="1"/>
        <pt x="162" y="121" on="0"/>
        <pt x="88" y="61" on="1"/>
        <pt x="97" y="17" on="0"/>
        <pt x="148" y="17" on="1"/>
        <pt x="178" y="17" on="0"/>
        <pt x="214" y="33" on="1"/>
        <pt x="407" y="117" on="0"/>
        <pt x="527" y="288" on="1"/>
        <pt x="634" y="441" on="0"/>
      </contour>
    </TTGlyph>
    <TTGlyph name="Otilde" xMin="36" yMin="-30" xMax="845" yMax="976">
      <contour>
        <pt x="737" y="895" on="1"/>
        <pt x="708" y="895" on="0"/>
        <pt x="659" y="929" on="0"/>
        <pt x="643" y="929" on="1"/>
        <pt x="610" y="929" on="0"/>
        <pt x="568" y="897" on="1"/>
        <pt x="563" y="893" on="0"/>
        <pt x="557" y="893" on="1"/>
        <pt x="539" y="893" on="0"/>
        <pt x="539" y="911" on="1"/>
        <pt x="539" y="919" on="0"/>
        <pt x="546" y="924" on="1"/>
        <pt x="608" y="971" on="0"/>
        <pt x="643" y="971" on="1"/>
        <pt x="659" y="971" on="0"/>
        <pt x="708" y="935" on="0"/>
        <pt x="737" y="935" on="1"/>
        <pt x="776" y="935" on="0"/>
        <pt x="798" y="966" on="1"/>
        <pt x="805" y="976" on="0"/>
        <pt x="813" y="976" on="1"/>
        <pt x="826" y="976" on="0"/>
        <pt x="826" y="961" on="1"/>
        <pt x="826" y="939" on="0"/>
        <pt x="759" y="895" on="0"/>
      </contour>
      <contour>
        <pt x="840" y="820" on="1"/>
        <pt x="827" y="793" on="0"/>
        <pt x="790" y="767" on="1"/>
        <pt x="776" y="756" on="0"/>
        <pt x="748" y="734" on="1"/>
        <pt x="754" y="656" on="0"/>
        <pt x="718" y="568" on="1"/>
        <pt x="649" y="401" on="0"/>
        <pt x="555" y="270" on="1"/>
        <pt x="416" y="77" on="0"/>
        <pt x="198" y="-12" on="1"/>
        <pt x="155" y="-30" on="0"/>
        <pt x="119" y="-30" on="1"/>
        <pt x="69" y="-30" on="0"/>
        <pt x="36" y="40" on="0"/>
        <pt x="36" y="80" on="1"/>
        <pt x="36" y="139" on="0"/>
        <pt x="72" y="220" on="1"/>
        <pt x="208" y="525" on="0"/>
        <pt x="439" y="700" on="1"/>
        <pt x="437" y="707" on="0"/>
        <pt x="437" y="714" on="1"/>
        <pt x="437" y="769" on="0"/>
        <pt x="492" y="809" on="1"/>
        <pt x="558" y="857" on="0"/>
        <pt x="623" y="855" on="1"/>
        <pt x="696" y="853" on="0"/>
        <pt x="724" y="810" on="1"/>
        <pt x="739" y="787" on="0"/>
        <pt x="745" y="757" on="1"/>
        <pt x="787" y="788" on="0"/>
        <pt x="822" y="826" on="1"/>
        <pt x="829" y="833" on="0"/>
        <pt x="834" y="832" on="1"/>
        <pt x="845" y="830" on="0"/>
      </contour>
      <contour>
        <pt x="646" y="818" on="1"/>
        <pt x="631" y="822" on="0"/>
        <pt x="612" y="824" on="1"/>
        <pt x="571" y="828" on="0"/>
        <pt x="533" y="802" on="1"/>
        <pt x="489" y="771" on="0"/>
        <pt x="487" y="734" on="1"/>
        <pt x="562" y="785" on="0"/>
      </contour>
      <contour>
        <pt x="707" y="730" on="1"/>
        <pt x="704" y="763" on="0"/>
        <pt x="694" y="784" on="1"/>
        <pt x="687" y="800" on="0"/>
        <pt x="668" y="810" on="1"/>
        <pt x="581" y="775" on="0"/>
        <pt x="493" y="711" on="1"/>
        <pt x="512" y="679" on="0"/>
        <pt x="581" y="680" on="1"/>
        <pt x="619" y="681" on="0"/>
        <pt x="652" y="698" on="1"/>
        <pt x="682" y="714" on="0"/>
      </contour>
      <contour>
        <pt x="708" y="704" on="1"/>
        <pt x="643" y="656" on="0"/>
        <pt x="581" y="651" on="1"/>
        <pt x="482" y="643" on="0"/>
        <pt x="451" y="678" on="1"/>
        <pt x="372" y="614" on="0"/>
        <pt x="280" y="500" on="1"/>
        <pt x="209" y="412" on="0"/>
        <pt x="137" y="273" on="1"/>
        <pt x="86" y="174" on="0"/>
        <pt x="86" y="86" on="1"/>
        <pt x="86" y="44" on="0"/>
        <pt x="120" y="17" on="0"/>
        <pt x="148" y="17" on="1"/>
        <pt x="178" y="17" on="0"/>
        <pt x="214" y="33" on="1"/>
        <pt x="407" y="117" on="0"/>
        <pt x="527" y="288" on="1"/>
        <pt x="672" y="494" on="0"/>
        <pt x="707" y="687" on="1"/>
        <pt x="708" y="692" on="0"/>
      </contour>
    </TTGlyph>
    <TTGlyph name="P" xMin="-17" yMin="-33" xMax="787" yMax="969">
      <contour>
        <pt x="775" y="773" on="1"/>
        <pt x="787" y="738" on="0"/>
        <pt x="787" y="696" on="1"/>
        <pt x="787" y="621" on="0"/>
        <pt x="749" y="551" on="1"/>
        <pt x="693" y="450" on="0"/>
        <pt x="619" y="372" on="1"/>
        <pt x="498" y="245" on="0"/>
        <pt x="363" y="246" on="1"/>
        <pt x="302" y="246" on="0"/>
        <pt x="265" y="283" on="1"/>
        <pt x="241" y="241" on="0"/>
        <pt x="152" y="93" on="0"/>
        <pt x="131" y="65" on="1"/>
        <pt x="92" y="9" on="0"/>
        <pt x="52" y="-23" on="1"/>
        <pt x="39" y="-33" on="0"/>
        <pt x="26" y="-32" on="1"/>
        <pt x="14" y="-31" on="0"/>
        <pt x="6" y="-20" on="1"/>
        <pt x="-17" y="19" on="0"/>
        <pt x="6" y="93" on="1"/>
        <pt x="9" y="103" on="0"/>
        <pt x="19" y="99" on="1"/>
        <pt x="25" y="96" on="0"/>
        <pt x="27" y="87" on="1"/>
        <pt x="25" y="32" on="0"/>
        <pt x="37" y="23" on="1"/>
        <pt x="42" y="19" on="0"/>
        <pt x="56" y="31" on="1"/>
        <pt x="108" y="76" on="0"/>
        <pt x="149" y="141" on="1"/>
        <pt x="199" y="220" on="0"/>
        <pt x="248" y="306" on="1"/>
        <pt x="228" y="342" on="0"/>
        <pt x="236" y="395" on="1"/>
        <pt x="241" y="429" on="0"/>
        <pt x="300" y="489" on="0"/>
        <pt x="334" y="486" on="1"/>
        <pt x="341" y="485" on="0"/>
        <pt x="345" y="484" on="1"/>
        <pt x="380" y="551" on="0"/>
        <pt x="451" y="686" on="1"/>
        <pt x="477" y="738" on="0"/>
        <pt x="534" y="840" on="1"/>
        <pt x="470" y="829" on="0"/>
        <pt x="371" y="780" on="1"/>
        <pt x="283" y="736" on="0"/>
        <pt x="248" y="687" on="1"/>
        <pt x="226" y="656" on="0"/>
        <pt x="232" y="644" on="1"/>
        <pt x="232" y="638" on="0"/>
        <pt x="227" y="636" on="1"/>
        <pt x="222" y="633" on="0"/>
        <pt x="220" y="637" on="1"/>
        <pt x="210" y="661" on="0"/>
        <pt x="229" y="696" on="1"/>
        <pt x="256" y="748" on="0"/>
        <pt x="350" y="800" on="1"/>
        <pt x="477" y="870" on="0"/>
        <pt x="562" y="885" on="1"/>
        <pt x="607" y="953" on="0"/>
        <pt x="638" y="965" on="1"/>
        <pt x="650" y="969" on="0"/>
        <pt x="653" y="959" on="1"/>
        <pt x="656" y="950" on="0"/>
        <pt x="644" y="944" on="1"/>
        <pt x="618" y="926" on="0"/>
        <pt x="594" y="888" on="1"/>
        <pt x="631" y="891" on="0"/>
        <pt x="669" y="880" on="1"/>
        <pt x="745" y="858" on="0"/>
      </contour>
      <contour>
        <pt x="730" y="582" on="1"/>
        <pt x="752" y="632" on="0"/>
        <pt x="752" y="681" on="1"/>
        <pt x="752" y="733" on="0"/>
        <pt x="727" y="773" on="1"/>
        <pt x="694" y="826" on="0"/>
        <pt x="642" y="839" on="1"/>
        <pt x="611" y="847" on="0"/>
        <pt x="571" y="845" on="1"/>
        <pt x="568" y="840" on="0"/>
        <pt x="561" y="825" on="1"/>
        <pt x="489" y="673" on="0"/>
        <pt x="373" y="470" on="1"/>
        <pt x="399" y="451" on="0"/>
        <pt x="413" y="415" on="1"/>
        <pt x="417" y="405" on="0"/>
        <pt x="408" y="399" on="1"/>
        <pt x="399" y="393" on="0"/>
        <pt x="380" y="419" on="0"/>
        <pt x="359" y="444" on="1"/>
        <pt x="289" y="323" on="1"/>
        <pt x="319" y="290" on="0"/>
        <pt x="382" y="286" on="1"/>
        <pt x="463" y="281" on="0"/>
        <pt x="678" y="464" on="0"/>
      </contour>
      <contour>
        <pt x="330" y="455" on="1"/>
        <pt x="306" y="455" on="0"/>
        <pt x="268" y="410" on="0"/>
        <pt x="267" y="385" on="1"/>
        <pt x="267" y="373" on="0"/>
        <pt x="273" y="350" on="1"/>
      </contour>
    </TTGlyph>
    <TTGlyph name="Q" xMin="23" yMin="-436" xMax="756" yMax="859">
      <contour>
        <pt x="743" y="792" on="1"/>
        <pt x="756" y="754" on="0"/>
        <pt x="756" y="706" on="1"/>
        <pt x="756" y="596" on="0"/>
        <pt x="688" y="453" on="1"/>
        <pt x="631" y="336" on="0"/>
        <pt x="566" y="264" on="1"/>
        <pt x="445" y="131" on="0"/>
        <pt x="311" y="48" on="1"/>
        <pt x="331" y="23" on="0"/>
        <pt x="344" y="-10" on="1"/>
        <pt x="355" y="-51" on="0"/>
        <pt x="344" y="-92" on="1"/>
        <pt x="394" y="-54" on="0"/>
        <pt x="510" y="28" on="1"/>
        <pt x="571" y="68" on="0"/>
        <pt x="635" y="120" on="1"/>
        <pt x="643" y="126" on="0"/>
        <pt x="650" y="121" on="1"/>
        <pt x="659" y="115" on="0"/>
        <pt x="650" y="107" on="1"/>
        <pt x="563" y="33" on="0"/>
        <pt x="528" y="12" on="1"/>
        <pt x="510" y="1" on="0"/>
        <pt x="335" y="-141" on="1"/>
        <pt x="312" y="-227" on="0"/>
        <pt x="260" y="-304" on="1"/>
        <pt x="203" y="-385" on="0"/>
        <pt x="131" y="-428" on="1"/>
        <pt x="103" y="-436" on="0"/>
        <pt x="93" y="-430" on="1"/>
        <pt x="84" y="-425" on="0"/>
        <pt x="84" y="-412" on="1"/>
        <pt x="84" y="-397" on="0"/>
        <pt x="95" y="-373" on="1"/>
        <pt x="184" y="-226" on="0"/>
        <pt x="297" y="-125" on="1"/>
        <pt x="313" y="-62" on="0"/>
        <pt x="303" y="-32" on="1"/>
        <pt x="291" y="4" on="0"/>
        <pt x="276" y="28" on="1"/>
        <pt x="153" y="-41" on="0"/>
        <pt x="81" y="-41" on="1"/>
        <pt x="38" y="-41" on="0"/>
        <pt x="28" y="-4" on="1"/>
        <pt x="23" y="16" on="0"/>
        <pt x="47" y="51" on="1"/>
        <pt x="98" y="113" on="0"/>
        <pt x="180" y="113" on="1"/>
        <pt x="241" y="113" on="0"/>
        <pt x="292" y="68" on="1"/>
        <pt x="414" y="139" on="0"/>
        <pt x="542" y="282" on="1"/>
        <pt x="599" y="345" on="0"/>
        <pt x="648" y="440" on="1"/>
        <pt x="694" y="529" on="0"/>
        <pt x="711" y="600" on="1"/>
        <pt x="729" y="676" on="0"/>
        <pt x="729" y="713" on="1"/>
        <pt x="729" y="768" on="0"/>
        <pt x="700" y="800" on="1"/>
        <pt x="674" y="828" on="0"/>
        <pt x="626" y="828" on="1"/>
        <pt x="588" y="828" on="0"/>
        <pt x="545" y="811" on="1"/>
        <pt x="387" y="750" on="0"/>
        <pt x="306" y="660" on="1"/>
        <pt x="207" y="550" on="0"/>
        <pt x="191" y="454" on="1"/>
        <pt x="186" y="422" on="0"/>
        <pt x="186" y="399" on="1"/>
        <pt x="186" y="318" on="0"/>
        <pt x="245" y="318" on="1"/>
        <pt x="281" y="318" on="0"/>
        <pt x="324" y="373" on="1"/>
        <pt x="324" y="373" on="0"/>
        <pt x="334" y="398" on="1"/>
        <pt x="338" y="433" on="0"/>
        <pt x="334" y="442" on="1"/>
        <pt x="333" y="446" on="0"/>
        <pt x="333" y="449" on="1"/>
        <pt x="333" y="461" on="0"/>
        <pt x="344" y="461" on="1"/>
        <pt x="352" y="461" on="0"/>
        <pt x="355" y="452" on="1"/>
        <pt x="364" y="427" on="0"/>
        <pt x="360" y="397" on="1"/>
        <pt x="356" y="369" on="0"/>
        <pt x="345" y="358" on="1"/>
        <pt x="296" y="290" on="0"/>
        <pt x="241" y="290" on="1"/>
        <pt x="146" y="290" on="0"/>
        <pt x="146" y="415" on="1"/>
        <pt x="146" y="539" on="0"/>
        <pt x="275" y="681" on="1"/>
        <pt x="369" y="784" on="0"/>
        <pt x="538" y="844" on="1"/>
        <pt x="579" y="859" on="0"/>
        <pt x="622" y="859" on="1"/>
        <pt x="720" y="859" on="0"/>
      </contour>
      <contour>
        <pt x="259" y="50" on="1"/>
        <pt x="240" y="71" on="0"/>
        <pt x="214" y="78" on="1"/>
        <pt x="194" y="84" on="0"/>
        <pt x="171" y="84" on="1"/>
        <pt x="84" y="84" on="0"/>
        <pt x="74" y="16" on="1"/>
        <pt x="73" y="9" on="0"/>
        <pt x="92" y="-9" on="0"/>
        <pt x="102" y="-7" on="1"/>
        <pt x="181" y="9" on="0"/>
      </contour>
      <contour>
        <pt x="280" y="-182" on="1"/>
        <pt x="223" y="-241" on="0"/>
        <pt x="195" y="-276" on="1"/>
        <pt x="143" y="-341" on="0"/>
        <pt x="126" y="-392" on="1"/>
        <pt x="179" y="-354" on="0"/>
        <pt x="222" y="-300" on="1"/>
        <pt x="249" y="-266" on="0"/>
      </contour>
    </TTGlyph>
    <TTGlyph name="R" xMin="36" yMin="-297" xMax="820" yMax="875">
      <contour>
        <pt x="820" y="766" on="1"/>
        <pt x="820" y="696" on="0"/>
        <pt x="720" y="597" on="1"/>
        <pt x="675" y="553" on="0"/>
        <pt x="576" y="493" on="1"/>
        <pt x="497" y="445" on="0"/>
        <pt x="449" y="422" on="1"/>
        <pt x="468" y="385" on="0"/>
        <pt x="466" y="342" on="1"/>
        <pt x="462" y="241" on="0"/>
        <pt x="406" y="1" on="1"/>
        <pt x="375" y="-133" on="0"/>
        <pt x="375" y="-165" on="1"/>
        <pt x="375" y="-221" on="0"/>
        <pt x="406" y="-249" on="1"/>
        <pt x="410" y="-253" on="0"/>
        <pt x="424" y="-252" on="1"/>
        <pt x="458" y="-250" on="0"/>
        <pt x="491" y="-196" on="1"/>
        <pt x="496" y="-183" on="0"/>
        <pt x="507" y="-187" on="1"/>
        <pt x="515" y="-198" on="0"/>
        <pt x="512" y="-205" on="1"/>
        <pt x="502" y="-240" on="0"/>
        <pt x="439" y="-295" on="0"/>
        <pt x="404" y="-296" on="1"/>
        <pt x="383" y="-297" on="0"/>
        <pt x="375" y="-287" on="1"/>
        <pt x="328" y="-252" on="0"/>
        <pt x="328" y="-164" on="1"/>
        <pt x="328" y="-141" on="0"/>
        <pt x="332" y="-119" on="1"/>
        <pt x="340" y="-73" on="0"/>
        <pt x="390" y="113" on="1"/>
        <pt x="423" y="241" on="0"/>
        <pt x="423" y="334" on="1"/>
        <pt x="423" y="385" on="0"/>
        <pt x="413" y="406" on="1"/>
        <pt x="409" y="404" on="0"/>
        <pt x="392" y="398" on="0"/>
        <pt x="387" y="396" on="1"/>
        <pt x="318" y="270" on="0"/>
        <pt x="203" y="101" on="1"/>
        <pt x="142" y="12" on="0"/>
        <pt x="83" y="-28" on="1"/>
        <pt x="76" y="-33" on="0"/>
        <pt x="69" y="-33" on="1"/>
        <pt x="54" y="-33" on="0"/>
        <pt x="48" y="-21" on="1"/>
        <pt x="36" y="5" on="0"/>
        <pt x="38" y="37" on="1"/>
        <pt x="44" y="70" on="0"/>
        <pt x="54" y="135" on="1"/>
        <pt x="55" y="143" on="0"/>
        <pt x="65" y="145" on="1"/>
        <pt x="75" y="146" on="0"/>
        <pt x="76" y="138" on="1"/>
        <pt x="75" y="127" on="0"/>
        <pt x="71" y="95" on="1"/>
        <pt x="68" y="68" on="0"/>
        <pt x="68" y="55" on="1"/>
        <pt x="68" y="28" on="0"/>
        <pt x="80" y="22" on="1"/>
        <pt x="90" y="22" on="0"/>
        <pt x="93" y="24" on="1"/>
        <pt x="138" y="52" on="0"/>
        <pt x="203" y="151" on="1"/>
        <pt x="258" y="241" on="0"/>
        <pt x="313" y="330" on="1"/>
        <pt x="325" y="349" on="0"/>
        <pt x="345" y="383" on="1"/>
        <pt x="302" y="373" on="0"/>
        <pt x="271" y="372" on="1"/>
        <pt x="256" y="372" on="0"/>
        <pt x="232" y="385" on="0"/>
        <pt x="234" y="398" on="1"/>
        <pt x="237" y="419" on="0"/>
        <pt x="264" y="437" on="1"/>
        <pt x="314" y="470" on="0"/>
        <pt x="366" y="470" on="1"/>
        <pt x="379" y="470" on="0"/>
        <pt x="390" y="468" on="1"/>
        <pt x="432" y="552" on="1"/>
        <pt x="484" y="656" on="0"/>
        <pt x="545" y="812" on="1"/>
        <pt x="446" y="788" on="0"/>
        <pt x="320" y="708" on="1"/>
        <pt x="315" y="706" on="0"/>
        <pt x="311" y="699" on="1"/>
        <pt x="313" y="686" on="0"/>
        <pt x="386" y="684" on="1"/>
        <pt x="396" y="684" on="0"/>
        <pt x="396" y="674" on="1"/>
        <pt x="396" y="663" on="0"/>
        <pt x="384" y="663" on="1"/>
        <pt x="310" y="653" on="0"/>
        <pt x="271" y="677" on="1"/>
        <pt x="261" y="683" on="0"/>
        <pt x="263" y="696" on="1"/>
        <pt x="265" y="709" on="0"/>
        <pt x="286" y="722" on="1"/>
        <pt x="447" y="822" on="0"/>
        <pt x="558" y="847" on="1"/>
        <pt x="564" y="862" on="1"/>
        <pt x="565" y="875" on="0"/>
        <pt x="580" y="875" on="1"/>
        <pt x="589" y="875" on="0"/>
        <pt x="591" y="871" on="1"/>
        <pt x="592" y="867" on="0"/>
        <pt x="587" y="855" on="0"/>
        <pt x="587" y="852" on="1"/>
        <pt x="637" y="861" on="0"/>
        <pt x="679" y="861" on="1"/>
        <pt x="820" y="861" on="0"/>
      </contour>
      <contour>
        <pt x="767" y="752" on="1"/>
        <pt x="772" y="830" on="0"/>
        <pt x="674" y="830" on="1"/>
        <pt x="639" y="830" on="0"/>
        <pt x="578" y="819" on="1"/>
        <pt x="576" y="819" on="1"/>
        <pt x="510" y="625" on="0"/>
        <pt x="420" y="457" on="1"/>
        <pt x="424" y="454" on="0"/>
        <pt x="432" y="447" on="1"/>
        <pt x="478" y="467" on="0"/>
        <pt x="537" y="503" on="1"/>
        <pt x="760" y="640" on="0"/>
      </contour>
      <contour>
        <pt x="376" y="441" on="1"/>
        <pt x="364" y="446" on="0"/>
        <pt x="352" y="444" on="1"/>
        <pt x="284" y="433" on="0"/>
        <pt x="281" y="412" on="1"/>
        <pt x="283" y="399" on="0"/>
        <pt x="366" y="423" on="1"/>
        <pt x="370" y="429" on="0"/>
      </contour>
    </TTGlyph>
    <TTGlyph name="S" xMin="-63" yMin="-69" xMax="880" yMax="845">
      <contour>
        <pt x="879" y="821" on="1"/>
        <pt x="880" y="815" on="0"/>
        <pt x="880" y="808" on="1"/>
        <pt x="880" y="745" on="0"/>
        <pt x="735" y="573" on="1"/>
        <pt x="689" y="528" on="0"/>
        <pt x="603" y="444" on="1"/>
        <pt x="592" y="408" on="0"/>
        <pt x="581" y="350" on="1"/>
        <pt x="572" y="282" on="0"/>
        <pt x="563" y="215" on="1"/>
        <pt x="549" y="127" on="0"/>
        <pt x="516" y="78" on="1"/>
        <pt x="430" y="-50" on="0"/>
        <pt x="256" y="-63" on="1"/>
        <pt x="170" y="-69" on="0"/>
        <pt x="120" y="-33" on="1"/>
        <pt x="82" y="-5" on="0"/>
        <pt x="58" y="32" on="1"/>
        <pt x="27" y="10" on="0"/>
        <pt x="-31" y="-33" on="1"/>
        <pt x="-39" y="-40" on="0"/>
        <pt x="-52" y="-33" on="1"/>
        <pt x="-63" y="-27" on="0"/>
        <pt x="-53" y="-21" on="1"/>
        <pt x="-36" y="-8" on="0"/>
        <pt x="30" y="47" on="0"/>
        <pt x="47" y="59" on="1"/>
        <pt x="37" y="108" on="0"/>
        <pt x="58" y="147" on="1"/>
        <pt x="90" y="207" on="0"/>
        <pt x="164" y="224" on="1"/>
        <pt x="216" y="236" on="0"/>
        <pt x="288" y="226" on="1"/>
        <pt x="311" y="240" on="0"/>
        <pt x="351" y="268" on="1"/>
        <pt x="387" y="296" on="0"/>
        <pt x="456" y="356" on="1"/>
        <pt x="494" y="388" on="0"/>
        <pt x="564" y="450" on="1"/>
        <pt x="612" y="608" on="0"/>
        <pt x="648" y="671" on="1"/>
        <pt x="714" y="785" on="0"/>
        <pt x="834" y="834" on="1"/>
        <pt x="838" y="836" on="0"/>
        <pt x="851" y="839" on="1"/>
        <pt x="871" y="845" on="0"/>
        <pt x="876" y="830" on="1"/>
      </contour>
      <contour>
        <pt x="831" y="787" on="1"/>
        <pt x="782" y="783" on="0"/>
        <pt x="733" y="722" on="1"/>
        <pt x="663" y="636" on="0"/>
        <pt x="628" y="518" on="1"/>
        <pt x="622" y="498" on="1"/>
        <pt x="656" y="529" on="0"/>
        <pt x="710" y="584" on="1"/>
        <pt x="749" y="628" on="0"/>
        <pt x="833" y="765" on="0"/>
        <pt x="833" y="783" on="1"/>
        <pt x="833" y="786" on="0"/>
      </contour>
      <contour>
        <pt x="557" y="408" on="1"/>
        <pt x="540" y="393" on="1"/>
        <pt x="518" y="376" on="0"/>
        <pt x="481" y="342" on="1"/>
        <pt x="399" y="271" on="0"/>
        <pt x="327" y="217" on="1"/>
        <pt x="333" y="214" on="0"/>
        <pt x="345" y="209" on="1"/>
        <pt x="361" y="198" on="0"/>
        <pt x="358" y="191" on="1"/>
        <pt x="351" y="174" on="0"/>
        <pt x="328" y="183" on="1"/>
        <pt x="313" y="186" on="0"/>
        <pt x="287" y="190" on="1"/>
        <pt x="221" y="143" on="0"/>
        <pt x="90" y="53" on="1"/>
        <pt x="108" y="7" on="0"/>
        <pt x="144" y="-17" on="1"/>
        <pt x="177" y="-39" on="0"/>
        <pt x="230" y="-39" on="1"/>
        <pt x="279" y="-39" on="0"/>
        <pt x="325" y="-22" on="1"/>
        <pt x="417" y="12" on="0"/>
        <pt x="467" y="79" on="1"/>
        <pt x="505" y="130" on="0"/>
        <pt x="524" y="210" on="1"/>
        <pt x="537" y="277" on="0"/>
        <pt x="550" y="343" on="1"/>
        <pt x="550" y="331" on="0"/>
      </contour>
      <contour>
        <pt x="249" y="195" on="1"/>
        <pt x="201" y="195" on="0"/>
        <pt x="191" y="193" on="1"/>
        <pt x="92" y="174" on="0"/>
        <pt x="86" y="86" on="1"/>
        <pt x="140" y="122" on="0"/>
      </contour>
    </TTGlyph>
    <TTGlyph name="Scaron" xMin="-86" yMin="-69" xMax="1069" yMax="1008">
      <contour>
        <pt x="1060" y="977" on="1"/>
        <pt x="1038" y="966" on="0"/>
        <pt x="958" y="915" on="1"/>
        <pt x="905" y="882" on="0"/>
        <pt x="881" y="882" on="1"/>
        <pt x="870" y="882" on="0"/>
        <pt x="837" y="922" on="1"/>
        <pt x="818" y="946" on="0"/>
        <pt x="799" y="970" on="1"/>
        <pt x="793" y="977" on="0"/>
        <pt x="793" y="987" on="1"/>
        <pt x="793" y="1007" on="0"/>
        <pt x="808" y="1007" on="1"/>
        <pt x="813" y="1007" on="0"/>
        <pt x="819" y="1003" on="1"/>
        <pt x="822" y="1001" on="0"/>
        <pt x="853" y="968" on="1"/>
        <pt x="880" y="938" on="0"/>
        <pt x="889" y="938" on="1"/>
        <pt x="915" y="938" on="0"/>
        <pt x="1054" y="1003" on="1"/>
        <pt x="1069" y="1008" on="0"/>
        <pt x="1069" y="991" on="1"/>
        <pt x="1069" y="982" on="0"/>
      </contour>
      <contour>
        <pt x="915" y="821" on="1"/>
        <pt x="916" y="815" on="0"/>
        <pt x="916" y="809" on="1"/>
        <pt x="916" y="766" on="0"/>
        <pt x="859" y="692" on="1"/>
        <pt x="836" y="663" on="0"/>
        <pt x="754" y="573" on="1"/>
        <pt x="705" y="528" on="0"/>
        <pt x="613" y="444" on="1"/>
        <pt x="597" y="399" on="0"/>
        <pt x="584" y="350" on="1"/>
        <pt x="570" y="282" on="0"/>
        <pt x="556" y="215" on="1"/>
        <pt x="536" y="127" on="0"/>
        <pt x="500" y="78" on="1"/>
        <pt x="405" y="-50" on="0"/>
        <pt x="230" y="-63" on="1"/>
        <pt x="144" y="-69" on="0"/>
        <pt x="97" y="-33" on="1"/>
        <pt x="59" y="-4" on="0"/>
        <pt x="39" y="32" on="1"/>
        <pt x="7" y="10" on="0"/>
        <pt x="-54" y="-33" on="1"/>
        <pt x="-64" y="-40" on="0"/>
        <pt x="-75" y="-33" on="1"/>
        <pt x="-86" y="-28" on="0"/>
        <pt x="-76" y="-21" on="1"/>
        <pt x="-41" y="6" on="0"/>
        <pt x="30" y="59" on="1"/>
        <pt x="23" y="108" on="0"/>
        <pt x="47" y="147" on="1"/>
        <pt x="83" y="207" on="0"/>
        <pt x="159" y="224" on="1"/>
        <pt x="211" y="236" on="0"/>
        <pt x="283" y="226" on="1"/>
        <pt x="307" y="240" on="0"/>
        <pt x="349" y="268" on="1"/>
        <pt x="387" y="296" on="0"/>
        <pt x="460" y="356" on="1"/>
        <pt x="500" y="388" on="0"/>
        <pt x="574" y="450" on="1"/>
        <pt x="634" y="609" on="0"/>
        <pt x="674" y="671" on="1"/>
        <pt x="748" y="786" on="0"/>
        <pt x="871" y="834" on="1"/>
        <pt x="875" y="836" on="0"/>
        <pt x="889" y="839" on="1"/>
        <pt x="910" y="845" on="0"/>
        <pt x="913" y="830" on="1"/>
      </contour>
      <contour>
        <pt x="865" y="787" on="1"/>
        <pt x="816" y="783" on="0"/>
        <pt x="762" y="722" on="1"/>
        <pt x="683" y="633" on="0"/>
        <pt x="643" y="518" on="1"/>
        <pt x="636" y="498" on="1"/>
        <pt x="730" y="584" on="1"/>
        <pt x="773" y="631" on="0"/>
        <pt x="866" y="768" on="0"/>
        <pt x="866" y="784" on="1"/>
        <pt x="866" y="786" on="0"/>
      </contour>
      <contour>
        <pt x="564" y="408" on="1"/>
        <pt x="546" y="393" on="1"/>
        <pt x="523" y="376" on="0"/>
        <pt x="484" y="342" on="1"/>
        <pt x="396" y="271" on="0"/>
        <pt x="321" y="217" on="1"/>
        <pt x="323" y="216" on="0"/>
        <pt x="338" y="209" on="1"/>
        <pt x="353" y="199" on="0"/>
        <pt x="350" y="191" on="1"/>
        <pt x="348" y="186" on="0"/>
        <pt x="337" y="183" on="1"/>
        <pt x="327" y="180" on="0"/>
        <pt x="320" y="183" on="1"/>
        <pt x="305" y="186" on="0"/>
        <pt x="279" y="190" on="1"/>
        <pt x="210" y="143" on="0"/>
        <pt x="73" y="53" on="1"/>
        <pt x="87" y="8" on="0"/>
        <pt x="122" y="-17" on="1"/>
        <pt x="153" y="-39" on="0"/>
        <pt x="207" y="-39" on="1"/>
        <pt x="255" y="-39" on="0"/>
        <pt x="302" y="-22" on="1"/>
        <pt x="397" y="12" on="0"/>
        <pt x="451" y="79" on="1"/>
        <pt x="492" y="130" on="0"/>
        <pt x="518" y="210" on="1"/>
        <pt x="535" y="277" on="0"/>
        <pt x="553" y="343" on="1"/>
        <pt x="553" y="327" on="0"/>
      </contour>
      <contour>
        <pt x="242" y="195" on="1"/>
        <pt x="194" y="195" on="0"/>
        <pt x="183" y="193" on="1"/>
        <pt x="83" y="174" on="0"/>
        <pt x="71" y="86" on="1"/>
        <pt x="128" y="122" on="0"/>
      </contour>
    </TTGlyph>
    <TTGlyph name="T" xMin="5" yMin="-68" xMax="975" yMax="819">
      <contour>
        <pt x="975" y="803" on="1"/>
        <pt x="971" y="787" on="0"/>
        <pt x="959" y="783" on="1"/>
        <pt x="856" y="736" on="0"/>
        <pt x="757" y="722" on="1"/>
        <pt x="753" y="720" on="0"/>
        <pt x="750" y="720" on="1"/>
        <pt x="688" y="703" on="0"/>
        <pt x="538" y="569" on="0"/>
        <pt x="464" y="434" on="1"/>
        <pt x="402" y="320" on="0"/>
        <pt x="341" y="207" on="1"/>
        <pt x="185" y="-46" on="0"/>
        <pt x="60" y="-61" on="1"/>
        <pt x="5" y="-68" on="0"/>
        <pt x="5" y="8" on="1"/>
        <pt x="5" y="39" on="0"/>
        <pt x="15" y="81" on="1"/>
        <pt x="45" y="208" on="0"/>
        <pt x="129" y="328" on="1"/>
        <pt x="142" y="342" on="1"/>
        <pt x="152" y="349" on="0"/>
        <pt x="165" y="345" on="1"/>
        <pt x="169" y="344" on="0"/>
        <pt x="177" y="329" on="1"/>
        <pt x="186" y="302" on="0"/>
        <pt x="189" y="296" on="1"/>
        <pt x="198" y="277" on="0"/>
        <pt x="210" y="272" on="1"/>
        <pt x="218" y="267" on="0"/>
        <pt x="229" y="267" on="1"/>
        <pt x="258" y="267" on="0"/>
        <pt x="297" y="297" on="1"/>
        <pt x="308" y="305" on="0"/>
        <pt x="312" y="294" on="1"/>
        <pt x="317" y="287" on="0"/>
        <pt x="309" y="280" on="1"/>
        <pt x="253" y="231" on="0"/>
        <pt x="209" y="231" on="1"/>
        <pt x="195" y="231" on="0"/>
        <pt x="184" y="237" on="1"/>
        <pt x="148" y="257" on="0"/>
        <pt x="137" y="299" on="1"/>
        <pt x="84" y="223" on="0"/>
        <pt x="61" y="142" on="1"/>
        <pt x="47" y="93" on="0"/>
        <pt x="47" y="59" on="1"/>
        <pt x="47" y="26" on="0"/>
        <pt x="59" y="0" on="1"/>
        <pt x="70" y="-11" on="0"/>
        <pt x="86" y="-11" on="1"/>
        <pt x="133" y="-11" on="0"/>
        <pt x="271" y="135" on="0"/>
        <pt x="335" y="249" on="1"/>
        <pt x="390" y="349" on="0"/>
        <pt x="445" y="449" on="1"/>
        <pt x="494" y="530" on="0"/>
        <pt x="516" y="562" on="1"/>
        <pt x="560" y="624" on="0"/>
        <pt x="602" y="660" on="1"/>
        <pt x="649" y="700" on="0"/>
        <pt x="681" y="718" on="1"/>
        <pt x="622" y="718" on="0"/>
        <pt x="573" y="732" on="1"/>
        <pt x="539" y="743" on="0"/>
        <pt x="505" y="754" on="1"/>
        <pt x="463" y="766" on="0"/>
        <pt x="430" y="766" on="1"/>
        <pt x="376" y="766" on="0"/>
        <pt x="323" y="734" on="1"/>
        <pt x="290" y="714" on="0"/>
        <pt x="274" y="668" on="1"/>
        <pt x="268" y="651" on="0"/>
        <pt x="282" y="647" on="1"/>
        <pt x="289" y="645" on="0"/>
        <pt x="297" y="645" on="1"/>
        <pt x="317" y="645" on="0"/>
        <pt x="372" y="681" on="0"/>
        <pt x="399" y="700" on="1"/>
        <pt x="408" y="706" on="0"/>
        <pt x="412" y="703" on="1"/>
        <pt x="419" y="697" on="0"/>
        <pt x="407" y="686" on="1"/>
        <pt x="362" y="644" on="0"/>
        <pt x="309" y="615" on="1"/>
        <pt x="286" y="603" on="0"/>
        <pt x="268" y="603" on="1"/>
        <pt x="234" y="603" on="0"/>
        <pt x="234" y="639" on="1"/>
        <pt x="234" y="647" on="0"/>
        <pt x="236" y="657" on="1"/>
        <pt x="249" y="716" on="0"/>
        <pt x="319" y="760" on="1"/>
        <pt x="379" y="797" on="0"/>
        <pt x="442" y="797" on="1"/>
        <pt x="469" y="797" on="0"/>
        <pt x="590" y="766" on="1"/>
        <pt x="640" y="753" on="0"/>
        <pt x="696" y="753" on="1"/>
        <pt x="819" y="753" on="0"/>
        <pt x="957" y="816" on="1"/>
        <pt x="975" y="819" on="0"/>
      </contour>
    </TTGlyph>
    <TTGlyph name="Thorn" xMin="-17" yMin="-33" xMax="787" yMax="1056">
      <contour>
        <pt x="775" y="773" on="1"/>
        <pt x="787" y="738" on="0"/>
        <pt x="787" y="696" on="1"/>
        <pt x="787" y="621" on="0"/>
        <pt x="749" y="551" on="1"/>
        <pt x="693" y="450" on="0"/>
        <pt x="619" y="372" on="1"/>
        <pt x="498" y="245" on="0"/>
        <pt x="363" y="246" on="1"/>
        <pt x="302" y="246" on="0"/>
        <pt x="265" y="283" on="1"/>
        <pt x="241" y="241" on="0"/>
        <pt x="152" y="93" on="0"/>
        <pt x="131" y="65" on="1"/>
        <pt x="92" y="9" on="0"/>
        <pt x="52" y="-23" on="1"/>
        <pt x="39" y="-33" on="0"/>
        <pt x="26" y="-32" on="1"/>
        <pt x="14" y="-31" on="0"/>
        <pt x="6" y="-20" on="1"/>
        <pt x="-17" y="19" on="0"/>
        <pt x="6" y="93" on="1"/>
        <pt x="9" y="103" on="0"/>
        <pt x="19" y="99" on="1"/>
        <pt x="25" y="96" on="0"/>
        <pt x="27" y="87" on="1"/>
        <pt x="25" y="32" on="0"/>
        <pt x="37" y="23" on="1"/>
        <pt x="42" y="19" on="0"/>
        <pt x="56" y="31" on="1"/>
        <pt x="108" y="76" on="0"/>
        <pt x="149" y="141" on="1"/>
        <pt x="199" y="220" on="0"/>
        <pt x="248" y="306" on="1"/>
        <pt x="228" y="342" on="0"/>
        <pt x="236" y="395" on="1"/>
        <pt x="241" y="429" on="0"/>
        <pt x="300" y="489" on="0"/>
        <pt x="334" y="486" on="1"/>
        <pt x="341" y="485" on="0"/>
        <pt x="345" y="484" on="1"/>
        <pt x="380" y="551" on="0"/>
        <pt x="451" y="686" on="1"/>
        <pt x="477" y="738" on="0"/>
        <pt x="534" y="840" on="1"/>
        <pt x="470" y="829" on="0"/>
        <pt x="371" y="780" on="1"/>
        <pt x="283" y="736" on="0"/>
        <pt x="248" y="687" on="1"/>
        <pt x="226" y="656" on="0"/>
        <pt x="232" y="644" on="1"/>
        <pt x="232" y="638" on="0"/>
        <pt x="227" y="636" on="1"/>
        <pt x="222" y="633" on="0"/>
        <pt x="220" y="637" on="1"/>
        <pt x="210" y="661" on="0"/>
        <pt x="229" y="696" on="1"/>
        <pt x="256" y="748" on="0"/>
        <pt x="350" y="800" on="1"/>
        <pt x="482" y="873" on="0"/>
        <pt x="557" y="886" on="1"/>
        <pt x="594" y="946" on="0"/>
        <pt x="615" y="976" on="1"/>
        <pt x="660" y="1040" on="0"/>
        <pt x="688" y="1051" on="1"/>
        <pt x="700" y="1056" on="0"/>
        <pt x="703" y="1045" on="1"/>
        <pt x="706" y="1036" on="0"/>
        <pt x="694" y="1030" on="1"/>
        <pt x="659" y="1005" on="0"/>
        <pt x="594" y="888" on="1"/>
        <pt x="631" y="891" on="0"/>
        <pt x="669" y="880" on="1"/>
        <pt x="745" y="858" on="0"/>
      </contour>
      <contour>
        <pt x="730" y="582" on="1"/>
        <pt x="752" y="632" on="0"/>
        <pt x="752" y="681" on="1"/>
        <pt x="752" y="733" on="0"/>
        <pt x="727" y="773" on="1"/>
        <pt x="694" y="826" on="0"/>
        <pt x="642" y="839" on="1"/>
        <pt x="611" y="847" on="0"/>
        <pt x="571" y="845" on="1"/>
        <pt x="568" y="840" on="0"/>
        <pt x="561" y="825" on="1"/>
        <pt x="489" y="673" on="0"/>
        <pt x="373" y="470" on="1"/>
        <pt x="399" y="451" on="0"/>
        <pt x="413" y="415" on="1"/>
        <pt x="417" y="405" on="0"/>
        <pt x="408" y="399" on="1"/>
        <pt x="399" y="393" on="0"/>
        <pt x="380" y="419" on="0"/>
        <pt x="359" y="444" on="1"/>
        <pt x="289" y="323" on="1"/>
        <pt x="319" y="290" on="0"/>
        <pt x="382" y="286" on="1"/>
        <pt x="463" y="281" on="0"/>
        <pt x="678" y="464" on="0"/>
      </contour>
      <contour>
        <pt x="330" y="455" on="1"/>
        <pt x="306" y="455" on="0"/>
        <pt x="268" y="410" on="0"/>
        <pt x="267" y="385" on="1"/>
        <pt x="267" y="373" on="0"/>
        <pt x="273" y="350" on="1"/>
      </contour>
    </TTGlyph>
    <TTGlyph name="U" xMin="48" yMin="-69" xMax="892" yMax="922">
      <contour>
        <pt x="890" y="894" on="1"/>
        <pt x="890" y="887" on="0"/>
        <pt x="882" y="877" on="1"/>
        <pt x="763" y="693" on="0"/>
        <pt x="528" y="298" on="1"/>
        <pt x="493" y="233" on="0"/>
        <pt x="442" y="56" on="0"/>
        <pt x="442" y="-7" on="1"/>
        <pt x="442" y="-24" on="0"/>
        <pt x="444" y="-38" on="1"/>
        <pt x="444" y="-69" on="0"/>
        <pt x="422" y="-67" on="1"/>
        <pt x="410" y="-68" on="0"/>
        <pt x="403" y="-38" on="0"/>
        <pt x="403" y="-20" on="1"/>
        <pt x="403" y="154" on="0"/>
        <pt x="538" y="375" on="1"/>
        <pt x="378" y="148" on="0"/>
        <pt x="223" y="9" on="1"/>
        <pt x="161" y="-47" on="0"/>
        <pt x="101" y="-47" on="1"/>
        <pt x="48" y="-47" on="0"/>
        <pt x="48" y="38" on="1"/>
        <pt x="48" y="156" on="0"/>
        <pt x="207" y="409" on="1"/>
        <pt x="238" y="459" on="0"/>
        <pt x="279" y="517" on="1"/>
        <pt x="291" y="538" on="0"/>
        <pt x="318" y="579" on="1"/>
        <pt x="417" y="720" on="0"/>
        <pt x="464" y="841" on="1"/>
        <pt x="472" y="862" on="0"/>
        <pt x="465" y="878" on="1"/>
        <pt x="458" y="893" on="0"/>
        <pt x="413" y="883" on="1"/>
        <pt x="384" y="877" on="0"/>
        <pt x="362" y="861" on="1"/>
        <pt x="281" y="803" on="0"/>
        <pt x="273" y="739" on="1"/>
        <pt x="271" y="734" on="0"/>
        <pt x="262" y="725" on="1"/>
        <pt x="253" y="721" on="0"/>
        <pt x="250" y="730" on="1"/>
        <pt x="253" y="806" on="0"/>
        <pt x="358" y="883" on="1"/>
        <pt x="411" y="922" on="0"/>
        <pt x="455" y="922" on="1"/>
        <pt x="501" y="922" on="0"/>
        <pt x="501" y="877" on="1"/>
        <pt x="501" y="846" on="0"/>
        <pt x="432" y="716" on="1"/>
        <pt x="393" y="644" on="0"/>
        <pt x="308" y="515" on="1"/>
        <pt x="218" y="381" on="0"/>
        <pt x="181" y="314" on="1"/>
        <pt x="120" y="203" on="0"/>
        <pt x="104" y="110" on="1"/>
        <pt x="99" y="79" on="0"/>
        <pt x="99" y="60" on="1"/>
        <pt x="99" y="6" on="0"/>
        <pt x="137" y="-1" on="1"/>
        <pt x="162" y="-6" on="0"/>
        <pt x="207" y="32" on="1"/>
        <pt x="376" y="174" on="0"/>
        <pt x="549" y="419" on="1"/>
        <pt x="641" y="560" on="0"/>
        <pt x="827" y="843" on="1"/>
        <pt x="837" y="857" on="0"/>
        <pt x="875" y="915" on="0"/>
        <pt x="886" y="907" on="1"/>
        <pt x="892" y="905" on="0"/>
      </contour>
    </TTGlyph>
</ttFont>
